<svg xmlns="http://www.w3.org/2000/svg" width="18" height="18" viewBox="0 0 18 18"><defs><style>.a{fill:#54e360;}</style></defs><g transform="translate(979 -1188)"><path class="a" d="M16.549,6.861,16.8,4.5l-2.17-.966a.313.313,0,0,1-.159-.159L13.5,1.205l-2.362.247a.315.315,0,0,1-.216-.058L9,0,7.077,1.394a.316.316,0,0,1-.216.058L4.5,1.205l-.965,2.17a.311.311,0,0,1-.159.159L1.2,4.5l.247,2.362a.314.314,0,0,1-.058.216L0,9l1.394,1.923a.314.314,0,0,1,.058.216L1.2,13.5l2.17.966a.313.313,0,0,1,.159.159L4.5,16.8l2.362-.247.031,0a.311.311,0,0,1,.183.06L9,18l1.923-1.393a.312.312,0,0,1,.216-.058L13.5,16.8l.965-2.17a.312.312,0,0,1,.159-.159L16.8,13.5l-.247-2.362a.312.312,0,0,1,.058-.216L18,9,16.607,7.077a.312.312,0,0,1-.058-.216Zm-3.01-.08-6.195,6.2a.313.313,0,0,1-.442,0L4.245,10.32a.313.313,0,0,1,0-.443l.885-.882a.313.313,0,0,1,.442,0l1.55,1.547,5.088-5.088a.313.313,0,0,1,.442,0l.885.885a.313.313,0,0,1,0,.442Zm0,0" transform="translate(-979 1188)"/></g></svg>