<svg id="Group_574" data-name="Group 574" xmlns="http://www.w3.org/2000/svg" width="18.404" height="18.68" viewBox="0 0 18.404 18.68">
  <g id="Group_573" data-name="Group 573" transform="translate(0 0)">
    <path id="Path_3270" data-name="Path 3270" d="M263.744,80.074a.519.519,0,0,0-.519.519V81.87a1,1,0,0,1-2,0c0-7.942,0-7.459.005-7.556a1,1,0,0,1,2,.1v3.759a.519.519,0,1,0,1.037,0V74.413a2.038,2.038,0,0,0-3.908-.813,2.945,2.945,0,0,1-1.941-.391,5.552,5.552,0,0,0-3.228-1.1h-6.659a1.882,1.882,0,0,0-1.414,3.124,1.88,1.88,0,0,0-.334,2.634,1.883,1.883,0,0,0-.3,2.914,1.88,1.88,0,0,0,1.258,3.272h3.5a9.6,9.6,0,0,0-1.127,4.759c.109,2.022,2.449,2.746,3.422.961a4.838,4.838,0,0,0,.431-1.588,4.289,4.289,0,0,1,2.412-2.888,6.026,6.026,0,0,0,1.74-.91,3.051,3.051,0,0,0,.919-1.132c.355-.747,1.181-.555,1.317-.582a2.039,2.039,0,0,0,3.912-.8V80.593A.518.518,0,0,0,263.744,80.074Zm-3.789,1.563a2.067,2.067,0,0,0-1.859,1.175,2.009,2.009,0,0,1-.6.747,5.152,5.152,0,0,1-1.527.787,5.312,5.312,0,0,0-3.017,3.621,4.923,4.923,0,0,1-.327,1.312c-.477.875-1.424.438-1.476-.52a8.419,8.419,0,0,1,1.223-4.583.756.756,0,0,0-.641-1.157h-3.99a.841.841,0,1,1,0-1.682c1.153,0-.314-.007.532-.007a.519.519,0,1,0,0-1.037h-.464a.843.843,0,0,1-.832-.7.914.914,0,0,1,.106-.579l.086-.119.082-.083c.044-.038.152-.108.145-.1a.962.962,0,0,1,.412-.107h.464a.519.519,0,0,0,0-1.037.846.846,0,0,1-.338-1.619,1.35,1.35,0,0,1,.6-.071.519.519,0,0,0,.012-1.037,1.012,1.012,0,0,1-.1-.005l-.149-.03-.043-.014-.208-.109-.109-.093-.1-.129a.874.874,0,0,1-.134-.564.843.843,0,0,1,.839-.746h6.659a4.558,4.558,0,0,1,2.61.895,3.557,3.557,0,0,0,2.389.6v7h-.23Z" transform="translate(-245.859 -72.11)" fill="#b6b8bc"/>
  </g>
</svg>
