<svg id="Group_576" data-name="Group 576" xmlns="http://www.w3.org/2000/svg" width="18.405" height="18.68" viewBox="0 0 18.405 18.68">
  <g id="Group_575" data-name="Group 575">
    <path id="Path_3271" data-name="Path 3271" d="M17.784,179.773a1.88,1.88,0,0,0-1.258-3.273h-3.5a9.6,9.6,0,0,0,1.127-4.759c-.11-2.03-2.452-2.741-3.423-.961a4.84,4.84,0,0,0-.431,1.588,4.289,4.289,0,0,1-2.413,2.888,6.025,6.025,0,0,0-1.74.91,3.051,3.051,0,0,0-.919,1.132c-.355.747-1.181.555-1.317.583a2.039,2.039,0,0,0-3.912.8v.8a.519.519,0,1,0,1.037,0v-.8a1,1,0,1,1,2,0v7.457a1,1,0,0,1-2,0v-4.235a.519.519,0,0,0-1.037,0v4.235a2.039,2.039,0,0,0,3.908.813,2.945,2.945,0,0,1,1.941.391,5.553,5.553,0,0,0,3.228,1.1h2.91a.519.519,0,1,0,0-1.037H9.077a4.558,4.558,0,0,1-2.611-.895,3.557,3.557,0,0,0-2.389-.6v-7h.23a2.067,2.067,0,0,0,1.859-1.175,2.01,2.01,0,0,1,.6-.747A5.154,5.154,0,0,1,8.3,176.21a5.312,5.312,0,0,0,3.017-3.622c0-.014.006-.027.008-.041a4.259,4.259,0,0,1,.319-1.271c.478-.878,1.424-.436,1.476.52A8.419,8.419,0,0,1,11.9,176.38a.756.756,0,0,0,.641,1.157h3.99a.841.841,0,1,1,0,1.682h-.391l-.054,0-.02,0-.023,0h-.044a.519.519,0,1,0,0,1.037h.464a.843.843,0,0,1,.832.7.862.862,0,0,1-.167.667l-.079.088-.028.026c-.044.038-.143.1-.136.1a1.676,1.676,0,0,1-.885.113.519.519,0,0,0,0,1.037.845.845,0,0,1,.308,1.631,1.456,1.456,0,0,1-.566.058.519.519,0,0,0-.012,1.037.982.982,0,0,1,.352.072,1.077,1.077,0,0,1,.211.133.845.845,0,0,1-.551,1.485H14.408a.519.519,0,1,0,0,1.037h1.328a1.882,1.882,0,0,0,1.414-3.124,1.88,1.88,0,0,0,.334-2.634A1.884,1.884,0,0,0,17.784,179.773Z" transform="translate(0 -169.764)" fill="#b6b8bc"/>
  </g>
</svg>
