<svg xmlns="http://www.w3.org/2000/svg" width="19.575" height="19.576" viewBox="0 0 19.575 19.576"><defs><style>.a{fill:#3aaced;}</style></defs><g transform="translate(0.994 1)"><g transform="translate(-0.993 -1)"><g transform="translate(0 0)"><path class="a" d="M7.122,185.1l-2.307,2.307a2.447,2.447,0,0,1-3.461-3.46l4.614-4.614a2.446,2.446,0,0,1,3.46,0,.816.816,0,1,0,1.154-1.154,4.078,4.078,0,0,0-5.767,0L.2,182.8a4.078,4.078,0,0,0,5.768,5.767l2.307-2.307A.816.816,0,1,0,7.122,185.1Z" transform="translate(0.993 -170.181)"/><path class="a" d="M201.017.194a4.079,4.079,0,0,0-5.768,0l-2.768,2.768a.816.816,0,1,0,1.154,1.154L196.4,1.347a2.447,2.447,0,0,1,3.461,3.46l-5.075,5.075a2.446,2.446,0,0,1-3.46,0,.816.816,0,0,0-1.154,1.154,4.078,4.078,0,0,0,5.767,0l5.075-5.075A4.078,4.078,0,0,0,201.017.194Z" transform="translate(-182.636 1)"/></g></g></g></svg>