<svg xmlns="http://www.w3.org/2000/svg" width="38" height="38" viewBox="0 0 38 38"><defs><style>.a{fill:#2dc66e;}</style></defs><g transform="translate(9.023 4.774)"><path class="a" d="M149.459,64.748a1.432,1.432,0,0,0-2.025,0L130.252,81.881l-6.2-6.733a1.432,1.432,0,1,0-2.107,1.94l7.209,7.829a1.43,1.43,0,0,0,1.023.462h.031a1.434,1.434,0,0,0,1.011-.418l18.236-18.188A1.432,1.432,0,0,0,149.459,64.748Z" transform="translate(-121.568 -64.327)"/></g><path class="a" d="M36.568,17.568A1.432,1.432,0,0,0,35.136,19,16.136,16.136,0,1,1,19,2.864,1.432,1.432,0,1,0,19,0,19,19,0,1,0,38,19,1.432,1.432,0,0,0,36.568,17.568Z"/></svg>