<svg xmlns="http://www.w3.org/2000/svg" xmlns:xlink="http://www.w3.org/1999/xlink" width="1366" height="452" viewBox="0 0 1366 452">
  <defs>
    <clipPath id="clip-path">
      <rect id="Rectangle_26" data-name="Rectangle 26" width="1366" height="452" transform="translate(-296.333 -334.163)" fill="#fff"/>
    </clipPath>
  </defs>
  <g id="Group_205" data-name="Group 205" transform="translate(0 -3567)">
    <rect id="Rectangle_26-2" data-name="Rectangle 26" width="1366" height="452" transform="translate(0 3567)" fill="#18458b"/>
    <g id="Group_186" data-name="Group 186" transform="translate(296.333 3901.163)" opacity="0.1">
      <g id="Group_185" data-name="Group 185" clip-path="url(#clip-path)">
        <path id="Path_1550" data-name="Path 1550" d="M-296.333-370.955v2.22q16.463,9.331,32.939,18.633c.785.441,1.5,1.012,2.693,1.831-1.384.79-2.361,1.365-3.334,1.921q-16.152,9.084-32.3,18.174v2.278q16.307-9.6,32.59-19.227c1.081-.64,2.163-1.254,3.654-2.109.106,1.551.237,2.563.22,3.576-.2,18.229-.472,36.457-.568,54.68a5.363,5.363,0,0,1-3.047,5.28q-16.467,9.584-32.849,19.311v1.393q16.835-9.458,33.646-18.974c2.175-1.243,3.854-1.4,6.113-.092,15.934,9.125,31.942,18.113,47.923,27.15.8.452,1.544,1.005,2.887,1.875-2.771,1.6-4.982,2.9-7.212,4.156-14.471,8.133-28.967,16.222-43.4,24.432-2.167,1.228-3.815,1.443-6.1.121q-16.884-9.684-33.862-19.209v1.631c13.684,7.839,30.969,18.142,35.591,21.43q.276,30.263.561,60.911c-1.8-.356-21.064-11.342-36.152-20.335v1.97q15.986,9.058,31.989,18.093c.986.56,1.926,1.2,3.272,2.041-1.218.817-2.018,1.44-2.89,1.933q-16.185,9.093-32.371,18.195v1.825q16.035-9.435,32.047-18.909c1.085-.643,2.179-1.256,3.685-2.126.1,1.513.246,2.525.231,3.527-.19,18.349-.439,36.69-.592,55.037-.017,2.051-.41,3.46-2.362,4.607q-16.533,9.635-33.009,19.38v1.817q16.866-9.454,33.7-18.967a4.824,4.824,0,0,1,5.477-.106c16.024,9.172,32.121,18.218,48.188,27.31.792.443,1.528.977,2.6,1.679-1.044.7-1.735,1.269-2.509,1.7q-24.3,13.668-48.6,27.341a4.293,4.293,0,0,1-4.853.1q-16.974-9.691-34.007-19.279v1.736q16.482,9.767,32.975,19.5a3.71,3.71,0,0,1,2.174,3.592c.121,19.077.324,38.148.486,57.225.007.461-.082.924-.2,2.194-11.977-7.1-23.729-14.066-35.432-21.005v2.167q16.245,9.2,32.492,18.4c.674.38,1.256.931,2.155,1.583-1.17.754-2,1.358-2.875,1.85q-15.893,8.94-31.772,17.876v2.116q11.636-6.831,23.274-13.653c3.849-2.255,7.739-4.466,12.2-7.039.055,1.621.149,2.752.136,3.888-.2,18.116-.468,36.245-.575,54.368a5.387,5.387,0,0,1-3.039,5.294q-16.044,9.343-32,18.829v1.361q16.883-9.477,33.757-18.974a3.812,3.812,0,0,1,4.236-.189q24.993,14.218,50.027,28.356a16.386,16.386,0,0,1,1.544,1.218c-1.454.836-2.458,1.423-3.476,2-15.684,8.821-31.4,17.59-47.027,26.52a5.612,5.612,0,0,1-6.429-.039q-16.272-9.345-32.632-18.539v1.749q16.05,9.515,32.107,19.013c1.585.938,2.694,1.8,2.7,4.006.068,18.936.3,37.886.459,56.833.012.578-.071,1.16-.135,2.088a13.857,13.857,0,0,1-2.262-.785q-16.445-9.729-32.873-19.463v2.181q15.73,8.918,31.474,17.806c.878.5,1.69,1.128,2.946,1.962-1.409.819-2.392,1.4-3.388,1.95q-15.516,8.717-31.032,17.442v1.84q16.466-9.687,32.919-19.4a20.591,20.591,0,0,1,2.061-.877c.058,1.426.141,2.349.141,3.269q-.316,27.723-.613,55.438c-.016,1.915-.4,3.236-2.241,4.31q-16.159,9.43-32.267,18.965v1.66q16.551-9.311,33.091-18.639c1.551-.872,2.841-1.232,4.559-.249q23.547,13.412,47.159,26.7h3.165c-9.556-4.908-46.079-26.339-51.187-30.111q-.26-30.278-.55-60.933c2.8.7,47.731,26.979,53.337,31.125q.274,29.771.553,59.919h1.218c-.054-.863-.1-1.588-.087-2.29.2-18.122.481-36.248.548-54.37.009-2.774.974-4.189,3.284-5.528,15.675-9.111,31.272-18.37,46.9-27.568.872-.513,1.812-.926,3.134-1.6.074,1.515.184,2.641.171,3.764-.2,18.129-.451,36.251-.57,54.375-.017,2.507-.725,4.024-2.972,5.334-15.671,9.127-31.26,18.4-46.872,27.62l-.446.263h1.6q23.478-13.164,46.921-26.379c1.8-1.009,3.219-1.306,5.172-.189,15.586,8.916,31.236,17.717,46.859,26.568H-99c-17.121-10.146-33.684-19.965-50.358-29.846-.192-20.375-.372-40.688-.556-61.082,2.774.736,48.787,27.7,53.208,31.11.175,19.629.354,39.379.54,59.818h1.278a9.462,9.462,0,0,1-.145-1.523q.3-28.044.612-56.091c.012-1.636.311-2.856,1.9-3.781Q-77,245.222-61.531,236.061v.013l13.7-8.085q2.254-1.33,4.509-2.657c.4-.227.851-.443,1.36-.682.138-.05.259-.093.445-.162a19.588,19.588,0,0,1,.278,2.651c-.193,18.576-.44,37.159-.6,55.734-.02,1.952-.453,3.241-2.279,4.3-5.937,3.451-11.852,6.948-17.772,10.432v.192q-15.215,8.952-30.42,17.915h2.479q14.9-8.382,29.812-16.76,8.558-4.794,17.112-9.6a9.169,9.169,0,0,1,.966-.465,5.165,5.165,0,0,1,.57-.192c.048-.014.1-.021.143-.034a3.708,3.708,0,0,1,1.625-.016,5.158,5.158,0,0,1,1.194.5c15.6,8.91,31.253,17.722,46.895,26.568h2.7Q-13.015,301.4-37.194,287.073a3.492,3.492,0,0,1-2.066-3.308q-.176-28.94-.459-57.885a10.756,10.756,0,0,1,.219-1.444c1.077.541,1.952.943,2.731,1.415q23.7,14.012,47.384,28.05c1.6.945,2.683,1.819,2.69,4.018.072,18.943.294,37.893.461,56.836.006.3-.017.606-.045.957H15.4a8.74,8.74,0,0,1-.13-1.448q.3-28.041.606-56.094c.02-1.647.344-2.853,1.919-3.776q24.915-14.587,49.763-29.3c.217-.106.49-.227.813-.357.122-.043.265-.1.427-.156.076,1.2.167,2.094.157,2.961-.2,18.462-.444,36.919-.618,55.385-.016,1.9-.343,3.251-2.2,4.334-16.147,9.422-32.227,18.959-48.337,28.45h2.122C35.448,306.964,51,298.264,66.5,289.464a5.749,5.749,0,0,1,4.476-.671,6.93,6.93,0,0,1,.975.433c15.543,8.891,31.159,17.668,46.75,26.486H122.3c-8.71-4.291-42.8-24.218-51.324-30.082q-.266-30.306-.548-60.625c1.64.579,7.247,3.6,14.361,7.62l33.6,19.914c1.928,1.215,3.6,2.292,4.88,3.162.189,19.838.372,39.9.556,60.011h1.625a11.168,11.168,0,0,1-.15-1.614c.2-18.6.444-37.19.617-55.785a4.771,4.771,0,0,1,1.043-3.372c.072-.071.138-.147.216-.215a5.1,5.1,0,0,1,.615-.473c.226-.154.441-.311.7-.458q20.281-11.846,40.522-23.773c2.332-1.37,4.62-2.815,6.961-4.185.779-.455,1.647-.845,2.711-1.36l.186-.076c.058,1.339.134,2.24.134,3.127q-.316,27.723-.612,55.438c-.017,1.915-.4,3.236-2.242,4.31-16.138,9.418-32.221,18.951-48.323,28.436h2.543q23.478-13.232,46.958-26.45a9,9,0,0,1,1.024-.5c.083-.032.166-.059.249-.086a4.1,4.1,0,0,1,.529-.133,3.32,3.32,0,0,1,1.206-.024,4.572,4.572,0,0,1,1.2.49q23.545,13.412,47.158,26.7h3.52c-3.978-2.044-12.631-6.951-21.744-12.255v-.005q-7.26-4.3-14.546-8.572c-6.127-3.666-11.27-6.823-13.8-8.517a4.675,4.675,0,0,1-1.111-2.194q-.251-29.118-.529-58.58c.016-.258.029-.491.045-.771,2.309.979,11.714,6.277,22.011,12.259l7.929,4.7v-.063c10.637,6.263,20.547,12.272,22.989,14.079q.276,29.771.553,59.919h1.573c-.054-.863-.1-1.588-.087-2.29.2-18.122.481-36.248.548-54.37.009-2.774.974-4.189,3.284-5.528,15.675-9.111,31.272-18.37,46.9-27.568.79-.465,1.653-.858,2.789-1.428.074,1.425.173,2.514.161,3.592-.2,18.129-.451,36.251-.57,54.375-.017,2.507-.725,4.024-2.972,5.334-15.671,9.127-31.26,18.4-46.871,27.62l-.447.263h1.956q23.479-13.164,46.922-26.379a6.258,6.258,0,0,1,2.423-.868,4.6,4.6,0,0,1,2.394.679c15.587,8.916,31.236,17.717,46.859,26.568h2.7c-17.121-10.146-33.684-19.965-50.358-29.846-.191-20.33-.372-40.6-.555-60.949,5.055,2.149,48.56,27.665,52.854,30.977.174,19.629.352,39.379.538,59.818h1.633a9.466,9.466,0,0,1-.145-1.523q.3-28.044.611-56.091c.012-1.636.312-2.856,1.9-3.781q24.967-14.636,49.868-29.379a8.767,8.767,0,0,1,1.135-.45l.006.041c.074,1.169.173,2.05.162,2.9-.206,18.464-.456,36.926-.6,55.389a4.58,4.58,0,0,1-2.5,4.526c-16.1,9.4-32.152,18.906-48.219,28.363h2.833q23.406-13.162,46.816-26.32a5.624,5.624,0,0,1,2.372-.808,4.356,4.356,0,0,1,2.13.618c15.56,8.888,31.183,17.682,46.791,26.51h2.7q-24.036-14.219-48.056-28.441c-1.43-.847-2.292-1.7-2.3-3.533-.111-19.177-.3-38.352-.462-57.534a17.027,17.027,0,0,1,.207-1.786c1.267.673,2.225,1.158,3.123,1.7,15.6,9.234,31.157,18.51,46.792,27.672a5.073,5.073,0,0,1,2.922,4.97c.07,18.245.28,36.472.442,54.714.009.7-.027,1.414-.066,2.243h1.691a10.077,10.077,0,0,1-.113-1.485c.195-18.578.432-37.158.612-55.738.01-1.756.245-3.073,1.977-4.09q24.831-14.526,49.573-29.19a12,12,0,0,1,1.377-.6c.069,1.181.155,1.96.149,2.718-.213,18.59-.46,37.166-.614,55.743-.015,1.953-.474,3.226-2.286,4.283-16.092,9.4-32.125,18.9-48.183,28.363h2.108c15.416-8.664,30.85-17.282,46.21-26.037a5.463,5.463,0,0,1,6.391-.078c15.292,8.8,30.685,17.428,46.045,26.115H562.6c-9.091-4.575-43.871-24.938-51.172-30.053-.187-19.779-.367-39.8-.558-60.7a84.627,84.627,0,0,1,8.445,4.3c14.806,8.776,29.206,17.311,43.719,25.911.236.156.468.311.683.456q.272,29.991.553,60.085H565.9a4,4,0,0,1-.157-1.018c.191-18.947.452-37.9.589-56.848.02-2.145,1.095-3.112,2.716-4.051q20.281-11.846,40.522-23.773c2.332-1.37,4.62-2.815,6.961-4.185.783-.457,1.654-.848,2.726-1.367.084,1.324.19,2.3.179,3.266q-.309,27.545-.609,55.082a5.87,5.87,0,0,1-.579,3c-.013.02-.028.039-.041.059a3.482,3.482,0,0,1-.611.72,5.063,5.063,0,0,1-.706.539c-.048.03-.084.062-.134.091-16.179,9.437-32.3,18.976-48.422,28.484h2.56q23.526-13.254,47.053-26.5a5.116,5.116,0,0,1,2.107-.726,3.66,3.66,0,0,1,1.782.5q14.4,8.207,28.836,16.355v-.151q9.293,5.252,18.578,10.518h3.165c-3.926-2.017-12.406-6.824-21.389-12.049v-.211q-12.7-7.53-25.443-14.994c-.657-.412-1.248-.788-1.788-1.135a5.245,5.245,0,0,1-2.415-4.868c-.054-18.135-.278-36.264-.43-54.393-.015-1,.066-2,.135-3.244,1.415.6,5.494,2.821,10.8,5.824q9.391,5.566,18.785,11.135v-.21l.354.21v-.063c10.637,6.263,20.546,12.272,22.989,14.079q.274,29.771.553,59.919h1.218c-.053-.863-.1-1.588-.087-2.29.2-18.122.481-36.248.548-54.37.01-2.774.974-4.189,3.284-5.528,15.676-9.111,31.273-18.37,46.9-27.568.872-.513,1.812-.926,3.134-1.6.075,1.515.183,2.641.171,3.764-.2,18.129-.451,36.251-.57,54.375-.017,2.507-.725,4.024-2.972,5.334-15.671,9.127-31.26,18.4-46.871,27.62l-.447.263h1.6q23.478-13.164,46.922-26.379c1.8-1.009,3.219-1.306,5.171-.189,15.586,8.916,31.236,17.717,46.859,26.568h2.346c-17.121-10.146-33.683-19.965-50.358-29.846-.191-20.375-.372-40.688-.556-61.082,2.774.736,48.788,27.7,53.209,31.11.175,19.629.353,39.379.539,59.818h1.278a9.465,9.465,0,0,1-.145-1.523q.3-28.044.612-56.091c.012-1.636.311-2.856,1.9-3.781q24.969-14.636,49.868-29.379a15.581,15.581,0,0,1,1.484-.582c.075,1.268.186,2.177.174,3.078-.206,18.464-.457,36.926-.6,55.389a4.58,4.58,0,0,1-2.5,4.526c-16.1,9.4-32.152,18.906-48.22,28.363h2.479q23.406-13.162,46.816-26.32c1.67-.94,3.013-1.238,4.857-.19,15.559,8.888,31.183,17.682,46.791,26.51h2.342q-24.038-14.219-48.056-28.441c-1.43-.847-2.293-1.7-2.3-3.533-.111-19.177-.3-38.352-.462-57.534,0-.454.107-.908.23-1.962,1.445.773,2.477,1.286,3.455,1.871,15.6,9.234,31.157,18.51,46.792,27.672a5.071,5.071,0,0,1,2.921,4.97c.07,18.245.281,36.472.442,54.714.01.7-.026,1.414-.065,2.243h1.336a10.364,10.364,0,0,1-.113-1.485c.2-18.578.432-37.158.613-55.738.01-1.756.245-3.073,1.977-4.09q24.83-14.526,49.572-29.19c.4-.235.846-.37,1.723-.747.07,1.269.164,2.071.158,2.861-.213,18.59-.46,37.166-.614,55.743-.015,1.953-.474,3.226-2.286,4.283-16.092,9.4-32.126,18.9-48.184,28.363h1.755c15.415-8.664,30.849-17.282,46.209-26.037,2.416-1.382,4.25-1.511,6.746-.078,15.292,8.8,30.685,17.428,46.045,26.115h3.17c-9.09-4.575-43.871-24.938-51.171-30.053-.189-20.071-.373-40.384-.567-61.619,18.2,10.788,35.593,21.1,53.209,31.535q.273,30.017.554,60.137h1.273a4.086,4.086,0,0,1-.157-1.018c.192-18.947.452-37.9.589-56.848.02-2.145,1.095-3.112,2.716-4.051q20.281-11.846,40.522-23.773c2.332-1.37,4.621-2.815,6.962-4.185.871-.51,1.814-.913,3.068-1.532.087,1.414.2,2.426.191,3.431q-.309,27.545-.609,55.082c-.02,1.839-.164,3.294-2.071,4.41-16.179,9.437-32.3,18.976-48.423,28.484h2.206q23.526-13.254,47.053-26.5c1.447-.813,2.67-1.117,4.243-.226q14.4,8.207,28.837,16.355v-1.893q-13.3-7.887-26.646-15.7a5.338,5.338,0,0,1-3-5.294c-.053-18.135-.277-36.264-.43-54.393-.017-1.138.092-2.261.165-3.767,1.283.648,2.215,1.061,3.095,1.585q13.41,7.941,26.817,15.9v-2.045q-13.758-7.791-27.52-15.572c-.409-.222-.761-.534-1.5-1.051a19.2,19.2,0,0,1,2.156-1.682q13.428-7.566,26.863-15.113V204.6q-14.16,8.343-28.323,16.677a12.911,12.911,0,0,1-1.466.541c-.057-1.29-.155-2.2-.14-3.11.2-18.457.444-36.921.606-55.383.015-1.926.411-3.238,2.242-4.306q13.563-7.919,27.081-15.92V141.1q-13.664,7.68-27.279,15.427a5.6,5.6,0,0,1-6.427-.029c-15.705-9.022-31.507-17.874-47.262-26.8-.9-.5-1.748-1.1-2.972-1.891.884-.629,1.467-1.129,2.116-1.491q24.609-13.838,49.215-27.68a4.036,4.036,0,0,1,4.548-.014q14.011,7.969,28.061,15.888v-1.875c-9.718-5.753-19.363-11.465-29.055-17.21-.183-20.323-.369-40.645-.564-61.862,10.057,5.961,19.879,11.787,29.619,17.564V49.089q-13.137-7.429-26.283-14.86c-.689-.4-1.312-.9-2.537-1.735,1.459-.84,2.355-1.369,3.259-1.872q12.783-7.191,25.561-14.374V14.3q-12.717,7.5-25.43,15.009c-1.109.655-2.235,1.283-3.952,2.274-.093-1.677-.2-2.7-.182-3.719.193-18.237.456-36.47.565-54.714a5.4,5.4,0,0,1,3.054-5.3q12.993-7.571,25.945-15.231v-1.563q-13.714,7.7-27.423,15.417c-1.673.943-3.019,1.223-4.852.174-16.344-9.326-32.746-18.546-49.124-27.817-.589-.331-1.118-.769-2.012-1.385,1.067-.722,1.853-1.345,2.713-1.841q24.153-13.572,48.3-27.143c1.667-.94,3.005-1.247,4.851-.206q13.75,7.861,27.542,15.638v-1.892q-13.163-7.8-26.341-15.579a4.281,4.281,0,0,1-2.409-4.185c-.1-18.581-.3-37.171-.462-55.761-.007-.9.114-1.788.211-3.107,1.341.693,2.371,1.155,3.341,1.73q12.823,7.6,25.66,15.184v-2.011q-12.622-7.14-25.258-14.27c-.9-.515-1.745-1.114-2.966-1.9.868-.624,1.443-1.138,2.1-1.505q13.059-7.342,26.129-14.688v-1.665q-12.681,7.488-25.348,14.986c-.993.584-1.986,1.14-3.373,1.942a28.177,28.177,0,0,1-.358-3.09c.2-18.6.438-37.192.611-55.792.015-1.9.38-3.254,2.223-4.332q13.149-7.67,26.245-15.4v-1.809q-13.515,7.593-27.02,15.205a4.331,4.331,0,0,1-4.859.121c-16.358-9.336-32.76-18.571-49.157-27.849-.6-.331-1.133-.762-2.148-1.467,1.249-.807,2-1.353,2.8-1.8,15.7-8.836,31.43-17.6,47.065-26.544,2.65-1.521,4.626-1.685,7.378-.09q12.924,7.47,25.943,14.78v-1.931c-9.418-5.583-18.766-11.124-28.19-16.707q-.285-30.408-.567-60.965c1.71.328,15.33,7.951,28.757,15.835v-1.674q-12.868-7.281-25.737-14.57c-.592-.326-1.117-.77-1.976-1.367a20.923,20.923,0,0,1,1.838-1.334q12.935-7.292,25.875-14.538v-2.025q-12.622,7.4-25.249,14.809c-.906.532-1.82,1.053-3.044,1.759a15.112,15.112,0,0,1-.428-2.547q.233-22.347.476-44.687h-2.017c.142,15.608.282,31.369.424,47.582-18.128-10.748-35.584-21.1-53.2-31.529q-.072-8.032-.15-16.053h-1.995c-.046,4.39-.1,8.778-.133,13.168a4.574,4.574,0,0,1-2.462,4.545c-16.061,9.392-32.058,18.89-48.08,28.351-.693.411-1.445.73-2.423,1.225a9.224,9.224,0,0,1-.491-2.036q.233-22.631.476-45.253h-2.012c.142,15.637.288,31.42.437,47.7-18.213-10.8-35.629-21.117-53.344-31.615q-.076-8.028-.15-16.082h-1.993q-.076,6.723-.148,13.448c-.019,1.636-.3,2.858-1.9,3.794q-25,14.626-49.928,29.368a11.382,11.382,0,0,1-1.474.505c-.057-1.43-.152-2.457-.137-3.489q.246-21.81.481-43.626h-2.025c.14,15.654.283,31.321.423,47.326-1.576-.827-2.6-1.31-3.573-1.883-15.6-9.241-31.177-18.525-46.827-27.687a5.1,5.1,0,0,1-2.9-4.982c-.012-4.257-.056-8.517-.083-12.774h-1.954c-.046,4.39-.108,8.782-.145,13.173-.022,1.936-.433,3.235-2.263,4.293q-24.534,14.334-48.967,28.833c-.5.3-1.049.505-1.972.939-.094-1.217-.244-2.208-.234-3.2q.246-22.017.49-44.039h-2.022q.156,22.213.382,44.417c0,.787-.109,1.579-.2,2.938-1.448-.769-2.387-1.233-3.284-1.767q-23.532-13.945-47.089-27.86c-1.9-1.119-2.826-2.279-2.829-4.671-.012-4.354-.056-8.7-.082-13.057h-1.969c-.046,4.354-.1,8.7-.14,13.057-.015,1.94-.45,3.24-2.267,4.3-15.882,9.267-31.707,18.629-47.545,27.955l-.275.162c-.424.248-.854.5-1.311.76-.386.211-.814.4-1.445.683a11.359,11.359,0,0,1-.363-2.231q.233-22.347.477-44.687h-2.373c.142,15.54.282,31.232.424,47.371-18-10.672-35.346-20.954-52.843-31.318q-.072-8.032-.15-16.053h-2.35c-.046,4.39-.1,8.778-.133,13.168a4.572,4.572,0,0,1-2.462,4.545c-16.037,9.378-32.011,18.862-48.009,28.31-.618.346-1.29.647-2.2,1.076a7.239,7.239,0,0,1-.434-1.846q.231-22.631.476-45.253h-2.367c.142,15.569.287,31.284.435,47.486-18.083-10.725-35.389-20.975-52.988-31.4q-.075-8.028-.15-16.082h-2.347q-.076,6.723-.148,13.448a4.834,4.834,0,0,1-.575,2.49,3.663,3.663,0,0,1-.5.656c-.081.079-.194.15-.287.226a5.747,5.747,0,0,1-.708.521q-24.618,14.407-49.172,28.924c-.337.171-.725.364-1.148.562-.15.045-.342.1-.563.175-.059-1.368-.147-2.373-.132-3.376q.245-21.81.48-43.626H400.19c.138,15.426.279,30.869.417,46.631-.005.168-.011.321-.016.5-1.355-.7-2.31-1.165-3.2-1.688-15.6-9.241-31.176-18.525-46.826-27.687a5.1,5.1,0,0,1-2.9-4.982c-.012-4.257-.055-8.517-.082-12.774h-2.309c-.046,4.39-.109,8.782-.145,13.173-.022,1.936-.432,3.235-2.263,4.293q-24.534,14.334-48.967,28.833c-.426.252-.934.466-1.632.784-.094-1.142-.229-2.1-.22-3.044q.246-22.017.491-44.039h-2.377q.156,22.213.382,44.417c0,.749-.1,1.517-.189,2.759-1.247-.658-2.123-1.1-2.943-1.588q-23.532-13.945-47.089-27.86c-1.9-1.119-2.827-2.279-2.83-4.671-.011-4.354-.055-8.7-.082-13.057h-2.323c-.046,4.354-.1,8.7-.14,13.057-.015,1.94-.449,3.24-2.267,4.3-16.36,9.546-32.659,19.194-48.975,28.8-.422.247-.889.439-1.6.762-.052-.259-.1-.476-.148-.708-.052-.934-.1-1.639-.092-2.34q.246-21.935.477-43.87h-2.377c.142,15.571.285,31.2.429,47.325-18.035-10.694-35.319-20.928-52.848-31.325q-.073-7.988-.148-16h-2.35c-.041,4.32-.094,8.638-.121,12.956-.029,2.251-.611,3.623-2.643,4.815-15.961,9.314-31.853,18.756-47.773,28.153-.664.392-1.39.705-2.383,1.175-.075-.269-.154-.51-.226-.751-.049-.988-.091-1.7-.083-2.414q.256-21.972.478-43.934H69.918c.142,15.622.286,31.289.427,47.436-18.152-10.762-35.537-21.076-52.982-31.417-.048-5.347-.1-10.677-.147-16.019H14.87c-.046,4.4-.1,8.8-.133,13.2a4.3,4.3,0,0,1-2.348,4.253q-24.229,14.163-48.372,28.472c-.591.355-1.269.651-2.147,1.067-.1-1.25-.24-2.216-.224-3.179.157-14.6.341-29.207.473-43.812H-40.2q.167,21.495.328,42.986c0,1.2-.054,2.406-.1,4.145-.135-.071-.251-.129-.379-.195-7.133-4.207-14.172-8.358-21.177-12.491v.112q-14.216-8.432-28.466-16.8a5.1,5.1,0,0,1-2.9-4.982c-.012-4.257-.055-8.517-.082-12.774h-1.954c-.047,4.39-.109,8.782-.145,13.173-.022,1.936-.433,3.235-2.264,4.293q-24.532,14.334-48.967,28.833c-.5.3-1.048.505-1.971.939-.094-1.217-.244-2.208-.235-3.2q.248-22.017.491-44.039h-2.022q.156,22.213.382,44.417c0,.787-.11,1.579-.2,2.938-1.448-.769-2.387-1.233-3.284-1.767q-23.532-13.945-47.089-27.86c-1.9-1.119-2.826-2.279-2.83-4.671-.011-4.354-.055-8.7-.082-13.057h-1.969c-.045,4.354-.1,8.7-.139,13.057-.015,1.94-.45,3.24-2.267,4.3-16.36,9.546-32.659,19.194-48.976,28.8-.507.3-1.058.5-2.056.971-.066-1.432-.148-2.343-.138-3.257q.246-21.935.476-43.87h-2.023c.144,15.64.286,31.34.431,47.535C-272.241-356.68-284.3-363.824-296.333-370.955Zm37.855,152.6c.013-2.189,1.179-3.081,2.774-4.011q19.212-11.239,38.393-22.521c3.842-2.257,7.72-4.458,12.093-6.971.09,1.375.207,2.293.2,3.194-.2,18.48-.45,36.958-.6,55.44a4.575,4.575,0,0,1-2.462,4.545c-16.06,9.391-32.058,18.885-48.077,28.337-.693.418-1.447.741-2.423,1.232a8.828,8.828,0,0,1-.488-2.04C-258.881-180.226-258.62-199.289-258.478-218.358Zm215.261-3.873a4.275,4.275,0,0,1,2.534,4.108c.086,18.708.3,37.419.455,56.117.009.76-.085,1.531-.175,2.761-1.133-.585-1.913-.964-2.636-1.383q-9.246-5.477-18.492-10.96v.106Q-75.9-180-90.3-188.453a5.327,5.327,0,0,1-3.106-5.234c-.04-18.12-.263-36.24-.415-54.361-.009-1.138.075-2.278.131-3.822,1.167.541,2.007.863,2.766,1.312q14.521,8.594,29.038,17.193v.087Q-52.555-227.751-43.217-222.231Zm994.849,256c1.382.722,2.409,1.2,3.383,1.788,15.6,9.237,31.163,18.532,46.825,27.675a5.3,5.3,0,0,1,3.042,5.262c.055,18.133.276,36.272.433,54.407.007,1.134-.084,2.265-.157,3.825-1.383-.72-2.417-1.2-3.386-1.78-15.6-9.245-31.173-18.535-46.828-27.687A5.3,5.3,0,0,1,951.907,92c-.048-18.141-.271-36.274-.427-54.4C951.465,36.462,951.562,35.336,951.632,33.768Zm-.007-5.173q.3-28.044.613-56.092c.013-1.655.341-2.848,1.919-3.774Q979.12-45.9,1004.029-60.644a12.85,12.85,0,0,1,1.474-.573c.073,1.276.176,2.184.162,3.09-.207,18.463-.444,36.929-.612,55.386-.018,1.907-.355,3.245-2.2,4.33-16.36,9.544-32.652,19.2-48.966,28.823-.5.292-1.046.517-1.93.956A22.433,22.433,0,0,1,951.625,28.595ZM1003.7,61.822c-16.347-9.353-32.765-18.58-49.155-27.853-.6-.341-1.149-.776-2.045-1.375a21.9,21.9,0,0,1,2.3-1.728c16.1-9.068,32.238-18.09,48.318-27.211,1.935-1.092,3.441-1.314,5.5-.14,16.142,9.232,32.36,18.338,48.538,27.5.7.391,1.341.887,2.644,1.754-1.535.882-2.518,1.471-3.518,2.022q-23.711,13.331-47.41,26.665C1007.129,62.45,1005.7,62.965,1003.7,61.822Zm-.17-190.754c-15.824-9.076-31.742-18-47.619-26.977-.9-.51-1.745-1.109-2.943-1.88.971-.7,1.638-1.3,2.4-1.73,16.109-9.076,32.237-18.1,48.314-27.228a4.83,4.83,0,0,1,5.489-.065c16.034,9.181,32.15,18.228,48.234,27.332.8.444,1.537,1,2.917,1.911-1.581.913-2.578,1.49-3.581,2.066-15.71,8.809-31.444,17.582-47.106,26.479C1007.46-127.793,1005.8-127.63,1003.53-128.932Zm1.888-64.327c-.014,1.888-.32,3.252-2.191,4.337-16.37,9.554-32.679,19.216-49.008,28.84-.49.292-1.036.495-1.9.9a21.8,21.8,0,0,1-.343-2.827c.2-18.594.469-37.194.58-55.789a4.85,4.85,0,0,1,2.822-4.719c16.062-9.379,32.065-18.87,48.091-28.3.593-.353,1.245-.594,2.388-1.121.077,1.416.174,2.331.166,3.242Q1005.722-220.976,1005.418-193.259Zm-.26,68.175c.178,20.159.362,40.454.553,61.531-18.1-10.721-35.554-21.059-53.207-31.514q-.279-30.492-.56-61.031C954.672-155.513,999.412-129.385,1005.158-125.084Zm-51.985,33.02q24.993,14.225,50.03,28.351a19.816,19.816,0,0,1,1.585,1.223c-1.44.836-2.438,1.423-3.458,2-15.683,8.822-31.405,17.59-47.036,26.521a5.588,5.588,0,0,1-6.422-.01c-15.7-9.032-31.5-17.88-47.26-26.8-.9-.506-1.754-1.1-2.979-1.882a25.192,25.192,0,0,1,2.086-1.512q24.61-13.827,49.224-27.665C950.385-92.656,951.6-92.961,953.173-92.064ZM841.544,33.678c18.042,10.559,35.445,20.99,53.066,31.4.186,20.391.37,40.711.556,61.734-1.786-1-2.822-1.549-3.825-2.148-15.4-9.126-30.763-18.305-46.214-27.325-2.279-1.331-3.272-2.706-3.279-5.479-.01-17.9-.249-35.794-.4-53.693C841.433,36.909,841.5,35.655,841.544,33.678Zm-.1-5.88c.2-18.356.433-36.7.607-55.041.019-1.88.3-3.25,2.177-4.344,16.452-9.6,32.843-19.327,49.265-29.009.4-.234.837-.4,1.554-.732a12.05,12.05,0,0,1,.44,2.315c-.191,18.926-.437,37.859-.6,56.787a3.837,3.837,0,0,1-2.179,3.651q-24.5,14.355-48.967,28.81a22.4,22.4,0,0,1-2.131.953C841.541,29.834,841.435,28.817,841.449,27.8ZM892.974,61.52c-15.813-9.066-31.715-17.981-47.581-26.958-.9-.509-1.742-1.1-2.968-1.882,1.085-.739,1.873-1.362,2.726-1.852q24.152-13.576,48.3-27.149c1.667-.935,3-1.256,4.852-.21,16.34,9.339,32.741,18.559,49.118,27.829.6.331,1.129.757,2.257,1.54-1.433.819-2.332,1.352-3.25,1.858-15.9,8.932-31.821,17.824-47.671,26.834A5.091,5.091,0,0,1,892.974,61.52Zm3.888,6.41a4.864,4.864,0,0,1,2.817-4.726c16.063-9.377,32.065-18.861,48.092-28.3.589-.35,1.247-.591,2.39-1.121.074,1.414.171,2.329.164,3.241-.206,18.476-.447,36.955-.587,55.434a4.564,4.564,0,0,1-2.515,4.506q-24.089,14.083-48.085,28.32c-.7.4-1.44.737-2.588,1.317-.108-1.274-.271-2.255-.263-3.236C896.49,104.883,896.751,86.4,896.862,67.93Zm53.368-36.4c-1.556-.863-2.59-1.411-3.6-2.013-15.486-9.162-30.946-18.394-46.49-27.479A5.32,5.32,0,0,1,897.058-3.2c-.044-18.129-.268-36.238-.421-54.369-.01-1.126.082-2.259.145-3.808,1.17.549,2.006.875,2.769,1.329q23.992,14.2,47.988,28.412c1.51.889,2.467,1.759,2.474,3.777.089,18.954.3,37.892.467,56.833C950.484,29.639,950.353,30.305,950.23,31.528ZM896.78-67.33c.206-18.245.456-36.482.588-54.731.018-2.339.6-3.829,2.785-5.091,15.98-9.288,31.876-18.721,47.8-28.105.694-.408,1.445-.734,2.467-1.264a15.1,15.1,0,0,1,.418,2.452c-.2,18.825-.439,37.659-.611,56.5a4.046,4.046,0,0,1-2.189,3.987Q923.5-79.2,899.048-64.7c-.494.292-1.039.49-2.116.984C896.864-65.276,896.775-66.3,896.78-67.33Zm53.886-91.807c-9.2-4.958-17.786-10.39-26.538-15.51-8.826-5.175-17.606-10.431-26.466-15.7-.189-20.388-.37-40.631-.561-61.354a25.387,25.387,0,0,1,2.757,1.174q24.164,14.29,48.331,28.6a3.708,3.708,0,0,1,2.174,3.593c.114,19.069.317,38.147.486,57.22C950.851-160.657,950.765-160.191,950.666-159.137Zm-51.675-27.81c16.036,9.181,32.15,18.232,48.232,27.326.8.45,1.528,1,2.853,1.878-2.977,1.717-5.4,3.134-7.846,4.5-14.161,7.97-28.366,15.864-42.476,23.912-2.4,1.37-4.209,1.562-6.736.107-15.6-9-31.308-17.791-46.98-26.666-1-.565-1.963-1.188-3.248-1.976a19.53,19.53,0,0,1,2.084-1.633c16.2-9.128,32.446-18.208,48.62-27.39A4.852,4.852,0,0,1,898.991-186.947Zm-3.62-5.9a3.813,3.813,0,0,1-1.937,3.764q-24.98,14.613-49.883,29.354a10.371,10.371,0,0,1-1.452.548c-.07-1.3-.166-2.213-.154-3.116.2-18.465.445-36.919.6-55.384.019-1.93.428-3.235,2.252-4.3q24.528-14.339,48.959-28.835c.5-.3,1.046-.512,1.838-.889a14.323,14.323,0,0,1,.389,2.411C895.794-230.475,895.555-211.658,895.371-192.845ZM842.04-156.9c17.9,10.6,35.37,20.958,53.06,31.442.187,20.37.375,40.712.568,61.458a15.435,15.435,0,0,1-2.4-.868Q868.8-79.342,844.329-93.85a3.464,3.464,0,0,1-2.068-3.291c-.106-19.31-.3-38.625-.464-57.935C841.795-155.416,841.885-155.762,842.04-156.9Zm1.748,65.3c16.039,9.182,32.15,18.233,48.232,27.337.792.45,1.527.993,2.924,1.914-1.583.911-2.576,1.493-3.579,2.058C875.653-51.473,859.921-42.7,844.259-33.8c-2.178,1.24-3.832,1.4-6.1.1-15.826-9.076-31.742-18-47.621-26.982-.9-.51-1.754-1.1-2.953-1.865a27.4,27.4,0,0,1,2.4-1.739c16.113-9.071,32.239-18.1,48.309-27.228A4.846,4.846,0,0,1,843.788-91.6ZM733.366,34.7Q757.98,49.25,782.574,63.828a3.482,3.482,0,0,1,2.04,3.321q.18,28.937.458,57.885a13.15,13.15,0,0,1-.251,1.583c-1.261-.641-2.193-1.066-3.075-1.588-15.793-9.343-31.568-18.742-47.4-28.047a4.49,4.49,0,0,1-2.643-4.4c-.077-18.6-.291-37.18-.452-55.765-.01-.822.063-1.636.111-2.743A9.174,9.174,0,0,1,733.366,34.7Zm-1.969-7c.2-18.129.454-36.245.575-54.372.012-2.5.7-4.035,2.965-5.354,15.78-9.165,31.471-18.479,47.2-27.735.876-.515,1.813-.926,3.132-1.6.073,1.529.183,2.652.171,3.773-.2,18.129-.456,36.251-.571,54.379a5.371,5.371,0,0,1-2.985,5.323C766.217,11.242,750.63,20.5,735.019,29.738c-.969.567-1.95,1.116-3.436,1.974C731.5,29.951,731.4,28.822,731.4,27.694ZM782.635,61.31c-15.819-9.061-31.717-17.986-47.58-26.969-.879-.5-1.7-1.127-2.984-2,1.39-.8,2.366-1.368,3.347-1.924,15.9-8.925,31.823-17.8,47.676-26.822a4.819,4.819,0,0,1,5.475,0c15.927,9.119,31.92,18.1,47.893,27.127.88.505,1.689,1.123,2.822,1.885-1.179.758-2.01,1.358-2.9,1.86-15.883,8.94-31.8,17.836-47.646,26.858A5.383,5.383,0,0,1,782.635,61.31Zm4.2,6.434a4.056,4.056,0,0,1,2.218-3.97c16.35-9.565,32.638-19.221,48.957-28.837.5-.292,1.041-.526,1.935-.968a22.124,22.124,0,0,1,.331,2.761c-.193,18.7-.435,37.39-.609,56.094-.017,1.641-.309,2.859-1.894,3.781q-25.123,14.715-50.192,29.521a7.3,7.3,0,0,1-1.189.36c-.067-1.075-.166-1.865-.156-2.65C786.445,105.144,786.68,86.445,786.839,67.744Zm.285-67.6q-.287-30.454-.566-61c2.671.519,46.973,26.358,53.217,30.978.176,20.148.362,40.451.551,61.566C822.13,20.9,804.735,10.582,787.124.149Zm-.536-66.57c.2-18.832.454-37.661.589-56.49.018-2.264,1.053-3.33,2.817-4.362q21.507-12.54,42.96-25.191c2.315-1.36,4.652-2.684,7.582-4.373.048,1.761.112,2.914.1,4.059-.2,18.24-.446,36.479-.574,54.726a4.6,4.6,0,0,1-2.506,4.524c-16.065,9.374-32.068,18.86-48.092,28.305-.693.416-1.435.739-2.45,1.247A15.172,15.172,0,0,1,786.588-66.421Zm53.972-92.538c-1.556-.869-2.588-1.415-3.588-2.014-15.495-9.172-30.951-18.395-46.494-27.48a5.326,5.326,0,0,1-3.105-5.234c-.041-18.12-.263-36.24-.415-54.361-.01-1.138.074-2.278.13-3.822,1.167.541,2.007.863,2.767,1.312q24,14.2,47.992,28.416c1.495.887,2.474,1.745,2.488,3.774.085,18.943.3,37.883.459,56.834C840.8-160.867,840.681-160.191,840.56-158.959Zm-52.02-28.107q24.677,14.05,49.428,27.987c.495.28.935.652,1.865,1.311-1.153.75-1.9,1.3-2.7,1.742q-24.148,13.573-48.282,27.166a4.581,4.581,0,0,1-5.166.1c-16.235-9.269-32.541-18.436-48.817-27.639-.594-.336-1.147-.758-2.054-1.358a23.506,23.506,0,0,1,2.268-1.686q24.454-13.755,48.9-27.5A4.064,4.064,0,0,1,788.54-187.066Zm-3.33-6.268a4.586,4.586,0,0,1-2.55,4.492c-16.153,9.438-32.25,18.965-48.368,28.448-.6.356-1.247.633-2.146,1.071a14.937,14.937,0,0,1-.4-2.41q.3-28.231.618-56.446a3.833,3.833,0,0,1,1.95-3.762Q759.3-236.549,784.2-251.3a12.576,12.576,0,0,1,1.438-.549c.075,1.3.176,2.216.167,3.126C785.6-230.26,785.348-211.793,785.21-193.334ZM735.074-154.96c15.8,9.349,31.587,18.747,47.416,28.067a4.233,4.233,0,0,1,2.5,4.112c.092,18.73.3,37.449.466,56.166.01.7-.053,1.4-.077,2.015a3.834,3.834,0,0,1-.406.264c-.1.038-.239.111-.314.073a20.773,20.773,0,0,1-1.9-.919Q757.557-80.11,732.277-95.108c-.183-20.39-.375-40.616-.559-61.568C733.26-155.9,734.2-155.484,735.074-154.96Zm-1.2,63.393q23.9,13.658,47.925,27.139c.8.456,1.551,1.012,2.952,1.916-1.563.9-2.553,1.491-3.551,2.049Q757.477-47.14,733.784-33.8c-1.749.986-3.169,1.479-5.174.336-16.347-9.346-32.757-18.58-49.144-27.852-.6-.335-1.15-.77-2.027-1.367a24.091,24.091,0,0,1,2.317-1.737c16.1-9.061,32.242-18.073,48.3-27.218A5.132,5.132,0,0,1,733.869-91.567ZM623.884,96.555c-.77-.5-1.413-.938-1.911-1.292-.182-20.2-.367-40.406-.561-61.49,9.932,5.887,19.64,11.644,29.263,17.353V51l23.7,14.052q.288,30.455.568,60.97c-1.283-.225-12.209-6.319-23.914-13.115v-.276C641.95,107.259,632.933,101.919,623.884,96.555Zm1.361-67.25c-.536.317-1.08.629-1.689.976-.521.28-1.1.551-1.931.95-.087-1.461-.177-2.426-.16-3.371.193-18.237.457-36.47.565-54.714a5.4,5.4,0,0,1,3.055-5.3q12.993-7.571,25.944-15.231v-.191q10.735-6.33,21.467-12.663c.676-.406,1.442-.679,2.507-1.175.112,1.17.269,2.049.262,2.917-.206,18.6-.442,37.195-.6,55.787-.021,1.947-.481,3.228-2.288,4.288q-10.867,6.342-21.7,12.74V14.3Q637.958,21.795,625.245,29.305ZM672.771,61.52q-10.847-6.225-21.742-12.363v-.068q-13.137-7.429-26.282-14.86c-.666-.383-1.282-.871-2.425-1.657.292-.213.542-.407.791-.6.954-.552,1.656-.962,2.356-1.35q12.783-7.191,25.56-14.374v-.189Q661.978,9.9,672.909,3.706a4.831,4.831,0,0,1,5.49-.08c16.033,9.177,32.149,18.233,48.234,27.334.8.447,1.534,1,2.933,1.911-1.593.916-2.581,1.494-3.581,2.066-15.708,8.81-31.442,17.583-47.108,26.479C676.705,62.648,675.047,62.822,672.771,61.52Zm3.893,6.369c.019-1.926.432-3.23,2.266-4.3,16.251-9.5,32.44-19.1,48.649-28.656.6-.36,1.255-.635,2.274-1.14.1,1.228.256,2.218.247,3.211-.2,18.46-.445,36.924-.607,55.388-.016,1.928-.4,3.25-2.232,4.313-16.363,9.549-32.669,19.2-48.984,28.8-.5.293-1.046.508-2.075,1-.065-1.411-.152-2.326-.14-3.235C676.263,104.816,676.5,86.354,676.664,67.889Zm53.4-36.521c-1.114-.54-1.952-.877-2.72-1.326Q703.337,15.821,679.312,1.614a4.273,4.273,0,0,1-2.436-4.159c-.094-18.718-.307-37.441-.464-56.167-.012-.782.1-1.57.184-2.713,1.005.471,1.742.756,2.406,1.143q24.156,14.316,48.33,28.615a4.252,4.252,0,0,1,2.446,4.153c.1,18.723.307,37.437.474,56.159C730.262,29.436,730.151,30.218,730.068,31.368Zm-53.5-98.6c.2-18.348.445-36.692.588-55.04.016-2.073.474-3.436,2.412-4.572,16.047-9.365,32.028-18.855,48.04-28.3.775-.455,1.621-.807,2.827-1.414.063,1.467.166,2.6.152,3.726-.2,18.107-.462,36.216-.566,54.332a5.342,5.342,0,0,1-3.027,5.282c-15.652,9.126-31.231,18.38-46.835,27.576-.977.58-1.969,1.14-3.375,1.957C676.685-65.223,676.56-66.228,676.569-67.236Zm.866-123.116c-.189-20.5-.373-40.727-.559-60.818a3.786,3.786,0,0,1,.528-.29.484.484,0,0,1,.32-.053c.636.305,1.286.587,1.892.933q25.185,14.928,50.468,29.922c.185,20.426.366,40.722.559,61.835C712.563-169.532,695.113-179.871,677.435-190.352Zm.947,3.153c16.437,9.4,32.946,18.675,49.42,28,.493.28.933.65,1.715,1.206a27.041,27.041,0,0,1-2.3,1.672q-24.3,13.682-48.585,27.361c-1.653.93-3.005,1.3-4.866.238q-11.353-6.493-22.74-12.918v-.095q-12.622-7.14-25.258-14.27c-.9-.515-1.745-1.114-2.965-1.9.868-.624,1.443-1.138,2.095-1.505q13.058-7.342,26.128-14.688v-.19q11.252-6.313,22.5-12.635C675.168-187.849,676.514-188.259,678.382-187.2Zm-3.224-6.028a4.576,4.576,0,0,1-2.462,4.545q-11.027,6.449-22.021,12.95v-.029q-12.681,7.488-25.348,14.986c-.37.218-.748.436-1.139.66-.565.305-1.171.592-1.922.968a22.134,22.134,0,0,1-.315-2.776c.2-18.6.437-37.192.611-55.792.014-1.9.38-3.254,2.223-4.332q13.149-7.67,26.244-15.4v-.143q6.218-3.651,12.438-7.3c3.841-2.257,7.719-4.458,12.092-6.971.09,1.375.208,2.293.2,3.194C675.554-230.187,675.308-211.709,675.158-193.227Zm-53.153,36.88c.228.072.433.134.645.2.871.433,1.656.819,2.365,1.239q12.824,7.6,25.66,15.184v-.093q11.091,6.571,22.188,13.135a3.5,3.5,0,0,1,2.076,3.3c.111,19.3.3,38.6.456,57.894a14.551,14.551,0,0,1-.237,1.6c-1.248-.638-2.191-1.044-3.059-1.558q-10.538-6.242-21.07-12.493v-.069q-13.162-7.8-26.34-15.579a4.28,4.28,0,0,1-2.409-4.185c-.1-18.581-.305-37.171-.462-55.761C621.811-154.357,621.913-155.193,622.005-156.347Zm-.021,64.118a5.2,5.2,0,0,1,1.149.476q13.75,7.861,27.542,15.638v-.1q10.567,5.971,21.134,11.943c.793.443,1.528.977,2.6,1.679-1.044.7-1.735,1.269-2.508,1.7q-10.611,5.97-21.226,11.942v0q-13.715,7.7-27.423,15.417a8.443,8.443,0,0,1-.99.47,4.645,4.645,0,0,1-.61.191c-.039.011-.077.017-.116.026a3.751,3.751,0,0,1-1.619-.022,5.243,5.243,0,0,1-1.162-.491c-16.344-9.326-32.747-18.546-49.124-27.817-.59-.331-1.119-.769-2.013-1.385,1.068-.722,1.854-1.345,2.714-1.841q24.15-13.572,48.3-27.143a5.949,5.949,0,0,1,2.265-.824c.014,0,.028,0,.042,0A4.263,4.263,0,0,1,621.984-92.229ZM521.546,39.765c13.015,7.721,26.021,15.456,39.091,23.091.361.228.7.447,1.026.653a5.222,5.222,0,0,1,2.653,4.984c.056,18.133.276,36.272.433,54.407.007,1.088-.077,2.183-.148,3.649-1.2-.615-2.162-1.076-3.04-1.6-15.6-9.245-31.173-18.535-46.828-27.687A5.3,5.3,0,0,1,511.7,92c-.048-18.141-.271-36.274-.428-54.4-.012-1,.06-2,.125-3.288C512.741,34.879,516.547,36.945,521.546,39.765Zm-10.133-11.17q.3-28.044.614-56.092c.012-1.655.341-2.848,1.918-3.774Q538.908-45.9,563.818-60.644a7.485,7.485,0,0,1,1.127-.446c.072,1.2.168,2.091.154,2.963-.207,18.463-.444,36.929-.611,55.386a4.442,4.442,0,0,1-1.458,3.8c-.13.1-.256.2-.405.3-.112.076-.215.154-.341.228-16.36,9.544-32.652,19.2-48.966,28.823-.307.179-.665.351-1.075.545-.167.073-.322.14-.528.233A19.7,19.7,0,0,1,511.413,28.595Zm52.869,33.6c-.048-.016-.1-.043-.149-.06a5.828,5.828,0,0,1-.644-.314c-16.348-9.353-32.766-18.58-49.155-27.853-.6-.341-1.15-.776-2.046-1.375a21.889,21.889,0,0,1,2.3-1.728c16.1-9.068,32.239-18.09,48.319-27.211a6.133,6.133,0,0,1,2.659-.885,5.13,5.13,0,0,1,2.483.745c16.142,9.232,32.36,18.338,48.539,27.5.669.375,1.3.855,2.5,1.657-1.086.7-1.874,1.261-2.687,1.733-.232.132-.46.261-.688.386Q592,48.123,568.3,61.457a11.918,11.918,0,0,1-1.145.583,4.034,4.034,0,0,1-2.377.311A4.37,4.37,0,0,1,564.282,62.2Zm4.405-122.4q24.337,14.385,48.628,28.8c1.3.763,2.163,1.508,2.172,3.228.1,19.433.283,38.852.437,58.281a4.591,4.591,0,0,1-.258,1.005c-8.928-4.851-17.433-10.2-26.086-15.273C584.761,10.664,575.978,5.4,567.13.154c-.185-20.377-.371-40.558-.554-61.154A11.775,11.775,0,0,1,568.687-60.2Zm-2.071-7c.2-18.46.442-36.925.6-55.391a4.3,4.3,0,0,1,2.288-4.277c16.246-9.493,32.438-19.1,48.645-28.66.524-.305,1.114-.563,1.864-.928a20.331,20.331,0,0,1,.282,2.689c-.193,18.585-.444,37.166-.6,55.734-.014,1.947-.444,3.24-2.268,4.308-16.326,9.534-32.6,19.165-48.9,28.759-.472.255-1.006.482-1.786.833C566.682-65.446,566.6-66.331,566.616-67.2Zm.208,135.7a5.39,5.39,0,0,1,3.044-5.294c15.547-9.053,31.021-18.224,46.517-27.355q1.52-.872,3.127-1.8a11.047,11.047,0,0,1,.436,2.313q-.285,28.412-.62,56.836c0,.249-.032.47-.055.7a5.125,5.125,0,0,1-2.435,3.184q-24.645,14.471-49.233,29.02a7.163,7.163,0,0,1-1.146.432c-.033-.137-.065-.266-.1-.4-.05-1.261-.114-2.268-.1-3.257C566.456,104.755,566.717,86.636,566.824,68.5Zm43.285-233.529q-20.174-11.941-40.348-23.88l-.591-.385a3.379,3.379,0,0,1-1.733-3.1c-.113-19.31-.3-38.618-.461-57.928a6.952,6.952,0,0,1,.126-1.027c1.29.514,4.832,2.4,9.493,5,14.121,8.368,28.064,16.631,42.1,24.954.464.309.878.59,1.22.831.189,20.232.374,40.43.569,60.958A107.1,107.1,0,0,1,610.109-165.026Zm-42.8-22.362a6.761,6.761,0,0,1,1.295.576c16.034,9.181,32.151,18.228,48.234,27.332.756.421,1.478.95,2.724,1.782-1.014.685-1.746,1.23-2.485,1.675l-.9.52c-15.462,8.67-30.946,17.308-46.362,26.06-.253.142-.505.282-.758.425a9.066,9.066,0,0,1-1.511.7c-.025.009-.051.015-.076.023a5.13,5.13,0,0,1-1.1.21,5.581,5.581,0,0,1-3.05-.844c-15.824-9.076-31.742-18-47.618-26.977-.9-.51-1.745-1.109-2.943-1.88.971-.7,1.638-1.3,2.4-1.73,16.109-9.076,32.237-18.1,48.314-27.228a6.122,6.122,0,0,1,2.415-.832A4.967,4.967,0,0,1,567.312-187.388Zm-2.46-5.871a5.649,5.649,0,0,1-.549,2.745,4.908,4.908,0,0,1-1.762,1.663c-16.223,9.468-32.387,19.044-48.569,28.581-.449.24-.951.492-1.533.781l-.35.16a18.755,18.755,0,0,1-.32-2.677c.195-18.594.468-37.194.579-55.789a4.853,4.853,0,0,1,2.823-4.719c16.062-9.379,32.065-18.87,48.091-28.3a21.787,21.787,0,0,1,2.042-.966c.076,1.322.165,2.213.157,3.087C565.259-230.216,565.024-211.735,564.852-193.259Zm-31.3,49.359,21.7,12.859c4.538,2.767,8,4.956,9.337,5.957.176,19.851.357,39.844.544,60.576a107.573,107.573,0,0,1-10.6-5.537c-13.566-8.034-26.874-15.917-40.261-23.847-.8-.526-1.475-.978-1.987-1.342q-.277-30.346-.558-60.743C513.917-155.1,523.268-149.865,533.556-143.9ZM511.748-92.415a4.167,4.167,0,0,1,.86.351Q537.6-77.84,562.637-63.713a13.986,13.986,0,0,1,1.351,1.036,16.245,16.245,0,0,1-1.81,1.374l-.24.139-5.718,3.222q-16.207,9.1-32.4,18.254-5.166,2.916-10.34,5.825a6.425,6.425,0,0,1-2.641.847,6.217,6.217,0,0,1-3.182-.968c-15.7-9.032-31.5-17.88-47.259-26.8-.9-.506-1.755-1.1-2.979-1.882a25.2,25.2,0,0,1,2.084-1.512q24.613-13.827,49.225-27.665a6,6,0,0,1,1.6-.636A4.1,4.1,0,0,1,511.748-92.415ZM401.324,33.98c.345.169.657.32.949.46,17.175,10.063,33.8,20.012,50.592,29.938a3.678,3.678,0,0,1,1.19,1.836c.178,19.524.353,39.007.532,59.109-.036.358-.075.746-.116,1.218-1.479-.824-2.439-1.34-3.341-1.879-15.4-9.126-30.763-18.305-46.215-27.325-2.278-1.331-3.272-2.706-3.278-5.479-.01-17.9-.249-35.794-.4-53.693C401.222,36.979,401.279,35.773,401.324,33.98Zm-.086-6.182c.2-18.356.432-36.7.606-55.041.02-1.88.3-3.25,2.177-4.344,16.452-9.6,32.844-19.327,49.266-29.009a13.373,13.373,0,0,1,1.234-.588,10.236,10.236,0,0,1,.4,2.171c-.191,18.926-.437,37.859-.6,56.787a4.088,4.088,0,0,1-.513,2.1c-.06.1-.143.189-.212.283a4.717,4.717,0,0,1-1.454,1.273q-24.5,14.355-48.967,28.81a15.818,15.818,0,0,1-1.785.808C401.321,29.769,401.224,28.777,401.238,27.8ZM452.763,61.52c-15.814-9.066-31.715-17.981-47.582-26.958-.894-.509-1.742-1.1-2.967-1.882,1.085-.739,1.872-1.362,2.726-1.852q24.151-13.576,48.3-27.149a6.03,6.03,0,0,1,2.262-.825,4.266,4.266,0,0,1,1.077.135,5.227,5.227,0,0,1,1.158.48c16.341,9.339,32.741,18.559,49.119,27.829.554.309,1.075.712,2.055,1.4-.948.661-1.626,1.2-2.359,1.613-.235.133-.461.26-.69.386Q484.223,46.857,462.6,59.045c-1.49.841-2.985,1.676-4.475,2.518a7.877,7.877,0,0,1-1.331.6c-.061.02-.122.036-.182.054a4.612,4.612,0,0,1-.883.143A5.517,5.517,0,0,1,452.763,61.52Zm3.888,6.41a4.864,4.864,0,0,1,2.817-4.726c16.063-9.377,32.065-18.861,48.091-28.3a20.909,20.909,0,0,1,1.964-.928c.039.214.078.394.118.59.063.986.124,1.73.118,2.458-.206,18.476-.447,36.955-.587,55.434a4.564,4.564,0,0,1-2.515,4.506q-24.089,14.083-48.085,28.32c-.592.343-1.236.645-2.117,1.083l-.134.061c-.108-1.183-.252-2.131-.246-3.063C456.279,104.883,456.539,86.4,456.651,67.93Zm53.034-36.586c-1.363-.752-2.335-1.274-3.263-1.829-15.485-9.162-30.947-18.394-46.491-27.479A5.323,5.323,0,0,1,456.846-3.2c-.043-18.129-.268-36.238-.421-54.369-.009-1.085.076-2.185.138-3.65a26.482,26.482,0,0,1,2.422,1.171q23.993,14.2,47.988,28.412c1.51.889,2.467,1.759,2.474,3.777.09,18.954.3,37.892.467,56.833C509.918,29.6,509.8,30.247,509.685,31.344ZM456.568-67.33c.206-18.245.457-36.482.587-54.731.02-2.339.6-3.829,2.786-5.091,15.981-9.288,31.877-18.721,47.8-28.105.611-.361,1.3-.676,2.146-1.1a12.73,12.73,0,0,1,.384,2.292c-.2,18.825-.439,37.659-.611,56.5a5.113,5.113,0,0,1-.427,2.18c-.061.121-.134.236-.207.351a3.572,3.572,0,0,1-.333.444c-.094.11-.189.22-.3.326a5.231,5.231,0,0,1-.924.686Q497.3-87.622,487.165-81.613q-5.771,3.4-11.54,6.8-8.252,4.874-16.51,9.735c-.6.332-1.272.656-2.087,1.06l-.315.141C456.646-65.339,456.564-66.34,456.568-67.33Zm53.551-91.994c-9.075-4.909-17.559-10.266-26.2-15.323-8.826-5.175-17.606-10.431-26.466-15.7-.189-20.341-.369-40.539-.56-61.214a18.579,18.579,0,0,1,2.4,1.034q24.164,14.29,48.331,28.6a3.707,3.707,0,0,1,2.175,3.593c.113,19.069.316,38.147.485,57.22C510.286-160.688,510.21-160.235,510.119-159.324Zm-53.01-28.206a6.866,6.866,0,0,1,1.316.583c16.037,9.181,32.15,18.232,48.232,27.326.73.412,1.427.923,2.553,1.676a19.533,19.533,0,0,1-1.552,1.273c-1.185.685-2.292,1.324-3.364,1.939q-5.193,2.925-10.389,5.848-12.557,7.042-25.091,14.122-5.053,2.846-10.108,5.689a6.939,6.939,0,0,1-2.589.831,6.29,6.29,0,0,1-3.311-.977c-15.6-9-31.308-17.791-46.98-26.666-.949-.537-1.884-1.136-3.077-1.871l-.148-.123a18.825,18.825,0,0,1,2.061-1.615c16.205-9.128,32.447-18.208,48.62-27.39a6.639,6.639,0,0,1,1.953-.743A5.1,5.1,0,0,1,457.109-187.53Zm-2.3-5.315a3.814,3.814,0,0,1-1.938,3.764q-24.98,14.613-49.883,29.354c-.027.017-.059.029-.088.045-.239.105-.525.194-1.018.368-.069-1.222-.157-2.111-.146-2.981.2-18.465.445-36.919.6-55.384.02-1.93.428-3.235,2.252-4.3q24.528-14.339,48.959-28.835c.421-.25.907-.459,1.515-.74a12.28,12.28,0,0,1,.358,2.262C455.228-230.475,454.989-211.658,454.806-192.845ZM401.8-156.7c17.783,10.532,35.153,20.828,52.736,31.249.185,20.333.374,40.638.566,61.344a11.045,11.045,0,0,1-2.043-.754q-24.476-14.479-48.94-28.987a3.461,3.461,0,0,1-2.068-3.291c-.107-19.31-.3-38.625-.464-57.935A15.575,15.575,0,0,1,401.8-156.7Zm.075,64.512a6.833,6.833,0,0,1,1.348.594c16.039,9.182,32.15,18.233,48.232,27.337.739.419,1.449.933,2.671,1.745-.887.649-1.525,1.185-2.212,1.591-.385.222-.754.433-1.114.636q-20.144,11.3-40.264,22.625-3.5,1.968-6.995,3.931a6.639,6.639,0,0,1-2.608.88,5.612,5.612,0,0,1-2.99-.855c-15.825-9.076-31.741-18-47.62-26.982-.9-.51-1.754-1.1-2.953-1.865a27.4,27.4,0,0,1,2.4-1.739c16.114-9.071,32.24-18.1,48.309-27.228a5.973,5.973,0,0,1,2.553-.862A4.864,4.864,0,0,1,401.874-92.19ZM292.8,34.7q24.614,14.554,49.209,29.132a3.482,3.482,0,0,1,2.039,3.321q.18,28.937.459,57.885a10.421,10.421,0,0,1-.223,1.42c-1.083-.543-1.954-.953-2.75-1.425-15.792-9.343-31.567-18.742-47.395-28.047a4.491,4.491,0,0,1-2.644-4.4c-.077-18.6-.29-37.18-.451-55.765-.01-.8.058-1.6.106-2.655A6.337,6.337,0,0,1,292.8,34.7Zm-1.614-7c.2-18.129.454-36.245.575-54.372.012-2.5.7-4.035,2.965-5.354,15.78-9.165,31.47-18.479,47.2-27.735.793-.466,1.653-.858,2.787-1.425.072,1.438.173,2.526.162,3.6-.2,18.129-.457,36.251-.572,54.379a5.371,5.371,0,0,1-2.985,5.323c-15.664,9.131-31.251,18.394-46.862,27.627-.888.52-1.8,1.035-3.091,1.776C291.281,29.873,291.183,28.775,291.186,27.694ZM342.423,61.31c-15.819-9.061-31.717-17.986-47.579-26.969-.88-.5-1.7-1.127-2.984-2,1.389-.8,2.365-1.368,3.347-1.924,15.9-8.925,31.823-17.8,47.675-26.822a5.678,5.678,0,0,1,2.557-.825A5.561,5.561,0,0,1,348,3.6c15.927,9.119,31.92,18.1,47.894,27.127.879.505,1.688,1.123,2.822,1.885-1.18.758-2.011,1.358-2.9,1.86-15.883,8.94-31.8,17.836-47.646,26.858a6.151,6.151,0,0,1-2.872.911A6.282,6.282,0,0,1,342.423,61.31Zm4.2,6.434a4.054,4.054,0,0,1,2.218-3.97c16.35-9.565,32.637-19.221,48.956-28.837.428-.249.927-.479,1.605-.808a19.116,19.116,0,0,1,.307,2.6c-.193,18.7-.435,37.39-.609,56.094a6.536,6.536,0,0,1-.208,1.615,4.321,4.321,0,0,1-1.884,2.283q-25.023,14.656-49.993,29.4a3.753,3.753,0,0,1-.842.263c-.067-1.021-.159-1.795-.15-2.553C346.233,105.144,346.468,86.445,346.628,67.744Zm42.021-42.851c-14.1-8.364-27.861-16.524-41.737-24.744q-.285-30.4-.563-60.884c2.916,1.143,18.656,10.1,32.332,18.189v.1l12.083,7.158c4.031,2.47,7.111,4.431,8.445,5.418.173,19.828.356,39.814.542,60.568C398.752,30.425,394.452,28.142,388.649,24.893ZM346.376-66.421c.2-18.832.454-37.661.59-56.49.017-2.264,1.054-3.33,2.817-4.362q21.507-12.54,42.96-25.191c2.208-1.3,4.451-2.572,7.2-4.152.016.194.035.349.053.531.044,1.342.086,2.339.074,3.307-.2,18.24-.447,36.479-.575,54.726a4.6,4.6,0,0,1-2.506,4.524c-16.065,9.374-32.067,18.86-48.092,28.305-.61.366-1.29.678-2.129,1.09A12.628,12.628,0,0,1,346.376-66.421Zm53.638-92.723c-1.361-.758-2.331-1.277-3.253-1.829-15.495-9.172-30.952-18.395-46.495-27.48a5.327,5.327,0,0,1-3.1-5.234c-.04-18.12-.263-36.24-.415-54.361-.009-1.1.068-2.205.124-3.666a25.911,25.911,0,0,1,2.419,1.156q24,14.2,47.992,28.416c1.495.887,2.474,1.745,2.489,3.774.085,18.943.3,37.883.459,56.834A23.527,23.527,0,0,1,400.014-159.144Zm-52.04-27.922q24.678,14.05,49.428,27.987c.495.28.935.652,1.865,1.311-1.152.75-1.9,1.3-2.7,1.742q-24.148,13.573-48.282,27.166a5.74,5.74,0,0,1-2.407.82,4.913,4.913,0,0,1-2.4-.721C327.24-138.03,310.933-147.2,294.658-156.4c-.594-.336-1.148-.758-2.054-1.358a23.508,23.508,0,0,1,2.267-1.686q24.456-13.755,48.9-27.5a5.23,5.23,0,0,1,2.122-.731A4.22,4.22,0,0,1,347.974-187.066Zm-3.329-6.268a4.586,4.586,0,0,1-2.551,4.492c-16.153,9.438-32.25,18.965-48.368,28.448-.522.307-1.1.573-1.823.917a12.728,12.728,0,0,1-.367-2.256q.3-28.231.619-56.446a3.831,3.831,0,0,1,1.95-3.762q24.978-14.608,49.882-29.356a7.106,7.106,0,0,1,1.091-.423c.075,1.233.168,2.121.159,3C345.031-230.26,344.782-211.793,344.645-193.334ZM294.509-154.96c15.8,9.349,31.587,18.747,47.415,28.067a4.233,4.233,0,0,1,2.5,4.112c.092,18.73.3,37.449.466,56.166.01.7-.053,1.4-.077,2.015a3.834,3.834,0,0,1-.406.264c-.017.007-.04.015-.06.024a19.107,19.107,0,0,1-1.8-.87Q317.345-80.11,292.066-95.108c-.183-20.333-.374-40.5-.557-61.39C292.83-155.838,293.708-155.44,294.509-154.96ZM293.3-91.567q23.9,13.658,47.925,27.139c.8.456,1.551,1.012,2.953,1.916-1.564.9-2.554,1.491-3.552,2.049Q316.912-47.14,293.218-33.8a6.229,6.229,0,0,1-2.845.981,4.568,4.568,0,0,1-1.975-.645c-16.346-9.346-32.756-18.58-49.143-27.852-.6-.335-1.15-.77-2.027-1.367a24.092,24.092,0,0,1,2.316-1.737c16.1-9.061,32.243-18.073,48.3-27.218a5.671,5.671,0,0,1,2.727-.837A6.229,6.229,0,0,1,293.3-91.567ZM189.028,99.937c-3.471-2.142-6.158-3.863-7.507-4.844-.179-20.076-.364-40.306-.552-61.375,18.04,10.7,35.321,20.951,52.841,31.337q.285,30.4.566,60.858c-2.327-.89-12.808-6.757-23.913-13.208v-.071Q199.71,106.268,189.028,99.937Zm-8.022-72.306c.2-18.129.474-36.253.558-54.378a5.62,5.62,0,0,1,3.177-5.541c1.413-.824,2.821-1.66,4.234-2.485,14.469-8.435,28.879-16.973,43.309-25.47a21.813,21.813,0,0,1,2.17-1.025A27.111,27.111,0,0,1,234.7-58.5c-.206,18.6-.442,37.195-.6,55.787-.021,1.947-.48,3.228-2.288,4.288-16.172,9.436-32.276,18.982-48.4,28.487-.608.364-1.288.662-2.309,1.151C181.049,29.651,180.992,28.634,181.006,27.631ZM232.56,61.52c-15.824-9.083-31.741-18-47.618-26.977-.9-.514-1.754-1.108-2.955-1.877.973-.7,1.636-1.305,2.393-1.737,16.1-9.07,32.24-18.092,48.318-27.223a5.976,5.976,0,0,1,2.567-.867,5.274,5.274,0,0,1,2.568.787c16.033,9.177,32.149,18.233,48.234,27.334.8.447,1.534,1,2.933,1.911-1.592.916-2.581,1.494-3.581,2.066-15.708,8.81-31.441,17.583-47.108,26.479a6.711,6.711,0,0,1-2.872.975A5.819,5.819,0,0,1,232.56,61.52Zm3.892,6.369c.019-1.926.432-3.23,2.267-4.3,16.251-9.5,32.439-19.1,48.649-28.656.523-.313,1.128-.585,1.935-.976.1,1.147.24,2.1.231,3.047-.2,18.46-.445,36.924-.607,55.388-.016,1.928-.4,3.25-2.232,4.313-16.363,9.549-32.669,19.2-48.983,28.8-.439.256-.93.463-1.73.837-.064-1.314-.143-2.2-.131-3.074C236.051,104.816,236.293,86.354,236.452,67.889Zm53.064-36.68c-.933-.441-1.7-.769-2.379-1.167Q263.125,15.821,239.1,1.614a4.271,4.271,0,0,1-2.435-4.159c-.094-18.718-.307-37.441-.464-56.167-.012-.741.09-1.508.17-2.558.819.374,1.486.651,2.066.988q24.154,14.316,48.329,28.615a4.252,4.252,0,0,1,2.446,4.153c.1,18.723.307,37.437.474,56.159C289.7,29.394,289.6,30.157,289.516,31.209ZM236.358-67.236c.2-18.348.444-36.692.588-55.04.016-2.073.473-3.436,2.41-4.572,16.049-9.365,32.029-18.855,48.041-28.3.69-.4,1.475-.752,2.482-1.246.063,1.378.157,2.474.144,3.558-.2,18.107-.463,36.216-.566,54.332a5.344,5.344,0,0,1-3.028,5.282C270.777-84.1,255.2-74.842,239.594-65.646c-.892.53-1.813,1.053-3.035,1.76C236.462-65.3,236.348-66.275,236.358-67.236Zm.865-123.116c-.188-20.5-.372-40.727-.558-60.818a3.863,3.863,0,0,1,.527-.29c.017-.007.036,0,.055-.009.607.288,1.225.56,1.8.889q25.185,14.928,50.468,29.922c.185,20.358.365,40.587.558,61.623C272.124-169.667,254.785-179.94,237.223-190.352Zm.593,3.153c16.437,9.4,32.947,18.675,49.42,28,.493.28.932.65,1.716,1.206a27.037,27.037,0,0,1-2.3,1.672q-24.3,13.682-48.585,27.361a6.2,6.2,0,0,1-2.275.846,4.166,4.166,0,0,1-2.236-.608c-16.442-9.4-32.942-18.677-49.421-28-.454-.266-.888-.622-1.784-1.266.769-.563,1.325-1.032,1.919-1.378.194-.112.386-.223.57-.327q4.217-2.373,8.437-4.744,20.026-11.23,40.037-22.485a6.338,6.338,0,0,1,2.275-.867A4.09,4.09,0,0,1,237.816-187.2Zm-3.223-6.028a4.579,4.579,0,0,1-2.462,4.545c-16.061,9.391-32.059,18.885-48.078,28.337-.611.368-1.3.679-2.114,1.081a7.417,7.417,0,0,1-.443-1.889c.189-19.073.45-38.136.592-57.205a4.527,4.527,0,0,1,.214-1.417v0a4.941,4.941,0,0,1,2.559-2.591q19.212-11.239,38.393-22.521c3.74-2.2,7.522-4.346,11.753-6.776.087,1.262.193,2.145.184,3C234.989-230.187,234.742-211.709,234.593-193.227Zm-51.2,37.593q24.464,14.462,48.9,28.951a3.5,3.5,0,0,1,2.076,3.3c.111,19.3.3,38.6.456,57.894a11.4,11.4,0,0,1-.21,1.442c-1.074-.537-1.948-.932-2.731-1.4-15.794-9.353-31.565-18.75-47.4-28.036a4.52,4.52,0,0,1-2.675-4.389c-.08-18.59-.292-37.18-.454-55.771-.007-.787.048-1.588.1-2.7A9.425,9.425,0,0,1,183.394-155.634Zm-.338,64.053c16.024,9.172,32.12,18.218,48.188,27.31.792.443,1.527.977,2.6,1.679-1.043.7-1.734,1.269-2.507,1.7q-24.3,13.668-48.6,27.341a5.2,5.2,0,0,1-2.353.763,4.631,4.631,0,0,1-2.147-.663C162-42.721,145.7-51.888,129.433-61.091c-.653-.365-1.267-.832-2.292-1.534.941-.641,1.672-1.194,2.433-1.654.338-.194.664-.38.984-.56q22.281-12.51,44.549-25.043c.958-.54,1.918-1.076,2.877-1.617a6.054,6.054,0,0,1,2.5-.853A5.168,5.168,0,0,1,183.056-91.581ZM91.213,45.624q10.32,6.123,20.67,12.2c4.872,2.94,8.826,5.39,10.89,6.782a4.528,4.528,0,0,1,1.006,1.743c.185,19.726.367,39.626.551,60.351-.445-.232-.811-.415-1.195-.609-17.218-10.206-33.8-20.037-50.419-29.89a4.571,4.571,0,0,1-1.383-2.383c-.177-19.679-.36-39.239-.539-58.874.012-.216.022-.4.034-.635C73,35.228,81.558,40.032,91.213,45.624ZM70.966,28.559q.3-28.034.611-56.092c.012-1.653.324-2.851,1.9-3.784q24.975-14.624,49.869-29.366c.025-.015.054-.026.08-.04.242-.114.536-.212,1.066-.409.077,1.191.165,2.074.16,2.943-.205,18.575-.449,37.151-.6,55.736a4.059,4.059,0,0,1-2.209,3.974q-24.669,14.443-49.267,29a12.415,12.415,0,0,1-1.305.616A18.816,18.816,0,0,1,70.966,28.559Zm52.15,33.249c-16.458-9.4-32.968-18.69-49.464-28.021-.5-.292-.969-.643-1.807-1.213a20.987,20.987,0,0,1,2.218-1.713Q98.375,17.162,122.7,3.493c.275-.156.534-.266.8-.386a4.379,4.379,0,0,1,2.834-.225,4.855,4.855,0,0,1,.892.367q24.525,13.986,49.152,27.839c.674.38,1.256.931,2.155,1.583-1.169.754-1.995,1.358-2.875,1.85q-24.018,13.512-48.022,27.018a5.965,5.965,0,0,1-2.408.853A4.148,4.148,0,0,1,123.116,61.808Zm3.267,5.61a4.505,4.505,0,0,1,.122-.834,4.96,4.96,0,0,1,2.023-2.819c.2-.128.377-.261.593-.387q19.2-11.23,38.386-22.518c3.727-2.184,7.5-4.333,11.793-6.8.026.109.051.218.079.331.053,1.317.124,2.327.112,3.321-.205,18.116-.468,36.245-.575,54.368a5.384,5.384,0,0,1-3.039,5.294C160.206,106.5,144.631,115.766,129.008,125c-.769.453-1.588.916-2.568,1.477-.054.018-.13.046-.192.068a11.158,11.158,0,0,1-.457-2.274C125.985,105.316,126.244,86.363,126.383,67.418Zm52.956-36.172c-.867-.469-1.713-.963-2.572-1.441C159.819,19.76,143.273,9.949,126.68.11c-.183-20.347-.37-40.517-.556-61.189.188.065.355.118.534.176a12.181,12.181,0,0,1,1.859.824c16.117,9.524,32.208,19.1,48.336,28.591a3.711,3.711,0,0,1,2.175,3.592c.121,19.077.323,38.148.485,57.225C179.52,29.752,179.444,30.2,179.339,31.246ZM126.173-67.719c.2-18.107.466-36.219.568-54.33a5.357,5.357,0,0,1,3.015-5.294c15.56-9.06,31.021-18.254,46.524-27.407.521-.308,1.046-.611,1.615-.938.494-.262,1.031-.506,1.741-.857.1,1.323.219,2.273.206,3.2-.191,18.349-.44,36.69-.592,55.037-.017,2.051-.41,3.46-2.363,4.607-16.258,9.474-32.457,19.066-48.681,28.615a19.98,19.98,0,0,1-1.953.923C126.212-65.7,126.159-66.71,126.173-67.719ZM161.055-170.05q-12.823-7.595-25.652-15.182c-3.443-2.114-6.2-3.861-7.8-4.973a2.982,2.982,0,0,1-.557-1.035c-.183-19.8-.371-39.78-.554-59.8.016-.1.027-.179.048-.311,1.946.776,8.962,4.644,17.33,9.437q14.9,8.83,29.709,17.612c2.631,1.638,4.692,2.969,5.9,3.825q.276,30.205.559,60.795C178.037-160.45,170.182-164.8,161.055-170.05Zm-32.5-16.581c15.73,9,31.538,17.87,47.313,26.8.986.56,1.926,1.2,3.272,2.041-1.217.817-2.018,1.44-2.89,1.933q-24.018,13.494-48.039,27a6.763,6.763,0,0,1-1.962.754,4.819,4.819,0,0,1-1.674-.083,5.751,5.751,0,0,1-1.184-.5c-16.247-9.274-32.556-18.448-48.846-27.67a26.747,26.747,0,0,1-2.19-1.549c.844-.621,1.481-1.157,2.165-1.557l.585-.331c15.9-8.952,31.839-17.85,47.694-26.881a7.881,7.881,0,0,1,1.511-.672c.1-.031.2-.042.3-.067a4.814,4.814,0,0,1,.9-.134A6.1,6.1,0,0,1,128.554-186.631Zm-4.139-6.689a4.572,4.572,0,0,1-2.508,4.519c-16.063,9.38-32.068,18.868-48.09,28.313-.614.358-1.3.675-2.173,1.112a19.583,19.583,0,0,1-.324-2.683c.2-18.6.443-37.192.6-55.786a4.79,4.79,0,0,1,1.233-3.563c.038-.037.061-.081.1-.117a6.126,6.126,0,0,1,.931-.694c.11-.073.2-.15.313-.221,16.142-9.426,32.224-18.957,48.328-28.449.434-.244.935-.46,1.623-.766.121-.049.266-.11.405-.168.076,1.3.162,2.193.151,3.074C124.809-230.27,124.557-211.793,124.415-193.32ZM82.788-149.947l39.089,23.165q1.458.945,2.255,1.52.273,30.326.562,60.683c-1.977-.754-9.838-5.1-18.963-10.347L79.5-90.465c-3.552-2.191-6.3-3.952-7.661-4.941-.179-19.843-.362-39.859-.55-60.649C72.305-155.747,76.788-153.332,82.788-149.947ZM72.721-91.8c16.132,9.225,32.33,18.327,48.5,27.474.7.4,1.353.87,2.361,1.515a19.472,19.472,0,0,1-1.994,1.52q-24.6,13.86-49.2,27.721a6.464,6.464,0,0,1-.891.406,4.971,4.971,0,0,1-2.78-.114,5.652,5.652,0,0,1-.529-.232Q43.518-47.557,18.766-61.495c-.459-.255-.891-.611-1.793-1.261.762-.566,1.307-1.025,1.89-1.37.312-.179.611-.351.9-.517q24.1-13.538,48.2-27.092a5.784,5.784,0,0,1,2.245-.764A4.737,4.737,0,0,1,72.721-91.8ZM-36.3,35.464Q-12.584,49.49,11.118,63.533c1.657.971,2.54,1.981,2.549,4.1.08,18.718.3,37.433.452,56.149.009.741-.105,1.5-.212,2.741C-3.35,116.3-20.213,106.3-37.171,96.254a4.78,4.78,0,0,1-1.551-2.526c-.174-19.674-.353-39.249-.533-59.3.005-.152.009-.287.013-.448C-37.962,34.608-37.09,34.993-36.3,35.464Zm-2.91-8.268c.2-17.989.458-35.977.563-53.975A5.386,5.386,0,0,1-35.667-32.1q16.6-9.661,33.118-19.485,7.2-4.254,14.408-8.505l1.036-.6c.344-.184.729-.347,1.3-.609a22.755,22.755,0,0,1,.268,2.772c-.2,18.575-.442,37.151-.6,55.741a4.3,4.3,0,0,1-2.329,4.262c-16.251,9.493-32.45,19.083-48.67,28.625-.524.313-1.116.554-2.009.966C-39.172,29.44-39.226,28.321-39.207,27.2ZM13.967,62.252a5.605,5.605,0,0,1-1.091-.474Q-11.475,47.891-35.94,34.14c-.642-.368-1.258-.828-2.306-1.533.986-.679,1.74-1.256,2.528-1.72.3-.17.585-.334.872-.495Q-11.158,17.1,12.533,3.761a6.261,6.261,0,0,1,2.551-.889,5.1,5.1,0,0,1,2.57.759c16.016,9.177,32.12,18.213,48.185,27.3.788.449,1.527.988,2.607,1.693-1.014.7-1.706,1.262-2.474,1.694Q41.672,48,17.383,61.66a6.2,6.2,0,0,1-1.781.686A4.648,4.648,0,0,1,13.967,62.252Zm2.246,5.99a5.126,5.126,0,0,1,1.861-4.452c.2-.153.4-.308.642-.455.1-.061.18-.124.283-.184C35.078,53.8,51.071,44.3,67.1,34.855a10.1,10.1,0,0,1,.949-.475c.273-.122.554-.245.91-.405a13.383,13.383,0,0,1,.362,2.272c-.2,18.839-.438,37.668-.605,56.5a4.055,4.055,0,0,1-2.193,3.98q-24.537,14.363-49.005,28.856c-.432.248-.925.457-1.753.838-.065-1.464-.152-2.468-.142-3.45C15.822,104.728,16.073,86.484,16.213,68.242ZM69.256,31.307c-1.353-.75-2.317-1.266-3.241-1.818-15.495-9.176-30.949-18.4-46.5-27.472-2.2-1.29-3.1-2.658-3.11-5.229-.06-18.128-.273-36.233-.425-54.364-.011-1.1.064-2.207.115-3.678a24.748,24.748,0,0,1,2.4,1.131q24,14.208,48,28.408A4.271,4.271,0,0,1,69-27.589c.082,18.707.295,37.42.452,56.128C69.466,29.285,69.36,30.05,69.256,31.307ZM16.114-66.762c.2-18.6.436-37.2.614-55.787a6.23,6.23,0,0,1,.388-2.331,4.47,4.47,0,0,1,.28-.494,3.471,3.471,0,0,1,.208-.3,4.684,4.684,0,0,1,.479-.528,4.952,4.952,0,0,1,.877-.669c16.261-9.488,32.461-19.087,48.683-28.63.373-.2.794-.418,1.251-.643l.757-.325c.022.109.044.2.066.313.046,1.308.1,2.26.095,3.193-.206,18.237-.454,36.477-.6,54.724-.016,2.208-.5,3.641-2.561,4.853-15.966,9.3-31.862,18.76-47.782,28.147-.693.411-1.468.763-2.44,1.246A22.305,22.305,0,0,1,16.114-66.762Zm50.862-94c-17-10.064-33.447-19.816-49.98-29.617-.18-20.224-.362-40.353-.551-61.27.808.337,1.449.577,2.02.838C35.479-240.734,51.908-231,68.4-221.226a3.237,3.237,0,0,1,.9,1.342c.179,20.079.361,40.025.554,60.728C68.881-159.681,67.937-160.229,66.976-160.764ZM18.5-186.723c15.72,9.03,31.534,17.9,47.306,26.82.916.517,1.782,1.092,2.976,1.839a15.372,15.372,0,0,1-1.949,1.585q-24.615,13.874-49.248,27.718c-.247.139-.482.237-.719.343a5.145,5.145,0,0,1-3.184-.144q-25.143-14.32-50.344-28.563a10.017,10.017,0,0,1-1.125-.9c.493-.4.909-.744,1.3-1.042a10.371,10.371,0,0,1,.911-.6c15.188-8.545,30.4-17.046,45.556-25.669.822-.466,1.648-.928,2.471-1.4a8.693,8.693,0,0,1,1.553-.7c.069-.022.138-.039.206-.059a5.124,5.124,0,0,1,.945-.154A6.068,6.068,0,0,1,18.5-186.723Zm-4.141-6.137a3.8,3.8,0,0,1-1.967,3.74q-24.97,14.623-49.884,29.364a7.737,7.737,0,0,1-1.091.407c-.067-1.248-.149-2.143-.133-3.023.2-18.463.445-36.927.6-55.389.024-1.949.471-3.223,2.289-4.286,16.248-9.494,32.441-19.1,48.654-28.654.516-.3,1.1-.565,1.806-.9a13.539,13.539,0,0,1,.345,2.291C14.774-230.5,14.532-211.68,14.358-192.86Zm-53.012,36.113C-20.877-146.21-3.5-135.916,14.081-125.5c.187,20.323.378,40.634.568,61.335a10.772,10.772,0,0,1-2.043-.754Q-11.869-79.4-36.332-93.9a3.472,3.472,0,0,1-2.07-3.295c-.1-19.313-.295-38.623-.452-57.933A13.842,13.842,0,0,1-38.654-156.747Zm1.765,65.3C-21.051-82.38-5.138-73.452,10.736-64.467c.889.5,1.733,1.1,2.926,1.875a29.114,29.114,0,0,1-2.433,1.749Q-13.1-47.168-37.428-33.506a8.563,8.563,0,0,1-1.026.5,4.771,4.771,0,0,1-2.736-.078c-.146-.067-.28-.091-.434-.178Q-51.56-38.93-61.531-44.538v.081q-14.352-8.125-28.713-16.231c-.9-.51-1.754-1.1-2.953-1.865a27.551,27.551,0,0,1,2.4-1.739q14.637-8.24,29.267-16.471v.007q9.453-5.321,18.893-10.663a6.305,6.305,0,0,1,2.871-.937A6.073,6.073,0,0,1-36.889-91.446ZM-147.411,34.7Q-122.8,49.25-98.2,63.828a3.483,3.483,0,0,1,2.04,3.321q.18,28.937.458,57.885a13.149,13.149,0,0,1-.251,1.583c-1.261-.641-2.194-1.066-3.075-1.588-15.793-9.343-31.568-18.742-47.4-28.047a4.49,4.49,0,0,1-2.643-4.4c-.078-18.6-.291-37.18-.452-55.765-.01-.822.063-1.636.111-2.743A9.191,9.191,0,0,1-147.411,34.7Zm-1.969-7c.2-18.129.454-36.245.575-54.372.013-2.5.7-4.035,2.965-5.354,15.78-9.165,31.47-18.479,47.2-27.735.875-.515,1.813-.926,3.132-1.6.072,1.529.184,2.652.172,3.773-.2,18.129-.458,36.251-.573,54.379A5.369,5.369,0,0,1-98.9,2.111c-15.665,9.131-31.251,18.394-46.862,27.627-.969.567-1.95,1.116-3.436,1.974C-149.276,29.951-149.383,28.822-149.38,27.694ZM-98.142,61.31c-15.82-9.061-31.718-17.986-47.579-26.969-.88-.5-1.7-1.127-2.985-2,1.39-.8,2.366-1.368,3.347-1.924,15.9-8.925,31.823-17.8,47.675-26.822a4.82,4.82,0,0,1,5.476,0q15.133,8.664,30.323,17.207v.059q9.061,5.121,18.124,10.245c.587.334,1.12.762,2.229,1.527-.081.051-.137.09-.214.141-1.313.753-2.188,1.258-3.051,1.743l-17.088,9.615V44.3q-15.093,8.479-30.152,17.025A5.381,5.381,0,0,1-98.142,61.31Zm4.2,6.434a4.056,4.056,0,0,1,2.218-3.97Q-76.6,54.927-61.531,45.992v.023Q-52.869,40.9-44.2,35.786c.518-.31,1.041-.613,1.611-.939.446-.246.939-.474,1.692-.844.079,1.432.172,2.4.158,3.351-.193,18.346-.452,36.7-.6,55.038a4.559,4.559,0,0,1-2.479,4.525q-9.051,5.285-18.069,10.624v.172q-15.654,9.206-31.307,18.413a7.3,7.3,0,0,1-1.188.36c-.068-1.075-.167-1.865-.157-2.65C-94.333,105.144-94.1,86.445-93.938,67.744Zm34-47.607C-71.25,13.429-82.434,6.8-93.654.149q-.285-30.454-.565-61c1.594.31,18.022,9.641,32.334,18.1v.306L-43.37-31.481c.887.576,1.6,1.057,2.119,1.43q.274,30.312.562,60.677C-42.678,29.878-50.682,25.457-59.939,20.137ZM-94.19-66.421c.2-18.832.454-37.661.59-56.49.017-2.264,1.054-3.33,2.817-4.362q21.507-12.54,42.96-25.191c2.085-1.225,4.216-2.438,6.757-3.9l.445-.206c.1,1.189.257,2.147.245,3.078-.195,18.477-.43,36.956-.6,55.427-.017,1.9-.37,3.245-2.216,4.33q-9.365,5.466-18.692,10.987v.174Q-76.6-73.906-91.316-65.223c-.694.416-1.436.739-2.451,1.247A15.077,15.077,0,0,1-94.19-66.421Zm1.953-120.645q15.153,8.628,30.352,17.186v.111q9.188,5.2,18.376,10.4c.688.381,1.313.866,2.5,1.649l-.022.015c-1.5.865-2.4,1.392-3.308,1.912q-8.775,4.925-17.542,9.865v.168q-15.027,8.44-30.04,16.9a4.582,4.582,0,0,1-5.166.1c-16.235-9.269-32.541-18.436-48.816-27.639-.6-.336-1.149-.758-2.055-1.358a23.51,23.51,0,0,1,2.267-1.686q24.456-13.755,48.906-27.5A4.064,4.064,0,0,1-92.237-187.066Zm-3.33-6.268a4.586,4.586,0,0,1-2.551,4.492c-16.153,9.438-32.249,18.965-48.367,28.448-.6.356-1.247.633-2.146,1.071a14.949,14.949,0,0,1-.4-2.41q.3-28.231.619-56.446a3.833,3.833,0,0,1,1.95-3.762q24.978-14.608,49.882-29.356a12.575,12.575,0,0,1,1.438-.549c.075,1.3.176,2.216.166,3.126C-95.18-230.26-95.429-211.793-95.567-193.334ZM-145.7-154.96c15.8,9.349,31.586,18.747,47.415,28.067a4.232,4.232,0,0,1,2.5,4.112c.092,18.73.3,37.449.466,56.166.01.7-.053,1.4-.078,2.015a3.847,3.847,0,0,1-.4.264c-.1.038-.239.111-.314.073a20.784,20.784,0,0,1-1.9-.919Q-123.221-80.11-148.5-95.108c-.184-20.39-.375-40.616-.558-61.568C-147.518-155.9-146.577-155.484-145.7-154.96Zm-1.205,63.393q23.9,13.658,47.924,27.139c.805.456,1.552,1.012,2.953,1.916-1.563.9-2.553,1.491-3.551,2.049Q-123.3-47.14-146.993-33.8c-1.749.986-3.169,1.479-5.175.336-16.346-9.346-32.756-18.58-49.143-27.852-.6-.335-1.15-.77-2.027-1.367a24.093,24.093,0,0,1,2.317-1.737c16.1-9.061,32.242-18.073,48.3-27.218A5.132,5.132,0,0,1-146.908-91.567ZM-204.114,67.889c.019-1.926.432-3.23,2.267-4.3,16.251-9.5,32.44-19.1,48.649-28.656.6-.36,1.255-.635,2.274-1.14.1,1.228.256,2.218.246,3.211-.2,18.46-.444,36.924-.606,55.388-.017,1.928-.4,3.25-2.233,4.313-16.363,9.549-32.669,19.2-48.983,28.8-.5.293-1.046.508-2.075,1-.066-1.411-.152-2.326-.14-3.235C-204.514,104.816-204.273,86.354-204.114,67.889Zm-3.892-6.369c-15.823-9.083-31.741-18-47.618-26.977-.9-.514-1.754-1.108-2.955-1.877.974-.7,1.636-1.305,2.394-1.737,16.1-9.07,32.24-18.092,48.317-27.223a4.83,4.83,0,0,1,5.489-.08c16.034,9.177,32.15,18.233,48.235,27.334.8.447,1.533,1,2.933,1.911-1.593.916-2.581,1.494-3.581,2.066C-170.5,43.747-186.234,52.52-201.9,61.416-204.073,62.648-205.729,62.822-208.006,61.52Zm57.3-30.152c-1.114-.54-1.953-.877-2.72-1.326Q-177.44,15.821-201.466,1.614A4.271,4.271,0,0,1-203.9-2.545c-.094-18.718-.307-37.441-.464-56.167-.012-.782.1-1.57.184-2.713,1,.471,1.742.756,2.406,1.143q24.154,14.316,48.329,28.615A4.253,4.253,0,0,1-151-27.514c.1,18.723.307,37.437.474,56.159C-150.515,29.436-150.626,30.218-150.709,31.368Zm-53.5-98.6c.2-18.348.444-36.692.588-55.04.016-2.073.473-3.436,2.411-4.572,16.048-9.365,32.029-18.855,48.041-28.3.775-.455,1.62-.807,2.826-1.414.064,1.467.167,2.6.153,3.726-.2,18.107-.462,36.216-.566,54.332a5.343,5.343,0,0,1-3.027,5.282c-15.653,9.126-31.231,18.38-46.835,27.576-.977.58-1.97,1.14-3.376,1.957C-204.091-65.223-204.218-66.228-204.208-67.236Zm.865-123.116c-.188-20.5-.372-40.727-.558-60.818a3.947,3.947,0,0,1,.526-.29.492.492,0,0,1,.322-.053c.636.305,1.286.587,1.892.933q25.185,14.928,50.467,29.922c.186,20.426.367,40.722.56,61.835C-168.214-169.532-185.663-179.871-203.343-190.352Zm.948,3.153c16.437,9.4,32.946,18.675,49.42,28,.493.28.932.65,1.715,1.206a26.88,26.88,0,0,1-2.3,1.672q-24.3,13.682-48.584,27.361c-1.653.93-3.006,1.3-4.866.238-16.442-9.4-32.942-18.677-49.421-28-.49-.288-.932-.665-1.988-1.414,1.372-.794,2.269-1.319,3.163-1.826q24.009-13.473,48-26.96C-205.609-187.849-204.263-188.259-202.4-187.2Zm-6.283,121.754c-15.794-9.353-31.564-18.75-47.4-28.036a4.523,4.523,0,0,1-2.675-4.389c-.08-18.59-.292-37.18-.454-55.771-.007-.816.052-1.63.1-2.81a13.543,13.543,0,0,1,2.288.817q24.463,14.462,48.9,28.951a3.5,3.5,0,0,1,2.076,3.3c.111,19.3.3,38.6.455,57.894a14.442,14.442,0,0,1-.236,1.6C-206.868-64.525-207.81-64.931-208.678-65.445ZM-259-26.747a5.63,5.63,0,0,1,3.218-5.57c15.885-9.225,31.677-18.607,47.5-27.926.676-.406,1.442-.679,2.507-1.175.112,1.17.268,2.049.262,2.917-.206,18.6-.442,37.195-.6,55.787-.021,1.947-.48,3.228-2.287,4.288-16.172,9.436-32.275,18.982-48.4,28.487-.678.407-1.415.713-2.657,1.317-.05-1.664-.113-2.706-.1-3.747C-259.36,9.5-259.086-8.622-259-26.747Zm-.043,121.84c-.179-20.144-.365-40.44-.554-61.586,18.17,10.781,35.562,21.093,53.2,31.548q.286,30.455.568,60.97C-208.477,125.563-251.983,100.225-259.045,95.093Zm-.865,123.341c.2-18.339.449-36.685.591-55.031.018-2.1.536-3.426,2.446-4.542,16.046-9.383,32.028-18.868,48.045-28.3.769-.464,1.6-.807,2.745-1.361.08,1.344.21,2.354.2,3.369-.2,18.232-.476,36.46-.574,54.687a5.362,5.362,0,0,1-3.061,5.272c-15.552,9.064-31.027,18.245-46.52,27.4-1.086.637-2.172,1.251-3.658,2.1C-259.794,220.466-259.922,219.446-259.91,218.434Zm105.458,6.34q-24.311,13.692-48.632,27.358c-1.557.882-2.835,1.218-4.546.239q-24.843-14.152-49.775-28.2c-.478-.271-.891-.657-1.734-1.281,1.135-.746,1.789-1.239,2.493-1.64,15.9-8.952,31.845-17.839,47.695-26.88a5.9,5.9,0,0,1,6.746-.015c15.614,8.976,31.321,17.776,47,26.641.986.565,1.937,1.2,3.279,2.032C-152.994,223.773-153.684,224.342-154.452,224.774ZM-204.2,190.629q-.286-30.492-.559-61.045c3.07.751,44.4,24.845,53.2,30.922.191,20.124.373,40.454.568,61.649C-169.171,211.381-186.567,201.071-204.2,190.629Zm51.615-33.547q-24.512-13.983-49.126-27.81c-.59-.333-1.121-.771-2.008-1.389,1.065-.73,1.861-1.344,2.716-1.839q24.159-13.569,48.3-27.146c1.672-.94,3.018-1.244,4.854-.193,16.336,9.336,32.742,18.554,49.114,27.82.592.331,1.124.758,2.249,1.539-1.336.763-2.143,1.242-2.955,1.7q-24.155,13.554-48.294,27.148C-149.406,157.86-150.752,158.128-152.581,157.082Zm2.7,61.806c.2-18.59.438-37.192.612-55.782.014-1.906.374-3.265,2.222-4.342,16.368-9.563,32.674-19.231,49.005-28.849a21.217,21.217,0,0,1,2.061-.872c.066,1.4.153,2.329.143,3.254q-.3,27.729-.6,55.435c-.02,1.906-.4,3.235-2.237,4.315q-24.41,14.247-48.711,28.667c-.58.341-1.22.6-2.169,1.061A24.189,24.189,0,0,1-149.878,218.888ZM-45.22,225.3q-8.328,4.68-16.665,9.351v.18q-15.278,8.562-30.524,17.18a5.078,5.078,0,0,1-5.8.058c-15.925-9.133-31.944-18.114-47.927-27.146-.814-.456-1.58-.99-2.665-1.681a14.539,14.539,0,0,1,1.882-1.578q24.606-13.871,49.244-27.728a3.822,3.822,0,0,1,4.243-.215q15.756,8.969,31.546,17.888v.074l17.061,9.65c.872.5,1.674,1.121,3,2.02C-43.263,224.182-44.234,224.755-45.22,225.3Zm3.977-3.715c-.435-.14-.821-.26-1.177-.388l-19.111-11.321v.128q-15.306-9.073-30.619-18.134a3.482,3.482,0,0,1-2.064-3.3q-.167-28.965-.466-57.938a9,9,0,0,1,.135-1.032c1.554.225,18.117,9.589,32.66,18.206v.38q8.938,5.3,17.887,10.587a4.27,4.27,0,0,1,2.451,4.144c.091,18.726.306,37.441.468,56.167C-41.079,219.772-41.158,220.486-41.243,221.59Zm.878-64.153c-.081,0-.16,0-.24-.011a5.955,5.955,0,0,1-1.076-.227,8.252,8.252,0,0,1-1.66-.745c-6.043-3.486-12.122-6.913-18.19-10.356v.1q-14.283-8.1-28.582-16.176c-1.107-.623-2.194-1.261-3.675-2.126a27.626,27.626,0,0,1,2.464-1.829q14.894-8.381,29.793-16.757v.008q9.273-5.223,18.538-10.455c.15-.078.3-.149.442-.216.161-.085.317-.148.474-.217a4.854,4.854,0,0,1,3.2-.211,6.81,6.81,0,0,1,1.154.509c16.138,9.235,32.36,18.341,48.549,27.494.683.394,1.316.891,2.5,1.725-2.945,1.689-5.366,3.117-7.814,4.5-14.159,7.954-28.361,15.85-42.476,23.9A7.048,7.048,0,0,1-40.365,157.437Zm.776,62.024c.2-18.953.455-37.9.59-56.851a4.392,4.392,0,0,1,.12-.8,5.178,5.178,0,0,1,2.181-2.929c.155-.1.29-.2.455-.295q19.217-11.225,38.386-22.521c3.75-2.2,7.54-4.343,11.758-6.771.106,1.1.227,1.856.225,2.593-.208,18.713-.459,37.429-.6,56.142a4.323,4.323,0,0,1-2.453,4.2q-24.235,14.193-48.379,28.533c-.52.308-1.11.569-1.848.922A10.235,10.235,0,0,1-39.589,219.461Zm105.114,5.187q-24.3,13.679-48.592,27.359a5.552,5.552,0,0,1-2.377.806,4.369,4.369,0,0,1-2.13-.623c-16.333-9.334-32.739-18.561-49.11-27.824-.6-.336-1.127-.776-2.26-1.549,1.612-.926,2.721-1.583,3.844-2.209Q-13.152,208.3,8.771,195.943c1.083-.611,2.169-1.216,3.252-1.827a7.98,7.98,0,0,1,1.335-.6c.056-.02.111-.037.167-.054a4.642,4.642,0,0,1,.912-.155,5.438,5.438,0,0,1,2.958.825C33.2,203.2,49.1,212.116,64.974,221.084c.89.51,1.74,1.1,2.965,1.873C66.958,223.646,66.277,224.223,65.525,224.648Zm.995-4.2q-23.985-14.217-47.985-28.394a4.256,4.256,0,0,1-2.462-4.132c-.09-18.585-.3-37.176-.454-55.761-.008-.826.1-1.666.2-2.946.522.269,1,.508,1.418.723,16.823,9.973,33.3,19.734,49.88,29.558a4.549,4.549,0,0,1,1.324,2c.182,19.927.366,39.78.555,60.275C67.832,221.157,67.15,220.825,66.52,220.446Zm3.524-62.755a5.235,5.235,0,0,1-2.568-.785c-16.041-9.182-32.148-18.225-48.233-27.327-.771-.443-1.51-.977-2.542-1.664.256-.222.485-.434.7-.635a13.5,13.5,0,0,1,1.609-1.13q20.067-11.3,40.14-22.616,4.154-2.34,8.308-4.678a7.877,7.877,0,0,1,1.128-.522c.049-.019.1-.047.148-.064a4.464,4.464,0,0,1,1.047-.193,5.1,5.1,0,0,1,2.673.78c16.041,9.184,32.152,18.228,48.237,27.33.755.429,1.479.964,2.747,1.805l.143.124c-1.462.847-2.351,1.369-3.255,1.874-15.908,8.925-31.843,17.821-47.717,26.829A6.075,6.075,0,0,1,70.044,157.691Zm.421,60.371c.213-18.228.453-36.458.605-54.683a5.677,5.677,0,0,1,.7-3.129c.049-.071.1-.142.154-.21a4.025,4.025,0,0,1,.5-.549,5.9,5.9,0,0,1,.933-.7c.017-.01.029-.021.046-.031,16.155-9.423,32.242-18.975,48.352-28.467.123-.073.265-.138.392-.206.519-.262,1.075-.522,1.74-.842a24.166,24.166,0,0,1,.269,2.712c-.2,18.581-.45,37.161-.6,55.744a4.3,4.3,0,0,1-2.32,4.265c-16.256,9.493-32.45,19.08-48.672,28.629-.52.31-1.113.553-1.983.957C70.528,220.07,70.459,219.06,70.465,218.062ZM177.7,223.65c-1.092.636-1.942,1.131-2.787,1.6-15.794,8.872-31.615,17.7-47.359,26.667a5.648,5.648,0,0,1-3.133.847,6.6,6.6,0,0,1-2.606-.9C105.993,242.8,90.1,233.881,74.228,224.909c-.88-.5-1.692-1.131-2.8-1.882,1.2-.756,2.039-1.353,2.933-1.861q19.928-11.2,39.852-22.412,4.077-2.295,8.155-4.583c.157-.089.3-.141.455-.218a7.144,7.144,0,0,1,.8-.355,4.557,4.557,0,0,1,.444-.11,4.3,4.3,0,0,1,.742-.112,5.64,5.64,0,0,1,2.658.829c15.923,9.115,31.923,18.1,47.889,27.133.862.494,1.666,1.109,2.885,1.921C178.039,223.4,177.875,223.52,177.7,223.65Zm1.324-2.156a9.449,9.449,0,0,1-1.915-.68q-24.464-14.472-48.9-28.953a3.5,3.5,0,0,1-2.081-3.3c-.116-19.288-.3-38.589-.456-57.889a12.274,12.274,0,0,1,.211-1.456c1.071.537,1.939.934,2.72,1.4q23.7,14.033,47.389,28.061a7.164,7.164,0,0,1,1.794,1.385c.065.078.139.154.2.235a3.845,3.845,0,0,1,.711,2.386c.069,18.936.3,37.886.46,56.833C179.16,220.063,179.085,220.637,179.021,221.494Zm.771-64.062a6.71,6.71,0,0,1-2.927-.983c-15.705-9.019-31.5-17.884-47.261-26.807-.894-.508-1.747-1.107-2.962-1.89.891-.635,1.471-1.126,2.128-1.5q24.606-13.834,49.22-27.665a7.213,7.213,0,0,1,.835-.4,3.638,3.638,0,0,1,2.266-.113,4.315,4.315,0,0,1,.78.322q24.994,14.218,50.028,28.356a16.416,16.416,0,0,1,1.543,1.218c-1.454.836-2.457,1.423-3.476,2-15.683,8.821-31.4,17.59-47.026,26.52A6.215,6.215,0,0,1,179.792,157.432Zm1.059,64.321c-.1-1.4-.207-2.372-.2-3.319.2-18.339.45-36.685.592-55.031.017-2.1.536-3.426,2.446-4.542,16.045-9.383,32.028-18.868,48.045-28.3.682-.412,1.447-.747,2.4-1.2.08,1.256.2,2.237.188,3.207-.2,18.232-.476,36.46-.572,54.687a5.365,5.365,0,0,1-3.062,5.272c-15.553,9.064-31.028,18.245-46.521,27.4-.9.529-1.816,1.05-2.945,1.7Zm104.909,3.021q-24.312,13.692-48.632,27.358a5.79,5.79,0,0,1-2.137.8,3.863,3.863,0,0,1-2.055-.559q-24.843-14.152-49.775-28.2A18.123,18.123,0,0,1,181.574,223a19.509,19.509,0,0,1,1.89-1.476c.153-.1.3-.191.456-.277,15.9-8.952,31.845-17.839,47.7-26.88a6.967,6.967,0,0,1,3.191-1.037,6.69,6.69,0,0,1,3.2,1.022c15.614,8.976,31.322,17.776,47,26.641.987.565,1.938,1.2,3.279,2.032C287.217,223.773,286.528,224.342,285.76,224.774Zm-49.39-34.145q-.285-30.431-.557-60.922c5,1.965,44.292,24.892,52.841,30.8.19,20.057.371,40.319.566,61.438C271.169,211.247,253.882,201,236.37,190.629Zm53.85-32.908a4.346,4.346,0,0,1-2.236-.639q-24.51-13.983-49.125-27.81c-.59-.333-1.121-.771-2.008-1.389,1.065-.73,1.861-1.344,2.716-1.839q24.159-13.569,48.3-27.146a5.945,5.945,0,0,1,2.268-.82,4.269,4.269,0,0,1,2.232.627c16.335,9.336,32.741,18.554,49.114,27.82.591.331,1.123.758,2.249,1.539-1.336.763-2.143,1.242-2.955,1.7q-24.156,13.554-48.295,27.148A5.786,5.786,0,0,1,290.22,157.721Zm.468,61.167c.2-18.59.437-37.192.612-55.782.014-1.906.374-3.265,2.222-4.342,16.368-9.563,32.674-19.231,49.005-28.849a14.312,14.312,0,0,1,1.714-.732c.065,1.32.145,2.222.135,3.114q-.3,27.729-.6,55.435c-.019,1.906-.4,3.235-2.238,4.315q-24.408,14.247-48.709,28.667c-.5.295-1.085.549-1.838.9A21.331,21.331,0,0,1,290.688,218.888Zm104.537,6.478c-15.819,8.872-31.647,17.706-47.423,26.65a6.236,6.236,0,0,1-2.712.91,5.613,5.613,0,0,1-2.732-.852c-15.925-9.133-31.944-18.114-47.928-27.146-.813-.456-1.579-.99-2.664-1.681a14.47,14.47,0,0,1,1.882-1.578q24.6-13.871,49.243-27.728a5.349,5.349,0,0,1,1.993-.731,3.642,3.642,0,0,1,1.9.516q25.159,14.319,50.372,28.564a13.133,13.133,0,0,1,1.4,1.16C397.187,224.242,396.213,224.815,395.225,225.366Zm4.1-3.776a10.321,10.321,0,0,1-1.973-.735q-24.477-14.482-48.934-28.98a3.482,3.482,0,0,1-2.064-3.3q-.166-28.965-.466-57.938a6.991,6.991,0,0,1,.122-.931c2.876,1.061,18.766,10.067,32.673,18.314v.171q6.5,3.855,13.016,7.7c2.557,1.589,4.719,2.971,6.27,4.021a3.677,3.677,0,0,1,.881,1.588c.18,19.68.363,39.279.543,59.242C399.37,221,399.347,221.279,399.323,221.59Zm.741-64.142a7.539,7.539,0,0,1-3.24-1.112c-15.4-8.877-30.906-17.561-46.372-26.318-1.107-.623-2.193-1.261-3.675-2.126a27.919,27.919,0,0,1,2.464-1.829c16.008-9.007,32.047-17.966,48.01-27.046a6.457,6.457,0,0,1,2.969-.952,5.964,5.964,0,0,1,2.794.865c15.826,9.077,31.742,18.008,47.618,26.981.9.507,1.75,1.1,3.224,2.042-3.016,1.735-5.43,3.151-7.872,4.528-12.246,6.875-24.511,13.716-36.718,20.659-1.887,1.07-3.782,2.126-5.667,3.2A6.923,6.923,0,0,1,400.064,157.448Zm.959,64.106c-.079-1.383-.158-2.382-.15-3.34.2-18.134.48-36.255.551-54.383A5.6,5.6,0,0,1,404.7,158.3c15.608-9.072,31.139-18.291,46.7-27.446l.386-.221c.745-.427,1.566-.808,2.68-1.361,0,.025.005.041.007.066.041,1.553.1,2.567.089,3.556-.205,18.131-.461,36.245-.577,54.381a5.383,5.383,0,0,1-2.967,5.325c-.075.043-.148.087-.223.131-15.6,9.086-31.106,18.311-46.646,27.5-.408.239-.825.48-1.271.735-.5.266-1.047.514-1.783.875C401.072,221.737,401.047,221.653,401.023,221.554Zm104.953,3.138Q481.7,238.377,457.391,252.06a8.994,8.994,0,0,1-.913.434,5.288,5.288,0,0,1-.664.223l-.054.013a3.735,3.735,0,0,1-1.661.022,5.215,5.215,0,0,1-1.213-.508c-16.336-9.332-32.734-18.554-49.113-27.823-.6-.338-1.126-.771-2.267-1.554,1.4-.814,2.3-1.336,3.219-1.857q24-13.471,47.995-26.968a6.984,6.984,0,0,1,1.764-.71,4.645,4.645,0,0,1,1.767.094,5.039,5.039,0,0,1,.966.4c16.343,9.333,32.746,18.553,49.12,27.814.593.334,1.131.757,2.035,1.375C507.415,223.691,506.736,224.264,505.976,224.692Zm3.348-2.865c-.36-.189-.678-.354-.959-.5l-50.719-30.059a3.753,3.753,0,0,1-1.058-1.6c-.183-19.893-.367-39.9-.554-60.448,1.34.691,2.3,1.143,3.186,1.677,15.587,9.225,31.139,18.518,46.782,27.648a5.3,5.3,0,0,1,2.975,5.29c.055,17.993.275,35.993.436,53.989C509.423,218.922,509.367,220.05,509.324,221.827Zm1.149-64.125a5.656,5.656,0,0,1-2.732-.844c-15.928-9.139-31.945-18.119-47.925-27.166-.807-.451-1.582-.98-2.665-1.672a14.724,14.724,0,0,1,1.88-1.572q24.615-13.878,49.246-27.733a6.64,6.64,0,0,1,1.289-.559,4.328,4.328,0,0,1,1.961.084,4.052,4.052,0,0,1,.641.26q25.159,14.327,50.372,28.561a13.914,13.914,0,0,1,1.392,1.174c-1.368.783-2.344,1.353-3.325,1.912-15.816,8.87-31.649,17.705-47.427,26.648a8.32,8.32,0,0,1-1.46.675c-.085.027-.167.027-.25.05A4.721,4.721,0,0,1,510.473,157.7Zm.637,63.869c-.09-1.277-.2-2.257-.194-3.236.207-18.342.454-36.678.594-55.029.019-2.09.541-3.428,2.452-4.542,16.051-9.382,32.032-18.868,48.046-28.306.678-.4,1.448-.732,2.4-1.186.085,1.26.2,2.246.193,3.214-.2,18.234-.468,36.455-.565,54.69A5.376,5.376,0,0,1,561,192.439c-1.261.736-2.516,1.479-3.776,2.216q-21.744,12.693-43.409,25.526c-.78.455-1.637.856-2.68,1.379Zm105.036,3.273q-10.954,6.164-21.916,12.328-1.9,1.068-3.8,2.139-11.414,6.414-22.822,12.837a5.129,5.129,0,0,1-4.863.046c-16.236-9.275-32.535-18.441-48.812-27.648-.592-.335-1.124-.773-2.24-1.538,1.321-.759,2.129-1.242,2.943-1.689q24.156-13.573,48.3-27.148a5.954,5.954,0,0,1,2.257-.822,4.444,4.444,0,0,1,1.158.172,5.11,5.11,0,0,1,1.082.457c16.345,9.333,32.744,18.553,49.123,27.821.583.327,1.122.767,2.011,1.376C617.593,223.858,616.912,224.416,616.146,224.844Zm3.3-3.285c-.36-.118-.706-.216-1.029-.311a15.034,15.034,0,0,1-1.4-.705q-24-14.2-47.985-28.414c-1.5-.887-2.463-1.749-2.467-3.791-.08-18.941-.3-37.881-.46-56.821-.006-.632.107-1.283.214-2.366l.133.065c1.307.724,2.243,1.23,3.145,1.764,15.486,9.172,30.949,18.4,46.49,27.487a5.322,5.322,0,0,1,3.084,5.243c.041,18.124.268,36.24.413,54.357C619.594,219.117,619.516,220.189,619.448,221.559ZM621,157.4a4.907,4.907,0,0,1-2.051-.15,8.7,8.7,0,0,1-1.623-.748c-15.706-9.022-31.507-17.874-47.263-26.8-.9-.5-1.747-1.1-2.972-1.891.884-.629,1.467-1.129,2.116-1.491q24.61-13.838,49.216-27.68a4.545,4.545,0,0,1,2.16-.671,4.653,4.653,0,0,1,2.033.657q14.012,7.969,28.061,15.888V114.4q10.9,6.169,21.789,12.35a16.244,16.244,0,0,1,1.544,1.218c-1.454.836-2.457,1.423-3.477,2q-9.922,5.581-19.856,11.152V141.1q-13.664,7.68-27.278,15.427a8.745,8.745,0,0,1-1.359.614,5.816,5.816,0,0,1-.746.209C621.194,157.376,621.1,157.384,621,157.4Zm.1,61.3c.2-18.457.443-36.921.606-55.383.014-1.926.411-3.238,2.242-4.306q13.563-7.919,27.08-15.92v-.19q10.46-6.176,20.921-12.345c.768-.464,1.6-.807,2.744-1.361.081,1.344.21,2.354.2,3.369-.2,18.232-.476,36.46-.573,54.687a5.363,5.363,0,0,1-3.061,5.272q-10.312,6.011-20.586,12.083V204.6q-14.16,8.343-28.322,16.677a7.77,7.77,0,0,1-1.119.42C621.176,220.471,621.087,219.587,621.1,218.7Zm105.225,6.07q-24.312,13.692-48.633,27.358c-1.556.882-2.834,1.218-4.545.239q-11.039-6.288-22.119-12.531v-.108q-13.757-7.791-27.52-15.572c-.408-.222-.761-.534-1.5-1.051a19.122,19.122,0,0,1,2.156-1.682q13.428-7.566,26.862-15.113v-.185q10.413-5.857,20.8-11.76a5.9,5.9,0,0,1,6.745-.015c15.614,8.976,31.321,17.776,47,26.641.986.565,1.938,1.2,3.279,2.032C727.783,223.773,727.094,224.342,726.326,224.774Zm-49.745-34.145q-.286-30.492-.558-61.045c3.069.751,44.4,24.845,53.2,30.922.191,20.124.373,40.454.568,61.649C711.606,211.381,694.21,201.071,676.581,190.629ZM728.2,157.082q-24.512-13.983-49.126-27.81c-.59-.333-1.121-.771-2.008-1.389,1.066-.73,1.861-1.344,2.716-1.839q24.159-13.569,48.3-27.146c1.671-.94,3.017-1.244,4.853-.193,16.336,9.336,32.742,18.554,49.114,27.82.592.331,1.124.758,2.249,1.539-1.335.763-2.143,1.242-2.955,1.7q-24.156,13.554-48.294,27.148C731.371,157.86,730.025,158.128,728.2,157.082Zm2.7,61.806c.2-18.59.438-37.192.612-55.782.015-1.906.374-3.265,2.223-4.342,16.367-9.563,32.674-19.231,49.005-28.849a21.107,21.107,0,0,1,2.061-.872c.066,1.4.152,2.329.142,3.254q-.3,27.729-.6,55.435c-.02,1.906-.4,3.235-2.237,4.315Q757.7,206.294,733.4,220.714c-.58.341-1.219.6-2.169,1.061A24.4,24.4,0,0,1,730.9,218.888Zm104.891,6.478c-15.818,8.872-31.646,17.706-47.422,26.65a5.078,5.078,0,0,1-5.8.058c-15.924-9.133-31.944-18.114-47.927-27.146-.814-.456-1.579-.99-2.665-1.681a14.537,14.537,0,0,1,1.882-1.578Q758.465,207.8,783.1,193.941a3.82,3.82,0,0,1,4.242-.215q25.161,14.319,50.373,28.564a13.055,13.055,0,0,1,1.4,1.16C837.753,224.242,836.779,224.815,835.79,225.366Zm1.772-4.511q-24.479-14.482-48.935-28.98a3.48,3.48,0,0,1-2.063-3.3q-.167-28.965-.467-57.938a9,9,0,0,1,.135-1.032c2.5.363,43.975,24.45,53.173,30.911.186,20.336.375,40.575.561,61.214A15.615,15.615,0,0,1,837.562,220.855Zm-.527-64.519c-15.4-8.877-30.9-17.561-46.371-26.318-1.107-.623-2.194-1.261-3.675-2.126a27.615,27.615,0,0,1,2.464-1.829c16.007-9.007,32.046-17.966,48.009-27.046a5.409,5.409,0,0,1,6.118-.087c15.826,9.077,31.742,18.008,47.618,26.981.9.507,1.75,1.1,3.223,2.042-3.015,1.735-5.429,3.151-7.871,4.528-14.166,7.954-28.376,15.833-42.469,23.915C841.483,157.889,839.581,157.8,837.035,156.336Zm4.05,61.878c.2-18.134.48-36.255.55-54.383a5.6,5.6,0,0,1,3.277-5.529c15.676-9.111,31.272-18.37,46.9-27.563.877-.522,1.812-.931,3.22-1.641.041,1.7.109,2.754.1,3.8-.205,18.131-.461,36.245-.577,54.381a5.381,5.381,0,0,1-2.977,5.33c-15.667,9.126-31.249,18.4-46.859,27.624-.976.573-1.96,1.126-3.443,1.982C841.184,220.451,841.074,219.323,841.085,218.214Zm105.457,6.478q-24.281,13.685-48.586,27.368c-1.662.935-3.012,1.237-4.859.184-16.335-9.332-32.734-18.554-49.113-27.823-.6-.338-1.126-.771-2.267-1.554,1.4-.814,2.3-1.336,3.219-1.857q24-13.471,48-26.968c1.662-.93,3-1.27,4.851-.214,16.344,9.333,32.747,18.553,49.121,27.814.592.334,1.131.757,2.035,1.375C947.981,223.691,947.3,224.264,946.542,224.692Zm3.34-2.59c-17.978-10.656-35.358-20.956-53.073-31.454-.186-20.277-.375-40.669-.565-61.615,1.543.807,2.578,1.278,3.542,1.86,15.586,9.225,31.139,18.518,46.781,27.648a5.3,5.3,0,0,1,2.975,5.29c.056,17.993.275,35.993.437,53.989C949.989,218.982,949.926,220.149,949.882,222.1Zm-1.93-65.244c-15.927-9.139-31.944-18.119-47.924-27.166-.808-.451-1.584-.98-2.666-1.672a14.792,14.792,0,0,1,1.88-1.572q24.615-13.878,49.246-27.733a3.847,3.847,0,0,1,4.246-.215q25.16,14.327,50.372,28.561a13.909,13.909,0,0,1,1.392,1.174c-1.368.783-2.344,1.353-3.325,1.912-15.816,8.87-31.649,17.705-47.427,26.648A5.089,5.089,0,0,1,947.952,156.858Zm3.175,61.477c.208-18.342.454-36.678.594-55.029.02-2.09.542-3.428,2.452-4.542,16.051-9.382,32.032-18.868,48.046-28.306.766-.454,1.6-.79,2.738-1.348.085,1.348.217,2.363.205,3.376-.2,18.234-.468,36.455-.565,54.69a5.381,5.381,0,0,1-3.054,5.279c-15.761,9.174-31.439,18.472-47.162,27.726-.877.512-1.809.93-3.046,1.561C951.244,220.369,951.117,219.362,951.127,218.335Zm105.584,6.509q-24.288,13.668-48.6,27.337c-1.672.944-3.017,1.222-4.857.186-16.336-9.334-32.736-18.557-49.116-27.821-.592-.335-1.123-.773-2.239-1.538,1.321-.759,2.128-1.242,2.942-1.689q24.156-13.573,48.3-27.148c1.663-.938,3.011-1.252,4.852-.193,16.345,9.333,32.744,18.553,49.123,27.821.582.327,1.121.767,2.01,1.376C1058.159,223.858,1057.478,224.416,1056.711,224.844Zm-46.55-93.864c15.486,9.172,30.949,18.4,46.49,27.487a5.323,5.323,0,0,1,3.084,5.243c.041,18.124.268,36.24.413,54.357.014,1.133-.08,2.276-.151,3.81-1.169-.558-2.005-.882-2.771-1.334q-24-14.2-47.985-28.414c-1.5-.887-2.463-1.749-2.467-3.791-.079-18.941-.295-37.881-.459-56.821-.008-.672.12-1.346.234-2.559C1008.124,129.835,1009.151,130.381,1010.161,130.98Zm49.732-37.774a3.535,3.535,0,0,1-1.817,3.484q-24.981,14.667-49.906,29.417a13.358,13.358,0,0,1-1.577.585c-.051-1.542-.138-2.678-.121-3.811.2-18.126.457-36.245.563-54.378a5.39,5.39,0,0,1,3.044-5.294c15.776-9.186,31.475-18.494,47.2-27.757.8-.474,1.61-.931,2.752-1.59a13.452,13.452,0,0,1,.484,2.508Q1060.228,64.782,1059.893,93.206ZM1009.253-60.2q24.338,14.385,48.628,28.8c1.3.763,2.163,1.508,2.172,3.228.1,19.433.283,38.852.437,58.281a6.483,6.483,0,0,1-.306,1.176c-9.042-4.9-17.641-10.307-26.392-15.444-8.819-5.176-17.6-10.441-26.45-15.686-.186-20.416-.373-40.635-.556-61.272A16.606,16.606,0,0,1,1009.253-60.2Zm51.01-37.83c-.014,1.947-.444,3.24-2.268,4.308-16.351,9.548-32.651,19.194-48.979,28.8-.493.292-1.049.5-2.056.974-.058-1.426-.147-2.342-.133-3.252.2-18.46.442-36.925.6-55.391a4.3,4.3,0,0,1,2.289-4.277c16.246-9.493,32.437-19.1,48.645-28.66.606-.353,1.253-.615,2.2-1.088a23.367,23.367,0,0,1,.3,2.849C1060.669-135.181,1060.418-116.6,1060.263-98.032Zm.213-122.636c.191,20.383.377,40.727.572,61.412a10.676,10.676,0,0,1-2.114-.671q-24.621-14.556-49.241-29.145a3.494,3.494,0,0,1-2.044-3.321c-.114-19.31-.3-38.618-.462-57.928a18.088,18.088,0,0,1,.24-1.793C1025.325-241.507,1042.811-231.146,1060.476-220.668Zm.889-124.256c-.186,19.046-.423,38.1-.606,57.144a3.572,3.572,0,0,1-1.9,3.444q-25.121,14.721-50.194,29.518a8.465,8.465,0,0,1-1.189.362c-.065-1.193-.162-2.1-.15-3,.2-18.58.439-37.158.6-55.746a4.044,4.044,0,0,1,2.213-3.965q24.51-14.363,48.949-28.844c.5-.3,1.044-.517,1.81-.894A8.9,8.9,0,0,1,1061.365-344.924ZM956.513-350.53c15.9-8.925,31.821-17.817,47.678-26.822a4.812,4.812,0,0,1,5.477.019c15.921,9.109,31.921,18.1,47.887,27.124.882.5,1.691,1.129,2.826,1.878-1.2.766-2.031,1.363-2.921,1.862-15.888,8.95-31.806,17.842-47.646,26.866a5.381,5.381,0,0,1-6.108-.039c-15.814-9.063-31.713-17.993-47.573-26.962-.882-.5-1.689-1.131-2.977-2C954.551-349.4,955.527-349.979,956.513-350.53Zm-4.069,3.673a9.615,9.615,0,0,1,2,.608q24.624,14.561,49.21,29.132a3.487,3.487,0,0,1,2.045,3.316c.118,19.3.305,38.588.461,57.888a12.748,12.748,0,0,1-.248,1.59c-1.262-.645-2.2-1.067-3.074-1.58q-23.7-14.044-47.4-28.054a4.5,4.5,0,0,1-2.653-4.392c-.075-18.591-.285-37.186-.455-55.771C952.332-344.934,952.4-345.75,952.444-346.857Zm1.561,64.608c16.341,9.339,32.736,18.559,49.118,27.812.589.339,1.129.764,2.025,1.383-1.066.735-1.846,1.363-2.709,1.841q-24.138,13.587-48.292,27.167c-1.66.938-3.007,1.252-4.847.2-16.348-9.334-32.746-18.561-49.123-27.818-.592-.334-1.129-.766-2.262-1.551,1.31-.754,2.114-1.235,2.931-1.684q24.156-13.56,48.3-27.144C950.8-282.974,952.154-283.3,954.005-282.249Zm-2.818-61.687c-.21,18.455-.447,36.917-.611,55.386-.012,1.921-.4,3.244-2.23,4.325-16.36,9.531-32.659,19.182-48.986,28.8-.493.293-1.044.5-1.841.885a15.609,15.609,0,0,1-.384-2.417c.191-18.814.435-37.629.614-56.44a3.827,3.827,0,0,1,1.957-3.764q24.975-14.623,49.877-29.361a12,12,0,0,1,1.438-.551C951.093-345.765,951.19-344.847,951.187-343.936Zm-104.951-6.393c15.8-8.894,31.642-17.73,47.379-26.73a5.618,5.618,0,0,1,6.436.05c15.722,9.017,31.532,17.885,47.306,26.81.907.513,1.772,1.1,2.956,1.841a14.5,14.5,0,0,1-1.962,1.6q-24.635,13.86-49.271,27.69a3.823,3.823,0,0,1-4.238.181q-25.014-14.236-50.082-28.378c-.394-.225-.738-.551-1.668-1.261C844.458-349.313,845.342-349.825,846.236-350.329Zm49.227,34.44c.186,20.453.377,40.739.565,61.847-18.09-10.721-35.535-21.06-53.206-31.522-.189-20.32-.377-40.647-.57-61.871C860.451-336.644,877.919-326.288,895.463-315.889Zm-52.044,33.3q25.148,14.3,50.333,28.525a13.589,13.589,0,0,1,1.286,1.119c-1.329.766-2.325,1.344-3.32,1.906-15.686,8.834-31.4,17.609-47.036,26.522-2.292,1.3-4.016,1.463-6.432.078-15.789-9.094-31.693-18-47.56-26.974-.807-.45-1.563-.991-2.636-1.684a12.247,12.247,0,0,1,1.612-1.361q24.906-14.018,49.834-28.023A3.524,3.524,0,0,1,843.419-282.587Zm-2.274-61.5c-.2,18.6-.438,37.19-.6,55.792-.022,1.929-.461,3.223-2.285,4.294-16.17,9.447-32.262,19-48.385,28.515-.679.4-1.416.7-2.612,1.257-.082-1.387-.179-2.2-.171-3.013.205-18.6.464-37.19.6-55.792a4.6,4.6,0,0,1,2.594-4.482c16.064-9.375,32.074-18.851,48.1-28.3.679-.4,1.418-.7,2.476-1.222A28.58,28.58,0,0,1,841.145-344.091Zm-105.962-5.9c16.209-9.125,32.446-18.2,48.628-27.382a4.824,4.824,0,0,1,5.5-.063c16.038,9.172,32.152,18.225,48.231,27.322.793.452,1.53,1.008,2.854,1.877-2.979,1.711-5.4,3.137-7.843,4.514-14.164,7.959-28.361,15.853-42.472,23.9-2.4,1.372-4.216,1.562-6.731.11-15.5-8.947-31.106-17.679-46.678-26.493-1.1-.626-2.192-1.271-3.612-2.1A19.23,19.23,0,0,1,735.183-349.994Zm-2.928,2.772c1.375.718,2.4,1.188,3.373,1.768,15.606,9.233,31.169,18.534,46.828,27.69a5.3,5.3,0,0,1,3.064,5.248c.048,18.131.27,36.266.428,54.395.01,1.138-.092,2.281-.151,3.849-1.374-.72-2.406-1.2-3.373-1.766-15.6-9.237-31.173-18.537-46.832-27.687a5.321,5.321,0,0,1-3.05-5.258c-.053-18.128-.27-36.257-.427-54.4C732.1-344.512,732.192-345.645,732.255-347.222Zm2.356,65.4c15.707,9.032,31.526,17.891,47.3,26.82.914.514,1.783,1.092,2.941,1.812a9.68,9.68,0,0,1-1.524,1.456Q758.4-237.7,733.454-223.692a3.578,3.578,0,0,1-3.929.055q-25.178-14.309-50.378-28.557a12.756,12.756,0,0,1-1.248-1.01c1.173-.766,2-1.365,2.9-1.865,15.8-8.892,31.629-17.73,47.376-26.721A5.635,5.635,0,0,1,734.611-281.826Zm-3.659-62.11c-.19,18.476-.427,36.958-.6,55.432-.012,1.906-.367,3.237-2.22,4.322-16.268,9.494-32.473,19.1-48.7,28.668-.59.346-1.23.609-2.424,1.191-.041-1.751-.1-2.9-.092-4.047.206-18.012.469-36.015.561-54.028.017-2.66.766-4.221,3.155-5.615,15.889-9.206,31.672-18.6,47.5-27.919.693-.409,1.442-.7,2.565-1.237C730.8-345.9,730.963-344.915,730.952-343.936Zm-105.8-5.683q12.934-7.292,25.874-14.538v-.2q11.538-6.477,23.069-12.965c1.672-.943,3.015-1.24,4.859-.186,16.335,9.326,32.744,18.549,49.116,27.815.594.338,1.124.766,2.012,1.379-.976.682-1.667,1.242-2.425,1.675q-24.294,13.659-48.6,27.336c-1.675.94-3.02,1.223-4.859.172q-11.571-6.607-23.175-13.153v-.061q-12.868-7.281-25.736-14.57c-.593-.326-1.117-.77-1.977-1.367A20.906,20.906,0,0,1,625.155-349.619Zm12.353,11.339c12.651,7.5,25.177,14.928,37.733,22.364.184,20.412.367,40.722.558,61.854-4.785-2.836-8.72-5.175-12.661-7.509q-6.055-3.591-12.109-7.185v-.081c-9-5.335-17.938-10.633-26.936-15.965a4.393,4.393,0,0,1-1.264-1.974q-.28-29.739-.555-59.62C624.018-345.769,630.023-342.524,637.508-338.28Zm-16.02,55.5a7.362,7.362,0,0,1,3.245,1.1q12.924,7.47,25.942,14.78v-.118q10.725,6.059,21.452,12.114c.8.452,1.543,1.005,2.886,1.875-2.771,1.6-4.982,2.9-7.212,4.156q-14.07,7.908-28.141,15.818-7.849,4.409-15.692,8.83a5.185,5.185,0,0,1-4.2.561,5.563,5.563,0,0,1-.616-.264c-16.359-9.336-32.761-18.571-49.157-27.849-.6-.331-1.134-.762-2.149-1.467,1.25-.807,2-1.353,2.8-1.8,15.7-8.836,31.43-17.6,47.065-26.544A7.538,7.538,0,0,1,621.488-282.782Zm-.689-62.142c-.186,19.046-.422,38.1-.606,57.144,0,.225-.039.418-.061.623a5.124,5.124,0,0,1-2.466,3.19q-24.8,14.54-49.564,29.149a4.349,4.349,0,0,1-.841.263c-.064-1.14-.155-2.028-.143-2.9.2-18.58.437-37.158.6-55.746a4.047,4.047,0,0,1,2.212-3.965q24.512-14.363,48.951-28.844c.423-.251.906-.464,1.5-.746A7.334,7.334,0,0,1,620.8-344.924Zm-107.465-3.9c1.184-.681,2.079-1.208,2.966-1.7,15.9-8.925,31.822-17.817,47.679-26.822a5.472,5.472,0,0,1,2.621-.806,5.7,5.7,0,0,1,2.5.825c15.92,9.109,31.92,18.1,47.886,27.124.882.5,1.691,1.129,2.827,1.878-1.2.766-2.032,1.363-2.922,1.862-15.888,8.95-31.806,17.842-47.646,26.866a8.069,8.069,0,0,1-1.235.552,5.733,5.733,0,0,1-.793.223c-.046.009-.09.012-.135.02a4.745,4.745,0,0,1-2.039-.126,8.355,8.355,0,0,1-1.552-.708c-15.814-9.063-31.712-17.993-47.572-26.962-.874-.493-1.677-1.12-2.944-1.975C513.111-348.67,513.21-348.741,513.334-348.826Zm-1.106,2.056a6.448,6.448,0,0,1,1.65.521q24.625,14.561,49.211,29.132a3.644,3.644,0,0,1,1.894,2.179l.016.039a4.406,4.406,0,0,1,.134,1.1c.118,19.3.3,38.588.461,57.888a9.958,9.958,0,0,1-.219,1.428c-1.086-.547-1.957-.955-2.748-1.418q-23.7-14.044-47.4-28.054a4.5,4.5,0,0,1-2.653-4.392c-.075-18.591-.285-37.186-.454-55.771C512.121-344.91,512.185-345.712,512.228-346.77Zm-1.026,63.9a3.7,3.7,0,0,1,.589.048c.137.016.273.028.412.058a5.125,5.125,0,0,1,1.236.513c16.341,9.339,32.737,18.559,49.118,27.812.578.333,1.116.753,1.982,1.352-.2.161-.371.3-.546.449a22.859,22.859,0,0,1-2.12,1.423q-24.137,13.587-48.292,27.167a6.575,6.575,0,0,1-1.86.73,3.835,3.835,0,0,1-.454.09,3.514,3.514,0,0,1-.464-.039,3.725,3.725,0,0,1-.473-.059,5.223,5.223,0,0,1-1.241-.518c-16.348-9.334-32.747-18.561-49.123-27.818-.593-.334-1.129-.766-2.263-1.551,1.31-.754,2.115-1.235,2.932-1.684q24.156-13.56,48.3-27.144A5.983,5.983,0,0,1,511.2-282.868Zm-.581-61.068c-.21,18.455-.447,36.917-.611,55.386a4.907,4.907,0,0,1-.872,3.119,4.043,4.043,0,0,1-.326.413,5.33,5.33,0,0,1-.546.42,6.762,6.762,0,0,1-.609.446c-16.276,9.482-32.491,19.082-48.733,28.648-.376.2-.8.412-1.273.641-.118.053-.242.111-.373.171a13.139,13.139,0,0,1-.354-2.267c.191-18.814.435-37.629.614-56.44a3.825,3.825,0,0,1,1.957-3.764q24.974-14.623,49.877-29.361a6.967,6.967,0,0,1,1.091-.426C510.534-345.711,510.624-344.816,510.621-343.936Zm-104.6-6.393c15.8-8.894,31.643-17.73,47.379-26.73A6.185,6.185,0,0,1,456.56-378a6.741,6.741,0,0,1,2.925.989c15.722,9.017,31.532,17.885,47.307,26.81.906.513,1.772,1.1,2.955,1.841a14.5,14.5,0,0,1-1.962,1.6q-24.635,13.86-49.271,27.69c-.214.121-.415.2-.621.294a3.92,3.92,0,0,1-2.546.183,4.441,4.441,0,0,1-.716-.3q-25.016-14.236-50.083-28.378c-.394-.225-.737-.551-1.668-1.261C404.246-349.313,405.13-349.825,406.024-350.329Zm-1.277,4.709c17.094,10.135,33.6,19.92,50.15,29.731.185,20.384.376,40.6.564,61.636-17.963-10.644-35.3-20.918-52.851-31.311-.187-20.226-.375-40.462-.568-61.58C402.961-346.641,403.842-346.127,404.747-345.62Zm-2.509,62.771a4.228,4.228,0,0,1,.615.262q25.149,14.3,50.334,28.525a9.216,9.216,0,0,1,1.071.927,13.665,13.665,0,0,1-1.792,1.347q-4.475,2.526-8.952,5.045-13.674,7.686-27.33,15.4-6.313,3.558-12.628,7.117a6.38,6.38,0,0,1-2.425.736,6.2,6.2,0,0,1-3.092-.95c-15.79-9.094-31.694-18-47.561-26.974-.806-.45-1.562-.991-2.635-1.684a12.246,12.246,0,0,1,1.611-1.361q24.907-14.018,49.834-28.023a5.962,5.962,0,0,1,.869-.4A4.094,4.094,0,0,1,402.238-282.849Zm-1.659-61.242c-.2,18.6-.437,37.19-.6,55.792a6.386,6.386,0,0,1-.307,1.963,4.877,4.877,0,0,1-1.576,2.026c-.108.075-.185.157-.3.23-.082.057-.174.114-.262.171-16.115,9.416-32.152,18.939-48.221,28.419-.607.359-1.28.643-2.268,1.1-.079-1.283-.167-2.076-.16-2.854.2-18.6.463-37.19.6-55.792a4.6,4.6,0,0,1,2.593-4.482c16.065-9.375,32.075-18.851,48.1-28.3.6-.352,1.276-.649,2.142-1.064A25.184,25.184,0,0,1,400.579-344.091Zm-105.607-5.9c16.208-9.125,32.445-18.2,48.628-27.382a5.926,5.926,0,0,1,2.566-.863,5.314,5.314,0,0,1,2.574.8c16.039,9.172,32.152,18.225,48.232,27.322.718.409,1.413.917,2.518,1.654a12.23,12.23,0,0,1-1.251,1.138l-3.2,1.853-13.858,7.8c-10.571,5.922-21.143,11.841-31.666,17.846a7.366,7.366,0,0,1-3.221,1.1,6.451,6.451,0,0,1-3.156-.992c-15.5-8.947-31.107-17.679-46.679-26.493-1.1-.626-2.191-1.271-3.612-2.1A19.23,19.23,0,0,1,294.972-349.994Zm-2.936,2.948c1.188.611,2.146,1.067,3.026,1.592,15.606,9.233,31.169,18.534,46.828,27.69a5.3,5.3,0,0,1,3.064,5.248c.048,18.131.27,36.266.428,54.395.009,1.093-.083,2.2-.143,3.671-1.189-.613-2.15-1.074-3.026-1.588-15.6-9.237-31.173-18.537-46.833-27.687a5.322,5.322,0,0,1-3.049-5.258c-.053-18.128-.27-36.257-.428-54.4C291.89-344.467,291.974-345.564,292.036-347.046Zm-1.042,64.257a6.388,6.388,0,0,1,3.051.963c15.707,9.032,31.526,17.891,47.3,26.82.913.514,1.782,1.092,2.94,1.812a9.637,9.637,0,0,1-1.524,1.456q-24.928,14.034-49.875,28.046a4.37,4.37,0,0,1-1.813.588,3.774,3.774,0,0,1-1.761-.533q-25.179-14.309-50.378-28.557a12.973,12.973,0,0,1-1.249-1.01c1.174-.766,2-1.365,2.9-1.865,15.8-8.892,31.63-17.73,47.376-26.721A6.75,6.75,0,0,1,290.994-282.789Zm-.607-61.147c-.191,18.476-.428,36.958-.6,55.432-.013,1.906-.368,3.237-2.221,4.322-16.268,9.494-32.473,19.1-48.7,28.668-.525.308-1.113.563-2.074,1.024-.041-1.652-.1-2.774-.087-3.88.205-18.012.469-36.015.56-54.028.017-2.66.766-4.221,3.156-5.615,15.889-9.206,31.672-18.6,47.5-27.919.612-.361,1.309-.656,2.227-1.081C290.254-345.822,290.4-344.871,290.387-343.936Zm-105.864-5.638c.375-.217.722-.415,1.062-.6q3.511-1.974,7.024-3.948,8.927-5.018,17.854-10.032v0q11.717-6.576,23.423-13.164a5.9,5.9,0,0,1,2.265-.819,4.315,4.315,0,0,1,2.24.633c16.335,9.326,32.744,18.549,49.116,27.815.594.338,1.124.766,2.012,1.379-.976.682-1.667,1.242-2.425,1.675q-24.294,13.659-48.6,27.336a5.843,5.843,0,0,1-2.263.809,4.347,4.347,0,0,1-2.241-.637c-16.341-9.329-32.74-18.549-49.114-27.808-.56-.32-1.08-.731-2.047-1.4C183.537-348.874,184.014-349.274,184.523-349.574Zm-2.54,3.152a91.791,91.791,0,0,1,8.967,4.589c14.716,8.729,29.181,17.3,43.725,25.917.183,20.343.366,40.588.556,61.643-4.619-2.738-8.466-5.024-12.305-7.3-12.559-7.447-25.1-14.93-37.7-22.284a5.041,5.041,0,0,1-2.935-4.966c-.061-18.133-.273-36.262-.433-54.391C181.85-344.144,181.916-345.1,181.983-346.422Zm.47,63.835a7.457,7.457,0,0,1,1.185.527c15.934,9.125,31.942,18.113,47.923,27.15.8.452,1.543,1.005,2.886,1.875-2.771,1.6-4.982,2.9-7.212,4.156-14.47,8.133-28.967,16.222-43.394,24.432a6.305,6.305,0,0,1-3.285.991,6.121,6.121,0,0,1-2.462-.87c-15.821-9.075-31.738-18-47.615-26.971-.9-.515-1.759-1.11-2.97-1.866a23.724,23.724,0,0,1,2.371-1.762c15.964-8.993,31.971-17.935,47.914-27,.088-.044.176-.09.263-.131.2-.111.389-.179.584-.271A5.7,5.7,0,0,1,182.453-282.587Zm-2.3-64.2c.1,1.293.2,2.221.185,3.128-.2,18.229-.471,36.457-.568,54.68a5.365,5.365,0,0,1-3.047,5.28c-15.555,9.053-31.028,18.251-46.533,27.392-.883.519-1.784,1.032-2.928,1.691-.119.031-.278.077-.449.126-.064-1.51-.151-2.578-.147-3.632.2-18.109.474-36.218.564-54.332a5.375,5.375,0,0,1,3.068-5.263c15.548-9.065,31.024-18.264,46.521-27.409.583-.346,1.173-.687,1.822-1.059.417-.218.869-.422,1.477-.722C180.132-346.863,180.145-346.828,180.157-346.786ZM75.216-350.209q9.712-5.458,19.423-10.925,4.685-2.628,9.363-5.266,9.908-5.568,19.81-11.143a7.171,7.171,0,0,1,.751-.341,4.27,4.27,0,0,1,2.792-.115,6.305,6.305,0,0,1,.955.427q24.218,13.816,48.507,27.47c.785.441,1.5,1.012,2.694,1.831-1.384.79-2.361,1.365-3.334,1.921-15.792,8.882-31.606,17.718-47.353,26.682a6.025,6.025,0,0,1-2.969.9,6.3,6.3,0,0,1-2.777-.9c-15.814-9.073-31.715-17.991-47.574-26.969-.89-.491-1.7-1.117-2.835-1.87C73.72-349.221,74.435-349.777,75.216-350.209Zm-3.35,3.4c.281.075.556.141.806.2a17.055,17.055,0,0,1,1.609.814q23.994,14.193,48,28.395a4.255,4.255,0,0,1,2.4,4.18c.1,18.585.307,37.18.469,55.77,0,.854-.117,1.719-.213,2.877-.947-.445-1.716-.77-2.393-1.171q-24-14.221-48-28.4a4.268,4.268,0,0,1-2.412-4.172c-.094-18.6-.292-37.183-.456-55.773C71.679-344.89,71.779-345.733,71.866-346.808Zm-1.051,63.931a4.829,4.829,0,0,1,2.409.722c16.13,9.216,32.328,18.322,48.5,27.479.7.385,1.353.864,2.348,1.508a19.5,19.5,0,0,1-1.969,1.527Q97.5-237.8,72.895-223.954a5.018,5.018,0,0,1-2.115.712,4.335,4.335,0,0,1-2.08-.625Q44.022-237.92,19.27-251.846c-.491-.283-.936-.659-2.009-1.418,1.366-.788,2.262-1.31,3.163-1.82q24.008-13.474,47.993-26.976a7.763,7.763,0,0,1,1.249-.578c.11-.039.219-.048.328-.077A4.306,4.306,0,0,1,70.815-282.877Zm-.653-61.117c-.2,18.464-.449,36.926-.582,55.383a4.617,4.617,0,0,1-2.551,4.5c-16.155,9.423-32.25,18.953-48.37,28.446-.521.3-1.106.568-1.828.921a12.352,12.352,0,0,1-.359-2.265q.3-28.225.611-56.456a3.821,3.821,0,0,1,1.961-3.745q24.962-14.634,49.87-29.366a11.346,11.346,0,0,1,1.1-.418C70.078-345.762,70.178-344.877,70.162-343.994Zm-104.819-6.254c15.9-8.956,31.835-17.855,47.7-26.881a8.669,8.669,0,0,1,1.265-.585,5.9,5.9,0,0,1,.846-.235l.056-.009a4.921,4.921,0,0,1,2.169.139,7.807,7.807,0,0,1,1.423.634c15.818,9.077,31.739,18,47.618,26.986.9.5,1.737,1.1,2.941,1.873a29.72,29.72,0,0,1-2.4,1.756Q42.627-332.91,18.3-319.236a5.2,5.2,0,0,1-2.331.757,4.693,4.693,0,0,1-2.181-.673q-24.543-13.981-49.159-27.836c-.59-.326-1.114-.785-2.23-1.575C-36.254-349.344-35.46-349.8-34.657-350.248Zm22.618,18.62c8.815,5.178,17.595,10.423,26.492,15.7.18,20.352.368,40.578.558,61.626-18.056-10.7-35.34-20.942-52.846-31.318-.191-20.235-.378-40.489-.575-61.463C-29.166-342.017-20.668-336.7-12.039-331.628ZM-39.449-283a4.722,4.722,0,0,1,2.483.7c16.132,9.223,32.33,18.329,48.5,27.482.655.367,1.3.817,2.2,1.4l.137.123a16.953,16.953,0,0,1-1.978,1.5c-16.393,9.254-32.811,18.452-49.19,27.723a6.533,6.533,0,0,1-1.006.459,4.876,4.876,0,0,1-2.514-.1,5.561,5.561,0,0,1-.678-.3q-10.007-5.7-20.043-11.348v.09q-14.268-8.083-28.556-16.148c-.807-.45-1.563-.991-2.636-1.684a12.183,12.183,0,0,1,1.612-1.361q24.662-13.881,49.345-27.747A5.789,5.789,0,0,1-39.449-283Zm-.586-63.967c.067,1.432.171,2.524.16,3.6-.2,18.136-.455,36.25-.573,54.379a5.39,5.39,0,0,1-2.974,5.332c-6.169,3.6-12.313,7.232-18.463,10.861v.178Q-76.4-264.062-90.906-255.49c-.679.4-1.416.7-2.612,1.257-.082-1.387-.179-2.2-.171-3.013.205-18.6.464-37.19.6-55.792A4.6,4.6,0,0,1-90.5-317.52q14.508-8.466,28.969-17.013v.008q9.351-5.505,18.7-11.008C-42.033-346-41.173-346.4-40.035-346.966Zm-105.559-3.028c16.208-9.125,32.445-18.2,48.628-27.382a4.824,4.824,0,0,1,5.5-.063Q-76.708-369-61.885-360.65v.061q9,5.089,18,10.18c.906.512,1.781,1.1,2.943,1.812a10.39,10.39,0,0,1-1.585,1.433q-9.679,5.454-19.359,10.9v.192q-14.43,8.085-28.816,16.248c-2.4,1.372-4.216,1.562-6.731.11-15.5-8.947-31.106-17.679-46.678-26.493-1.1-.626-2.192-1.271-3.612-2.1A19.135,19.135,0,0,1-145.594-349.994Zm-2.928,2.772c1.374.718,2.4,1.188,3.373,1.768,15.606,9.233,31.168,18.534,46.828,27.69a5.306,5.306,0,0,1,3.064,5.248c.047,18.131.27,36.266.427,54.395.01,1.138-.092,2.281-.15,3.849-1.375-.72-2.406-1.2-3.373-1.766-15.6-9.237-31.173-18.537-46.833-27.687a5.32,5.32,0,0,1-3.048-5.258c-.054-18.128-.271-36.257-.429-54.4C-148.677-344.512-148.585-345.645-148.522-347.222Zm2.355,65.4c15.708,9.032,31.527,17.891,47.3,26.82.913.514,1.783,1.092,2.941,1.812a9.682,9.682,0,0,1-1.525,1.456q-24.927,14.034-49.875,28.046a3.577,3.577,0,0,1-3.928.055q-25.178-14.309-50.378-28.557a12.972,12.972,0,0,1-1.249-1.01c1.174-.766,2-1.365,2.9-1.865,15.8-8.892,31.63-17.73,47.377-26.721A5.633,5.633,0,0,1-146.167-281.826Zm-3.658-62.11c-.19,18.476-.427,36.958-.6,55.432-.012,1.906-.367,3.237-2.22,4.322-16.268,9.494-32.473,19.1-48.7,28.668-.59.346-1.23.609-2.424,1.191-.041-1.751-.1-2.9-.092-4.047.205-18.012.469-36.015.56-54.028.017-2.66.767-4.221,3.157-5.615,15.888-9.206,31.671-18.6,47.5-27.919.693-.409,1.442-.7,2.565-1.237C-149.972-345.9-149.814-344.915-149.825-343.936Zm-105.156-6.241q24.151-13.569,48.3-27.148c1.672-.943,3.016-1.24,4.859-.186,16.336,9.326,32.745,18.549,49.117,27.815.594.338,1.123.766,2.012,1.379-.976.682-1.667,1.242-2.425,1.675q-24.294,13.659-48.6,27.336c-1.674.94-3.021,1.223-4.859.172-16.341-9.329-32.74-18.549-49.114-27.808-.6-.343-1.131-.776-2.237-1.539C-256.6-349.252-255.8-349.726-254.981-350.177Zm-3.557,2.841c17.955,10.653,35.409,21,53,31.42.184,20.412.368,40.722.559,61.854-4.785-2.836-8.72-5.175-12.662-7.509-12.559-7.447-25.1-14.93-37.7-22.284a5.042,5.042,0,0,1-2.935-4.966c-.061-18.133-.273-36.262-.433-54.391C-258.717-344.349-258.618-345.483-258.538-347.336Z" fill="#fff" fill-rule="evenodd"/>
      </g>
    </g>
  </g>
</svg>
