<svg xmlns="http://www.w3.org/2000/svg" width="127.882" height="36.757" viewBox="0 0 127.882 36.757">
  <g id="Group_232" data-name="Group 232" transform="translate(-235.868 -543.36)">
    <g id="Group_230" data-name="Group 230" transform="translate(235.868 543.36)">
      <path id="Path_1587" data-name="Path 1587" d="M261.783,556.615a2.163,2.163,0,1,1-2.163,2.163A2.163,2.163,0,0,1,261.783,556.615Zm0,3.363a1.2,1.2,0,1,0-1.2-1.2A1.2,1.2,0,0,0,261.783,559.978Z" transform="translate(-245.661 -548.483)" fill="#fff"/>
      <path id="Path_1588" data-name="Path 1588" d="M262.66,557.3a1.974,1.974,0,1,1-2.592,1.036A1.975,1.975,0,0,1,262.66,557.3Z" transform="translate(-245.772 -548.685)" fill="none"/>
      <path id="Path_1589" data-name="Path 1589" d="M249.707,562.249l0,.009-7.094,1.2,2.773-6.464a1.835,1.835,0,0,1,.606-.759,2.312,2.312,0,0,1,.684-.441l8.061-3.577a3.169,3.169,0,0,1,4.325,1.855l2.222,6.229L249.7,562.258Zm4.711-3.335a1.974,1.974,0,1,0-1.036-2.592A1.974,1.974,0,0,0,254.418,558.915Z" transform="translate(-239.086 -546.672)" fill="#f9b90f"/>
      <path id="Path_1590" data-name="Path 1590" d="M240.389,569.963l7.094-1.2-3.241,7.073-.01,0,.01,0-2.717,5.928-3.54-1.518a1.845,1.845,0,0,1-.968-2.422Z" transform="translate(-236.868 -553.178)" fill="#3aaced"/>
      <path id="Path_1591" data-name="Path 1591" d="M253.409,582.941l-.015.036.015-.036,5.06,2.15-1.859,4.334a1.845,1.845,0,0,1-2.422.968l-9.729-4.173,2.717-5.928Z" transform="translate(-239.801 -557.633)" fill="#f9b90f"/>
      <g id="Group_229" data-name="Group 229" transform="translate(13.54 13.629)">
        <path id="Path_1592" data-name="Path 1592" d="M267.589,565.574l.741,2.077a2.307,2.307,0,0,1,.152.8,1.842,1.842,0,0,1-.133.961l-4.286,9.99-5.06-2.15-.067-.029,4.749-10.99Z" transform="translate(-258.937 -565.574)" fill="#3aaced"/>
      </g>
      <path id="Path_1593" data-name="Path 1593" d="M255.4,544.073c1.163-1.33,3.177-.618,4.03.648a12.111,12.111,0,0,1,1.276,3.89,2.973,2.973,0,0,0-.622.081,26.559,26.559,0,0,0-.771-2.819,3,3,0,0,0-1.377-1.7,1.647,1.647,0,0,0-2.306.787,4.085,4.085,0,0,0,.2,2.382,8.039,8.039,0,0,0,1.693,2.812c.618.714,1.8,2.37,2.8,2.37a1.533,1.533,0,0,1-1.212.393c-1.384-.8-2.464-2.719-3.166-3.843C255.154,547.822,254.258,545.375,255.4,544.073Z" transform="translate(-243.82 -543.36)" fill="#fff"/>
    </g>
    <g id="Group_231" data-name="Group 231" transform="translate(266.838 554.16)">
      <path id="Path_1594" data-name="Path 1594" d="M294.775,566.67a6.226,6.226,0,0,0-1.371-1.044,3.123,3.123,0,0,0-1.46-.327,1.943,1.943,0,0,0-1.158.39,1.2,1.2,0,0,0-.566,1.031q0,.907,1.233,1.434,1.259.541,2.579,1.044a5.869,5.869,0,0,1,2.315,1.674,5.174,5.174,0,0,1,.969,3.4,5.589,5.589,0,0,1-1.724,4.4,6.261,6.261,0,0,1-4.366,1.547,8.528,8.528,0,0,1-2.969-.528,7.145,7.145,0,0,1-2.541-1.585l2.365-3.372a3.617,3.617,0,0,0,2.982,1.434,2.687,2.687,0,0,0,1.422-.415,1.3,1.3,0,0,0,.667-1.183q0-.919-1.245-1.46-.554-.238-1.284-.541l-.655-.264-.666-.277a5.98,5.98,0,0,1-2.3-1.674,4.946,4.946,0,0,1-.957-3.309,5.219,5.219,0,0,1,.831-2.944,5.323,5.323,0,0,1,2.151-1.912,6.189,6.189,0,0,1,2.806-.655,7.318,7.318,0,0,1,2.717.528,7.437,7.437,0,0,1,2.378,1.535Z" transform="translate(-285.716 -561.185)" fill="#fff"/>
      <path id="Path_1595" data-name="Path 1595" d="M317.407,582.5q-.4.177-.591.239a7.836,7.836,0,0,1-6.43-.377,7.149,7.149,0,0,1-2.717-2.466,6.646,6.646,0,0,1-.428-6.278,6.849,6.849,0,0,1,1.623-2.19,7.042,7.042,0,0,1,2.365-1.422,7.736,7.736,0,0,1,2.793-.516,8,8,0,0,1,2.793.5,7.056,7.056,0,0,1,2.365,1.434,6.869,6.869,0,0,1,1.636,2.19,6.416,6.416,0,0,1,.591,2.742l-.012,6.556-3.989-.038Zm-6.279-7.763a3,3,0,0,0-.466,1.623,3.086,3.086,0,0,0,1.007,2.3,3.387,3.387,0,0,0,4.718,0,3.086,3.086,0,0,0,1.007-2.3,3,3,0,0,0-.466-1.623,3.44,3.44,0,0,0-1.245-1.183,3.415,3.415,0,0,0-3.309,0A3.445,3.445,0,0,0,311.128,574.741Z" transform="translate(-293.806 -564.26)" fill="#fff"/>
      <path id="Path_1596" data-name="Path 1596" d="M343.2,570.335l-6.782,13.4L329.88,570.36l4.089-.025,2.5,5.713,2.466-5.713Z" transform="translate(-302.784 -564.585)" fill="#fff"/>
      <path id="Path_1597" data-name="Path 1597" d="M356.523,564.134a2.158,2.158,0,0,1-.755.755,2.091,2.091,0,0,1-2.1.013,2.143,2.143,0,0,1-.755-.768,2.108,2.108,0,0,1-.29-1.069,2.071,2.071,0,0,1,.277-1.057,2.241,2.241,0,0,1,.768-.768,2,2,0,0,1,1.044-.277,2.072,2.072,0,0,1,1.057.277,2.136,2.136,0,0,1,.755.768,2.177,2.177,0,0,1,0,2.126Zm.264,2.579v12.9h-4.014V566.725Z" transform="translate(-311.574 -560.963)" fill="#fff"/>
      <path id="Path_1598" data-name="Path 1598" d="M367.018,573.13q-1.534.063-1.534,2.139v7.612h-4.027v-7.612q0-5.5,5.561-5.775h.227q5.561.277,5.561,5.775v7.612H368.78v-7.612q0-2.076-1.535-2.139Z" transform="translate(-314.988 -564.26)" fill="#fff"/>
      <path id="Path_1599" data-name="Path 1599" d="M396.035,576.477l-.013,6.819v.931a5.78,5.78,0,0,1-1.761,4.24,5.682,5.682,0,0,1-2.189,1.3,7.606,7.606,0,0,1-2.542.453h-.7a6.413,6.413,0,0,1-4.568-1.749,5.151,5.151,0,0,1-1.383-2.051l3.837-2.227a2.464,2.464,0,0,0,.793,1.686,2.438,2.438,0,0,0,1.736.692,2.574,2.574,0,0,0,2.366-1.585l.012-.05.025-.063.05-.176a1.3,1.3,0,0,0,.063-.3v-.037l.013-.038.012-.05v-.076h.013v-1.321l-.1.05-.1.038a6.9,6.9,0,0,1-2.642.515,6.779,6.779,0,0,1-3.435-.918,6.921,6.921,0,0,1-3.536-6.09,6.727,6.727,0,0,1,.566-2.768,6.991,6.991,0,0,1,6.4-4.2,7.662,7.662,0,0,1,3.473.6Q396.035,571.645,396.035,576.477Zm-9.122,2.227a3.205,3.205,0,0,0,4.592,0,3.152,3.152,0,0,0,.528-3.913,3.293,3.293,0,0,0-2.831-1.611,3.147,3.147,0,0,0-1.6.428,3.369,3.369,0,0,0-1.22,1.183,3.151,3.151,0,0,0,.529,3.913Z" transform="translate(-322.919 -564.26)" fill="#fff"/>
      <path id="Path_1600" data-name="Path 1600" d="M407.228,585.544a2.307,2.307,0,0,1,.843-.818,2.227,2.227,0,0,1,2.239,0,2.456,2.456,0,0,1,.831.831,2.044,2.044,0,0,1,.314,1.107,2.249,2.249,0,0,1-.654,1.661,2.194,2.194,0,0,1-1.611.667,2.223,2.223,0,0,1-1.145-.3,2.168,2.168,0,0,1-.831-.843,2.434,2.434,0,0,1-.3-1.183A2.069,2.069,0,0,1,407.228,585.544Z" transform="translate(-332.555 -570.03)" fill="#fff"/>
      <path id="Path_1601" data-name="Path 1601" d="M420.242,564.134a2.168,2.168,0,0,1-.755.755,2.091,2.091,0,0,1-2.1.013,2.14,2.14,0,0,1-.755-.768,2.115,2.115,0,0,1-.289-1.069,2.071,2.071,0,0,1,.277-1.057,2.241,2.241,0,0,1,.768-.768,2,2,0,0,1,1.044-.277,2.072,2.072,0,0,1,1.057.277,2.136,2.136,0,0,1,.755.768,2.181,2.181,0,0,1,0,2.126Zm.264,2.579v12.9h-4.014V566.725Z" transform="translate(-336.199 -560.963)" fill="#fff"/>
      <path id="Path_1602" data-name="Path 1602" d="M430.737,573.13q-1.535.063-1.535,2.139v7.612h-4.026v-7.612q0-5.5,5.561-5.775h.226q5.561.277,5.562,5.775v7.612H432.5v-7.612q0-2.076-1.535-2.139Z" transform="translate(-339.613 -564.26)" fill="#fff"/>
    </g>
  </g>
</svg>
