<svg xmlns="http://www.w3.org/2000/svg" width="28.276" height="17.97" viewBox="0 0 28.276 17.97">
  <g id="Group_42" data-name="Group 42" transform="translate(0)">
    <path id="Path_21" data-name="Path 21" d="M19.522,44.442a8.979,8.979,0,0,0,6.057,8.493,8.861,8.861,0,0,0,9.685-2.582,10.155,10.155,0,0,0,1.819-7.184c-2.865-.026-5.73-.017-8.591-.013,0,1.021,0,2.037,0,3.058,1.716.047,3.431.026,5.147.06a4.963,4.963,0,0,1-2.917,3.4A5.674,5.674,0,1,1,26.9,39c1.84-.647,3.736.082,5.31,1.038.8-.746,1.544-1.544,2.278-2.351a9.031,9.031,0,0,0-14.97,6.755Z" transform="translate(-19.517 -35.445)" fill="#dc4e41"/>
    <path id="Path_22" data-name="Path 22" d="M75.029,48.668c-.009.854-.017,1.712-.022,2.565-.858.009-1.711.013-2.565.017v2.556c.854,0,1.712.009,2.565.017.009.854.009,1.707.017,2.565.849,0,1.7,0,2.556,0,0-.858.009-1.711.018-2.569l2.565-.013V51.25c-.853,0-1.711-.009-2.565-.017,0-.854-.013-1.712-.017-2.565Z" transform="translate(-51.886 -43.532)" fill="#dc4e41"/>
    <g id="Group_41" data-name="Group 41" transform="translate(0)">
      <path id="Path_23" data-name="Path 23" d="M19.522,44.441a9.031,9.031,0,0,1,14.97-6.756c-.734.807-1.48,1.6-2.278,2.351C30.64,39.079,28.744,38.35,26.9,39a5.674,5.674,0,1,0,3.822,10.676,4.964,4.964,0,0,0,2.917-3.4c-1.716-.034-3.431-.013-5.147-.06,0-1.021-.009-2.037,0-3.058,2.861,0,5.726-.013,8.591.013a10.152,10.152,0,0,1-1.819,7.184,8.86,8.86,0,0,1-9.685,2.582A8.978,8.978,0,0,1,19.522,44.441Z" transform="translate(-19.517 -35.445)" fill="#3aaced"/>
      <path id="Path_24" data-name="Path 24" d="M75.029,48.668H77.58c0,.854.013,1.712.017,2.565.853.009,1.711.013,2.565.017v2.556l-2.565.013c-.009.858-.013,1.711-.017,2.569-.853,0-1.707,0-2.556,0-.008-.858-.008-1.711-.017-2.565-.853-.009-1.711-.013-2.565-.017V51.25q1.281-.006,2.565-.017C75.011,50.38,75.02,49.522,75.029,48.668Z" transform="translate(-51.886 -43.532)" fill="#3aaced"/>
    </g>
  </g>
</svg>
