<svg xmlns="http://www.w3.org/2000/svg" width="22.112" height="17.97" viewBox="0 0 22.112 17.97">
  <g id="Group_39" data-name="Group 39" transform="translate(0)">
    <path id="Path_17" data-name="Path 17" d="M47.215,36.155a9.051,9.051,0,0,1-2.606.714,4.549,4.549,0,0,0,2-2.509,9.081,9.081,0,0,1-2.881,1.1A4.54,4.54,0,0,0,35.993,39.6a12.878,12.878,0,0,1-9.351-4.741,4.542,4.542,0,0,0,1.4,6.057,4.5,4.5,0,0,1-2.055-.568c0,.019,0,.039,0,.058a4.539,4.539,0,0,0,3.639,4.448,4.555,4.555,0,0,1-2.049.078,4.541,4.541,0,0,0,4.238,3.15A9.158,9.158,0,0,1,25.1,49.96,12.9,12.9,0,0,0,44.964,39.09q0-.295-.013-.587a9.2,9.2,0,0,0,2.264-2.348Z" transform="translate(-25.103 -34.028)" fill="#3aaced"/>
  </g>
</svg>
