<svg xmlns="http://www.w3.org/2000/svg" width="53.961" height="50" viewBox="0 0 53.961 50">
  <path id="Path_1569" data-name="Path 1569" d="M14.836,4H45.152a1.9,1.9,0,0,1,1.84,2V8h-34V6a1.9,1.9,0,0,1,1.844-2ZM7.875,10H52.113l4.859,13.125a2.992,2.992,0,0,1-5.98-.141.973.973,0,0,0,0-.1,1.01,1.01,0,0,0-.293-.621q-.034-.035-.07-.066h0a1.007,1.007,0,0,0-.547-.223,1,1,0,0,0-.2,0h0a1.01,1.01,0,0,0-.609.3s0,0,0,0q-.035.035-.066.074v0c-.019.025-.038.051-.055.078l0,0-.02.035c-.01.015-.019.031-.027.047s0,0,0,0c-.014.029-.028.059-.039.09,0,0,0,0,0,0q-.018.044-.031.09s0,0,0,0q-.012.046-.02.094s0,0,0,0c-.006.032-.009.065-.012.1s0,.047,0,.07a3,3,0,0,1-6,0,.974.974,0,0,0,0-.1,1.01,1.01,0,0,0-.293-.621q-.034-.035-.07-.066h0a1.007,1.007,0,0,0-.547-.223,1,1,0,0,0-.2,0h0a1.01,1.01,0,0,0-.609.3s0,0,0,0q-.035.035-.066.074s0,0,0,0c-.019.025-.038.051-.055.078l0,0-.02.035c-.01.015-.019.031-.027.047s0,0,0,0c-.014.029-.028.059-.039.09,0,0,0,0,0,0q-.018.044-.031.09v0q-.012.046-.02.094s0,0,0,0c-.006.032-.009.065-.012.1s0,.047,0,.07a3,3,0,0,1-6,0,.974.974,0,0,0,0-.1,1.01,1.01,0,0,0-.293-.621q-.034-.035-.07-.066h0a1.007,1.007,0,0,0-.547-.223,1,1,0,0,0-.2,0h0a1.01,1.01,0,0,0-.609.3s0,0,0,0q-.035.035-.066.074s0,0,0,0c-.019.025-.038.051-.055.078l0,0-.02.035c-.01.015-.019.031-.027.047s0,0,0,0c-.014.029-.028.059-.039.09,0,0,0,0,0,0q-.018.044-.031.09s0,0,0,0q-.012.046-.02.094s0,0,0,0c-.006.032-.009.065-.012.1s0,.047,0,.07a3,3,0,0,1-6,0,.974.974,0,0,0,0-.1,1.01,1.01,0,0,0-.293-.621q-.034-.035-.07-.066h0a1.007,1.007,0,0,0-.547-.223,1,1,0,0,0-.2,0h0a1.01,1.01,0,0,0-.609.3s0,0,0,0q-.035.035-.066.074s0,0,0,0c-.019.025-.038.051-.055.078l0,0-.02.035c-.01.015-.019.031-.027.047s0,0,0,0c-.014.029-.028.059-.039.09,0,0,0,0,0,0q-.018.044-.031.09s0,0,0,0c-.008.031-.015.062-.02.094,0,0,0,0,0,0-.006.032-.009.065-.012.1s0,.047,0,.07a3,3,0,0,1-6,0,.974.974,0,0,0,0-.1,1.01,1.01,0,0,0-.293-.621q-.034-.035-.07-.066h0a1.007,1.007,0,0,0-.547-.223,1,1,0,0,0-.2,0h0a1.01,1.01,0,0,0-.609.3s0,0,0,0q-.035.035-.066.074v0c-.019.025-.038.051-.055.078l0,0-.02.035c-.01.015-.019.031-.027.047s0,0,0,0c-.014.029-.028.059-.039.09,0,0,0,0,0,0q-.018.044-.031.09s0,0,0,0c-.008.031-.015.062-.02.094,0,0,0,0,0,0-.006.032-.009.065-.012.1s0,.047,0,.07a3,3,0,0,1-6,0,1,1,0,0,0-.3-.723q-.034-.035-.07-.066h0a1.007,1.007,0,0,0-.547-.223,1,1,0,0,0-.2,0h0a1.01,1.01,0,0,0-.609.3s0,0,0,0q-.035.035-.066.074s0,0,0,0q-.029.038-.055.078l0,0-.02.035-.027.047s0,0,0,0q-.022.044-.039.09s0,0,0,0q-.018.044-.031.09s0,0,0,0q-.012.046-.02.094s0,0,0,0q-.008.049-.012.1t0,.07a2.99,2.99,0,0,1-5.977.14ZM9.992,25.914a4.946,4.946,0,0,0,1.5,1.4,5,5,0,0,0,5,0,4.946,4.946,0,0,0,1.5-1.4,4.946,4.946,0,0,0,1.5,1.4,5,5,0,0,0,5,0,4.946,4.946,0,0,0,1.5-1.4,4.946,4.946,0,0,0,1.5,1.4,5,5,0,0,0,5,0,4.946,4.946,0,0,0,1.5-1.4,4.946,4.946,0,0,0,1.5,1.4,5,5,0,0,0,5,0,4.946,4.946,0,0,0,1.5-1.4,4.946,4.946,0,0,0,1.5,1.4,5,5,0,0,0,5,0,4.946,4.946,0,0,0,1.5-1.4,4.935,4.935,0,0,0,1,1.016V54h-28V40.988a1.039,1.039,0,0,0-1-1h-8a1.039,1.039,0,0,0-1,1V54h-4V26.93a4.935,4.935,0,0,0,1-1.016Zm22,8.086a1.039,1.039,0,0,0-1,1V47a1.039,1.039,0,0,0,1,1h14a1.039,1.039,0,0,0,1-1V35a1.039,1.039,0,0,0-1-1Zm2,3h10v8h-10Z" transform="translate(-3.012 -4)" fill="#3aaced" opacity="0.65"/>
</svg>
