<svg xmlns="http://www.w3.org/2000/svg" width="64.188" height="42.507" viewBox="0 0 64.188 42.507">
  <g id="discount_vouchers" data-name="discount vouchers" transform="translate(-1 -87.12)" opacity="0.65">
    <rect id="Rectangle_65" data-name="Rectangle 65" width="1.896" height="2.453" transform="translate(15.838 107.17)" fill="none"/>
    <rect id="Rectangle_66" data-name="Rectangle 66" width="1.896" height="2.454" transform="translate(15.838 112.053)" fill="none"/>
    <rect id="Rectangle_67" data-name="Rectangle 67" width="1.896" height="2.453" transform="translate(15.838 102.288)" fill="none"/>
    <rect id="Rectangle_68" data-name="Rectangle 68" width="1.896" height="2.453" transform="translate(15.838 116.936)" fill="none"/>
    <rect id="Rectangle_69" data-name="Rectangle 69" width="1.896" height="2.453" transform="translate(15.838 121.793)" fill="none"/>
    <rect id="Rectangle_70" data-name="Rectangle 70" width="1.896" height="2.454" transform="translate(15.838 97.404)" fill="none"/>
    <rect id="Rectangle_71" data-name="Rectangle 71" width="1.896" height="1.264" transform="translate(15.838 126.699)" fill="none"/>
    <path id="Path_1573" data-name="Path 1573" d="M228.932,177.34,218.46,194.1l2.091,1.1,10.472-16.76Z" transform="translate(-190.118 -78.9)" fill="none"/>
    <path id="Path_1574" data-name="Path 1574" d="M200.461,167.937a4.334,4.334,0,0,0,1.223-3.152v-1.138a4.374,4.374,0,0,0-1.223-3.173,5.3,5.3,0,0,0-6.871,0,4.358,4.358,0,0,0-1.23,3.161v1.138a4.307,4.307,0,0,0,1.238,3.152,4.613,4.613,0,0,0,3.446,1.253A4.519,4.519,0,0,0,200.461,167.937Zm-4.773-1.716a2.209,2.209,0,0,1-.467-1.436v-1.138a2.294,2.294,0,0,1,.464-1.45,1.587,1.587,0,0,1,1.334-.6,1.614,1.614,0,0,1,1.34.6,2.276,2.276,0,0,1,.472,1.45v1.138a2.233,2.233,0,0,1-.464,1.436,1.587,1.587,0,0,1-1.319.582A1.65,1.65,0,0,1,195.689,166.222ZM207.28,171.3a4.579,4.579,0,0,0-3.431,1.264,4.333,4.333,0,0,0-1.238,3.152v1.138a4.323,4.323,0,0,0,1.245,3.161,4.628,4.628,0,0,0,3.454,1.264,4.545,4.545,0,0,0,3.413-1.252,4.359,4.359,0,0,0,1.223-3.161v-1.138a4.354,4.354,0,0,0-1.229-3.161A4.584,4.584,0,0,0,207.28,171.3Zm1.812,5.551a2.416,2.416,0,0,1-.412,1.48,1.6,1.6,0,0,1-1.369.552,1.666,1.666,0,0,1-1.334-.6,2.139,2.139,0,0,1-.506-1.436V175.71a2.276,2.276,0,0,1,.464-1.435,1.6,1.6,0,0,1,1.348-.6,1.583,1.583,0,0,1,1.341.6,2.239,2.239,0,0,1,.472,1.435Z" transform="translate(-167.321 -63.059)" fill="none"/>
    <rect id="Rectangle_72" data-name="Rectangle 72" width="1.896" height="2.453" transform="translate(15.838 92.547)" fill="none"/>
    <rect id="Rectangle_73" data-name="Rectangle 73" width="1.896" height="1.264" transform="translate(15.838 88.831)" fill="none"/>
    <path id="Path_1575" data-name="Path 1575" d="M227.049,190.2a1.6,1.6,0,0,0-1.348.6,2.276,2.276,0,0,0-.469,1.435v1.138a2.139,2.139,0,0,0,.506,1.436,1.666,1.666,0,0,0,1.334.6,1.605,1.605,0,0,0,1.369-.552,2.42,2.42,0,0,0,.412-1.48v-1.138a2.239,2.239,0,0,0-.46-1.435A1.617,1.617,0,0,0,227.049,190.2Zm-8.917-7.46a2.233,2.233,0,0,0,.464-1.436v-1.138a2.276,2.276,0,0,0-.472-1.45,1.8,1.8,0,0,0-2.674,0,2.3,2.3,0,0,0-.459,1.454v1.138a2.209,2.209,0,0,0,.472,1.436,1.639,1.639,0,0,0,1.355.582A1.6,1.6,0,0,0,218.132,182.741Z" transform="translate(-187.089 -79.581)" fill="#3aaced"/>
    <path id="Path_1576" data-name="Path 1576" d="M62.8,102.546a8.307,8.307,0,0,0-4.858-2.439v-8.5a4.491,4.491,0,0,0-4.486-4.486H5.486A4.491,4.491,0,0,0,1,91.606v9.6a.944.944,0,0,0,.944.944,6.237,6.237,0,1,1,0,12.473.944.944,0,0,0-.944.931v9.59a4.491,4.491,0,0,0,4.486,4.486H53.456a4.491,4.491,0,0,0,4.486-4.486v-8.457A8.363,8.363,0,0,0,62.8,102.546ZM17.724,127.972H15.836v-1.259h1.888Zm0-3.7H15.836v-2.442h1.888Zm0-4.884H15.836v-2.442h1.888Zm0-4.884H15.836v-2.444h1.888Zm0-4.885H15.836v-2.442h1.888Zm0-4.884H15.836v-2.442h1.888Zm0-4.884H15.836V97.407h1.888Zm0-4.885H15.836V92.517h1.888Zm0-4.884H15.836V88.824h1.888Zm7.358,11.663v-1.133a4.332,4.332,0,0,1,1.225-3.147,4.537,4.537,0,0,1,3.41-1.259,4.554,4.554,0,0,1,3.431,1.259,4.356,4.356,0,0,1,1.217,3.159v1.133a4.316,4.316,0,0,1-1.217,3.138,4.517,4.517,0,0,1-3.4,1.247,4.605,4.605,0,0,1-3.431-1.247,4.3,4.3,0,0,1-1.232-3.152Zm3.285,13.417L38.793,98.477l2.082,1.1L30.453,116.261Zm16.221-1.41a4.306,4.306,0,0,1-1.217,3.147,4.565,4.565,0,0,1-3.4,1.246,4.608,4.608,0,0,1-3.439-1.259,4.3,4.3,0,0,1-1.24-3.147v-1.133a4.312,4.312,0,0,1,1.232-3.138,4.548,4.548,0,0,1,3.416-1.259,4.558,4.558,0,0,1,3.425,1.259,4.328,4.328,0,0,1,1.223,3.147Z" transform="translate(0 0)" fill="#3aaced"/>
  </g>
</svg>
