<svg xmlns="http://www.w3.org/2000/svg" width="67.73" height="57.774" viewBox="0 0 67.73 57.774">
  <g id="Solid" transform="translate(-32 -24)">
    <g id="Group_605" data-name="Group 605" transform="translate(32 24)">
      <path id="Path_1591" data-name="Path 1591" d="M120,192h16.939v4.84H120Z" transform="translate(-106.691 -166.592)" fill="#3aaced"/>
      <path id="Path_1592" data-name="Path 1592" d="M120,144h16.939v4.84H120Z" transform="translate(-106.691 -125.851)" fill="#3aaced"/>
      <path id="Path_1593" data-name="Path 1593" d="M140.84,105.815V104h-3.025A1.817,1.817,0,0,0,136,105.815v1.815h3.025A1.817,1.817,0,0,0,140.84,105.815Z" transform="translate(-120.271 -91.901)" fill="#3aaced"/>
      <path id="Path_1594" data-name="Path 1594" d="M72,144h4.84v4.84H72Z" transform="translate(-65.95 -125.851)" fill="#3aaced"/>
      <path id="Path_1595" data-name="Path 1595" d="M72,192h4.84v4.84H72Z" transform="translate(-65.95 -166.592)" fill="#3aaced"/>
      <path id="Path_1596" data-name="Path 1596" d="M330.825,105.459a1.82,1.82,0,0,0-1.78-1.459h-1.149v23.9a2.649,2.649,0,0,1-2.631,2.722h-2.209a1.21,1.21,0,0,1-.945-.454l-8.964-11.2-.505.361a7.857,7.857,0,0,0-2.044,10.652l.013.021,7.426,12.09a1.211,1.211,0,0,1,.18.633v6.957h13.309v-5.747a1.208,1.208,0,0,1,.027-.253l3.577-16.694Z" transform="translate(-267.399 -91.901)" fill="#3aaced"/>
      <path id="Path_1599" data-name="Path 1599" d="M89.815,107.63H92.84v-1.815A1.817,1.817,0,0,0,91.025,104H88v1.815a1.817,1.817,0,0,0,1.815,1.815Z" transform="translate(-79.531 -91.901)" fill="#3aaced"/>
      <path id="Path_1600" data-name="Path 1600" d="M75.836,49.451l1.438-1.027a1.21,1.21,0,0,1,1.649.229L88.238,60.3h1.627c.2,0,.211-.232.211-.3V25.512A1.512,1.512,0,0,0,88.564,24H33.512A1.512,1.512,0,0,0,32,25.512V58.785A1.512,1.512,0,0,0,33.512,60.3H71.828a10.277,10.277,0,0,1,4.008-10.847Zm-6.328-18.8a4.24,4.24,0,0,1,4.235-4.235H85.236a1.21,1.21,0,0,1,1.21,1.21v1.815a4.24,4.24,0,0,1-4.235,4.235H70.717a1.21,1.21,0,0,1-1.21-1.21ZM35.63,27.63H44.1v2.42H35.63ZM64.668,55.458a1.21,1.21,0,0,1-1.21,1.21H36.84a1.21,1.21,0,0,1-1.21-1.21V40.939a1.21,1.21,0,0,1,1.21-1.21h1.618a4.21,4.21,0,0,1-.408-1.815V34.889a1.21,1.21,0,0,1,1.21-1.21h4.235a4.222,4.222,0,0,1,3.025,1.274,4.222,4.222,0,0,1,3.025-1.274h4.235a1.21,1.21,0,0,1,1.21,1.21v3.025a4.21,4.21,0,0,1-.408,1.815h8.878a1.21,1.21,0,0,1,1.21,1.21Zm0-25.408H46.519V27.63H64.668Z" transform="translate(-32 -24)" fill="#3aaced"/>
      <path id="Path_1602" data-name="Path 1602" d="M308.1,56.6V56H297.815A1.817,1.817,0,0,0,296,57.815v.6h10.284A1.817,1.817,0,0,0,308.1,56.6Z" transform="translate(-256.073 -51.16)" fill="#3aaced"/>
    </g>
  </g>
</svg>
