<svg xmlns="http://www.w3.org/2000/svg" width="71.441" height="48" viewBox="0 0 71.441 48">
  <path id="Exclusion_2" data-name="Exclusion 2" d="M-1377.615,48h-53.391A5.042,5.042,0,0,1-1436,42.934V32.105a1.062,1.062,0,0,1,1.051-1.052,7,7,0,0,0,6.941-7.043,7,7,0,0,0-6.941-7.043A1.06,1.06,0,0,1-1436,15.9V5.066A5.043,5.043,0,0,1-1431.007,0h53.391a5.043,5.043,0,0,1,4.993,5.066v9.6a9.239,9.239,0,0,1,5.407,2.755,9.477,9.477,0,0,1,2.428,4.528,9.57,9.57,0,0,1-.277,5.147,9.441,9.441,0,0,1-2.9,4.232,9.234,9.234,0,0,1-4.659,2.057v9.55A5.042,5.042,0,0,1-1377.615,48Zm-41.872-3.29v1.421h2.1V44.71Zm0-5.516v2.758h2.1V39.195Zm24.722-30.755-12.939,5.834v8.751c0,8.145,5.563,15.67,12.939,17.5,7.376-1.833,12.938-9.358,12.938-17.5V14.274l-12.938-5.834Zm-24.722,25.241v2.757h2.1V33.68Zm0-5.517v2.76h2.1v-2.76Zm0-5.514v2.757h2.1V22.649Zm0-5.515v2.757h2.1V17.134Zm0-5.517v2.76h2.1v-2.76Zm0-5.523V8.861h2.1V6.094Zm0-4.17V3.346h2.1V1.925Zm21.846,29.852h0l-5.75-5.834,2.035-2.064,3.716,3.771,9.466-9.605,2.035,2.064-11.5,11.668Z" transform="translate(1436)" fill="#3aaced"/>
</svg>
