<svg xmlns="http://www.w3.org/2000/svg" width="57.605" height="50" viewBox="0 0 57.605 50">
  <path id="Exclusion_1" data-name="Exclusion 1" d="M52.805,50H4.8a4.793,4.793,0,0,1-3.393-1.4A4.725,4.725,0,0,1,0,45.232V14.172H57.606v31.06A4.726,4.726,0,0,1,56.2,48.6,4.792,4.792,0,0,1,52.805,50ZM28.771,17.448A13.78,13.78,0,1,0,42.645,31.227H39.96a11.151,11.151,0,1,1-3.277-7.858l.411.408-3.664,3.639h9.225l0-9.163-3.664,3.64-.411-.408A13.831,13.831,0,0,0,28.771,17.448Zm-2.685,8.89v7.557h7.608V31.227H28.771v-4.89Zm31.52-14.188H0V4.767A4.725,4.725,0,0,1,1.408,1.4,4.792,4.792,0,0,1,4.8,0h48A4.791,4.791,0,0,1,56.2,1.4a4.725,4.725,0,0,1,1.407,3.369v7.381ZM25.264,2.963a3.2,3.2,0,1,0-.01,6.4h.019a3.2,3.2,0,1,0,0-6.4Zm-9.9-.03a3.2,3.2,0,0,0-.01,6.4h.01a3.2,3.2,0,0,0,.01-6.4ZM5.46,2.9a3.2,3.2,0,0,0-.01,6.4h.02a3.231,3.231,0,0,0,2.262-.93,3.176,3.176,0,0,0,.709-3.486A3.214,3.214,0,0,0,5.471,2.9Zm19.8,4.439h0a1.178,1.178,0,0,1,0-2.355h0a1.178,1.178,0,0,1,0,2.355Zm-9.9-.032h0a1.178,1.178,0,0,1,0-2.355h0a1.178,1.178,0,0,1,0,2.355Zm-9.9-.03h0a1.184,1.184,0,0,1-.822-.355A1.166,1.166,0,0,1,4.3,6.1,1.187,1.187,0,0,1,5.46,4.923h0a1.177,1.177,0,1,1,0,2.355Z" fill="#3aaced"/>
</svg>
