<svg xmlns="http://www.w3.org/2000/svg" xmlns:xlink="http://www.w3.org/1999/xlink" width="980" height="277" viewBox="0 0 980 277">
  <defs>
    <filter id="Rectangle_15" x="401" y="106" width="171" height="171" filterUnits="userSpaceOnUse">
      <feOffset dy="3" input="SourceAlpha"/>
      <feGaussianBlur stdDeviation="3" result="blur"/>
      <feFlood flood-opacity="0.161"/>
      <feComposite operator="in" in2="blur"/>
      <feComposite in="SourceGraphic"/>
    </filter>
    <filter id="Rectangle_15-2" x="0" y="0" width="171" height="171" filterUnits="userSpaceOnUse">
      <feOffset dy="3" input="SourceAlpha"/>
      <feGaussianBlur stdDeviation="3" result="blur-2"/>
      <feFlood flood-opacity="0.161"/>
      <feComposite operator="in" in2="blur-2"/>
      <feComposite in="SourceGraphic"/>
    </filter>
    <filter id="Rectangle_15-3" x="809" y="0" width="171" height="171" filterUnits="userSpaceOnUse">
      <feOffset dy="3" input="SourceAlpha"/>
      <feGaussianBlur stdDeviation="3" result="blur-3"/>
      <feFlood flood-opacity="0.161"/>
      <feComposite operator="in" in2="blur-3"/>
      <feComposite in="SourceGraphic"/>
    </filter>
  </defs>
  <g id="Group_36454" data-name="Group 36454" transform="translate(-197 -1324)">
    <path id="Path_1603" data-name="Path 1603" d="M1795,1406.5s64.314,88.161,254.19,102.906,344.013-25.436,415.225-102.906" transform="translate(-1436)" fill="none" stroke="#f89800" stroke-width="3" stroke-dasharray="10 10"/>
    <g id="Group_607" data-name="Group 607" transform="translate(607 1436)">
      <g transform="matrix(1, 0, 0, 1, -410, -112)" filter="url(#Rectangle_15)">
        <rect id="Rectangle_15-4" data-name="Rectangle 15" width="153" height="153" rx="20" transform="translate(410 112)" fill="#3aaced"/>
      </g>
      <text id="Step2" transform="translate(80 127)" fill="#fff" font-size="15" font-family="Roboto-Regular, Roboto"><tspan x="-22.482" y="0">STEP2</tspan></text>
    </g>
    <g id="Group_38" data-name="Group 38" transform="translate(206 1330)">
      <g transform="matrix(1, 0, 0, 1, -9, -6)" filter="url(#Rectangle_15-2)">
        <rect id="Rectangle_15-5" data-name="Rectangle 15" width="153" height="153" rx="20" transform="translate(9 6)" fill="#3aaced"/>
      </g>
      <text id="Step1" transform="translate(80 127)" fill="#fff" font-size="15" font-family="Roboto-Regular, Roboto"><tspan x="-22.482" y="0">STEP1</tspan></text>
    </g>
    <g id="Group_608" data-name="Group 608" transform="translate(1015 1330)">
      <g transform="matrix(1, 0, 0, 1, -818, -6)" filter="url(#Rectangle_15-3)">
        <rect id="Rectangle_15-6" data-name="Rectangle 15" width="153" height="153" rx="20" transform="translate(818 6)" fill="#3aaced"/>
      </g>
      <text id="Step3" transform="translate(80 127)" fill="#fff" font-size="15" font-family="Roboto-Regular, Roboto"><tspan x="-22.482" y="0">STEP3</tspan></text>
    </g>
    <path id="Exclusion_3" data-name="Exclusion 3" d="M-1386.009,60h-20a10.009,10.009,0,0,1-10-10V39.994h-11.1A8.953,8.953,0,0,1-1436,31.1V8.9a8.958,8.958,0,0,1,8.9-8.9h22.192a8.958,8.958,0,0,1,8.9,8.9V20h10A10.015,10.015,0,0,1-1376,30V50A10.015,10.015,0,0,1-1386.009,60Zm-21.581-16.226v4.851h24.255V43.774Zm0-11.321V37.3h24.255V32.452ZM-1427.1,6.669a2.234,2.234,0,0,0-2.231,2.232V31.1a2.234,2.234,0,0,0,2.231,2.232h11.1V30a10.009,10.009,0,0,1,10-10h3.338V8.9a2.239,2.239,0,0,0-2.241-2.232Z" transform="translate(1688.867 1363.867)" fill="#fff"/>
    <path id="Exclusion_4" data-name="Exclusion 4" d="M-1373.5,69.686a1.156,1.156,0,0,1-.89-.417l-6.527-7.854-3.221,3.258a1.138,1.138,0,0,1-.814.343,1.153,1.153,0,0,1-1.114-.835l-5.424-18.319a1.162,1.162,0,0,1,.177-1.03,1.158,1.158,0,0,1,.926-.478,1.154,1.154,0,0,1,.338.051l18.119,5.484a1.156,1.156,0,0,1,.79.836,1.17,1.17,0,0,1-.3,1.114l-3.222,3.257,7.767,6.6a1.163,1.163,0,0,1,.412.846,1.181,1.181,0,0,1-.337.878l-5.859,5.924A1.143,1.143,0,0,1-1373.5,69.686Zm-30.928-7.321a1.166,1.166,0,0,1-1.159-1.172v-2.05a1.166,1.166,0,0,1,1.159-1.171,1.166,1.166,0,0,1,1.159,1.171v2.05A1.166,1.166,0,0,1-1404.43,62.365Zm-11.512-3.192a1.141,1.141,0,0,1-1.069-.726,1.161,1.161,0,0,1,.25-1.274l1.434-1.449a1.143,1.143,0,0,1,.819-.343,1.145,1.145,0,0,1,.819.343,1.169,1.169,0,0,1,.339.828,1.169,1.169,0,0,1-.339.828l-1.434,1.45A1.145,1.145,0,0,1-1415.942,59.173Zm21.811-8.794h-33.76a8.013,8.013,0,0,1-5.734-2.4,8.192,8.192,0,0,1-2.375-5.8V20.186a8.192,8.192,0,0,1,2.375-5.8,8.013,8.013,0,0,1,5.734-2.4h46.921a8.013,8.013,0,0,1,5.735,2.4,8.192,8.192,0,0,1,2.375,5.8V42.179a8.164,8.164,0,0,1-.886,3.723,1.143,1.143,0,0,1-1.026.63,1.148,1.148,0,0,1-.334-.05l-14.281-4.322a3.482,3.482,0,0,0-1.01-.152,3.479,3.479,0,0,0-2.781,1.431,3.5,3.5,0,0,0-.535,3.095l.692,2.337a1.172,1.172,0,0,1-.18,1.036A1.145,1.145,0,0,1-1394.13,50.379Zm-34.533-25.874V34.6h49.187V24.506Zm34.312-17.521a1.142,1.142,0,0,1-1.07-.726,1.159,1.159,0,0,1,.25-1.273l1.433-1.45a1.147,1.147,0,0,1,.82-.343,1.145,1.145,0,0,1,.819.343,1.183,1.183,0,0,1,0,1.657l-1.433,1.449A1.145,1.145,0,0,1-1394.351,6.984Zm-20.156,0a1.143,1.143,0,0,1-.819-.343l-1.434-1.449a1.183,1.183,0,0,1,0-1.657,1.146,1.146,0,0,1,.82-.343,1.145,1.145,0,0,1,.819.343l1.434,1.45a1.159,1.159,0,0,1,.25,1.273A1.141,1.141,0,0,1-1414.508,6.984Zm10.078-2.591a1.166,1.166,0,0,1-1.159-1.172V1.172A1.166,1.166,0,0,1-1404.43,0a1.166,1.166,0,0,1,1.159,1.172v2.05A1.166,1.166,0,0,1-1404.43,4.393Z" transform="translate(2087.708 1464)" fill="#fff"/>
    <g id="computer" transform="translate(1061.531 1364)">
      <path id="Path_1605" data-name="Path 1605" d="M1.836,335.512v1.041a8.551,8.551,0,0,0,8.541,8.541H48.911a8.551,8.551,0,0,0,8.541-8.541v-1.041Z" transform="translate(0 -298.514)" fill="#fff"/>
      <path id="Path_1606" data-name="Path 1606" d="M162.035,456.788h-2.269l-.434-2.384H142.742l-.434,2.384h-2.269a1.764,1.764,0,1,0,0,3.529h22a1.764,1.764,0,1,0,0-3.529Z" transform="translate(-121.393 -404.296)" fill="#fff"/>
      <path id="Path_1607" data-name="Path 1607" d="M223.705,143.577l8.331-1.08,1.056-4.513H222.954Z" transform="translate(-196.735 -122.768)" fill="#fff"/>
      <path id="Path_1608" data-name="Path 1608" d="M48.911,0H10.377A8.551,8.551,0,0,0,1.836,8.541V33.469H57.452V8.541A8.551,8.551,0,0,0,48.911,0ZM26.875,29.6a1.837,1.837,0,1,1,1.837-1.837A1.837,1.837,0,0,1,26.875,29.6Zm7.438,0a1.837,1.837,0,1,1,1.837-1.837A1.837,1.837,0,0,1,34.313,29.6ZM40.3,13.853l-1.841,7.869a1.764,1.764,0,0,1-1.491,1.348C24.9,24.635,25.623,24.549,25.453,24.549a1.765,1.765,0,0,1-1.746-1.53c-.242-1.8.069.421-1.8-12.745l-1.591-.357a1.764,1.764,0,1,1,.773-3.443l2.78.624a1.764,1.764,0,0,1,1.36,1.474l.442,3.115H38.582A1.765,1.765,0,0,1,40.3,13.853Z" fill="#fff"/>
    </g>
  </g>
</svg>
